<svg xmlns="http://www.w3.org/2000/svg" viewBox="0 0 107.64 194.89"><defs><style>.cls-1{fill:#0f0e0a;}.cls-2{fill:#99cc61;}.cls-3{fill:#d89120;}.cls-4{fill:#aa7222;}.cls-5{fill:#f9f9f8;}</style></defs><title>Asset 10</title><g id="Layer_2" data-name="Layer 2"><g id="Layer_1-2" data-name="Layer 1"><path class="cls-1" d="M16.64,194.89C12.91,186.08,9.32,177.25,4,169.14,0,163-.13,155.45.05,148.36c.1-3.87,2.63-6.57,7.73-6.33,10.12.47,20.28.14,30.59.14v-25c-6.14,4.91-11.7,9.18-17.06,13.69-3.83,3.22-5.08,3.2-7.39-1.15C7.67,118,8,106.45,15.17,95.19c2.28-3.58,8.07-5.42,12-2.94,3.26,2.07,6.18,1.63,9.64,1.1a63.34,63.34,0,0,0-1.31-21.8,18.16,18.16,0,0,0-8.86,11.22c-1.37,4.47-4.28,5.48-8.24,3-2.36-1.49-4.92-3.17-6.43-5.41C8.11,74.7,5.07,68.5,4.61,61.54c-.5-7.52,2.66-11.73,10-13.6,9.41-2.4,18.4-2,26,5,3.74,3.41,4.43,7.41,1.4,11.4s-2.67,7.67-1.39,12a31.63,31.63,0,0,1,.38,14.36c-.4,2.34-1.33,5.06,2,6.4,2.07-3.87,2.11-8.21,2.32-12.34.79-15.45,1.35-30.89,4.26-46.15.93-4.89-.21-10.06,1.47-14.85.85-2.42-2.61-3.52-1.52-5.36,2.31-3.88,3.1-8.25,4.39-13.82,1.84,3.73,3.43,4.13,5.49,1.83a23.22,23.22,0,0,1,4-2.92c5.7.89,11.47,1.28,17.12,2.73C77.16,3,72.44,3,68.62.91c8.68-2.65,16.09.82,22.06,6.23,5.61,5.09,9.67,11.82,12.58,19a23.75,23.75,0,0,1,1.64,6.24c1.16,11-1.63,13.33-12.05,10.28-7.73-2.27-15.47-3.71-23.56-1.94-5.36,1.18-9.52-1.73-14-5.34-3.53,20.15-4.38,39.84-5.65,59.49l1.44.2c1.51-5.67,2.83-11.4,4.59-17,2.18-7,4.49-13.93,9.55-19.54,3.11-3.46,6.2-5.27,11.35-3.61,3.78,1.22,8.2.41,12.34.51C99,55.68,103,57.25,106.56,69.5c.2.66.27,1.27,1.08,1.39v4c-1.64,0-1.67,1.44-1.91,2.48-1.64,7-5.54,12.73-9.82,18.31-2.4,3.12-5.26,5.12-9.26,5.13-7.8-17.94-8.41-14-25.34-26.64-5.59,15.77-7,32.37-11.16,49,4.78-1.88,8-4.13,9.82-6.93a7.6,7.6,0,0,1,4.35-3.12c3.79-1.12,7.24-.77,9.92,2.56a11,11,0,0,1,.68,13.42c-1.8,2.87-4.48,5.29-1.55,9.15,1.3,1.71-1,2.94-1.78,3.8,3.2,2.52,7.78,4.28,7.09,9.11-1.89,13.18-4.85,26.15-10.36,38.36a18.43,18.43,0,0,0-1.68,5.34Zm41-47.83c-16.31,0-32.63-.91-48.92.72C6,148,4.43,149,4.84,151.73,6.53,162.59,9.51,173,15.57,183.3c.66-5.35-1.72-9.31-2.08-13.59s-1.89-8.53,1.57-12.54c1.59,11.84,5.66,23,8.19,34.49H50.58c1.15.07,2.32.05,3.45.23,4.86.74,7.78-1,9.84-5.77,4.68-10.88,7.12-22.36,9.65-33.8.81-3.69-2.34-5.16-5.5-5.37C64.56,146.72,61.07,147,57.6,147.06ZM60.7,22.65c-.4.48-2.65.4-3.35,2.87C55.68,31.33,61.18,37.45,68,36.85c2.64-.24,5.27-.61,7.91-.79C84,35.5,91.55,38.28,99.2,40.13c3.88-10.59-8.14-32.71-18.14-33.72.92,2.82,4.84,3.78,4.5,8.35C75,8.68,64,2.24,60.7,22.65ZM88.48,97.48c7.79-7.76,13.2-15.51,14-25.62.43-5.62-3-11.06-7.22-11.8a32.26,32.26,0,0,0-11.31-.3c0,2.11,1.9,2.91,2.35,4.44s2.29,2.67.87,4.47c-2.66-.46-2.66-.46-4.54-2.84-2.88-3.64-9.92-5.34-14-3.38-5.32,2.57-5.21,8.94.32,12.9C76.85,81,85.39,86,88.48,97.48ZM24.21,96.11a5,5,0,0,0-5.87,2.48c-6.08,9.64-5.79,19.32-.44,29.39,5-3.89,9.75-7.76,14.7-11.34,4.64-3.36,5.33-7.46,3.26-12.5-1-2.32-1.5-5-4.4-5.46s-4.05,1.85-5.55,4-2.21,6.1-7.36,5.69C21.65,104.39,22.46,100.11,24.21,96.11ZM21.82,54.67c-11,6.34-10.49,19.57.82,27.52,1-5.78,4.73-9.49,8.84-13,1.2-1,3.11-1.76,3.06-3.67-.1-3.95-1.06-8.51-4.49-10s-5.35,2.71-6.94,5.59c-.73,1.31-.75,3.5-3.48,2.59C18.67,60.68,21.14,58.26,21.82,54.67Zm42.77,83c-.49-4.25-1.38-8.15-1.3-12.2.06-3-2.61-3.32-4.51-1.15-2.21,2.51-4.4,5.64-2.94,9C57.22,136.55,60.53,137.69,64.59,137.7Zm4.06-7.55c3.57-3.94,5.49-7.33,2.18-11.58-2.13-2.73-4.43-2.14-7.35-.37C67.44,121.06,68,125.19,68.65,130.15ZM16.84,52.2c-7,0-10,4.12-8.13,11.1A29.3,29.3,0,0,1,16.84,52.2Zm44,89.74-7.48-4.09a5.22,5.22,0,0,0-1.93,4C54.27,142.65,57,142.1,60.88,141.94Zm-15.59-5.23v-6.89C44.7,131.73,44,133.62,45.29,136.71Z"/><path class="cls-2" d="M68.62.91c3.82,2.09,8.54,2,12,5.31C75,4.77,69.19,4.38,63.49,3.49,65,2.24,66.44.83,68.62.91Z"/><path class="cls-3" d="M50.58,191.66H23.25c-2.53-11.54-6.6-22.65-8.19-34.49-3.46,4-1.92,8.32-1.57,12.54s2.74,8.24,2.08,13.59c-6.06-10.28-9-20.71-10.73-31.57C4.43,149,6,148,8.68,147.78c16.29-1.63,32.61-.74,48.92-.72.23,6.27-1,12.4-1.65,18.59C55,174.52,51.93,182.91,50.58,191.66Z"/><path class="cls-2" d="M60.7,22.65C64,2.24,75,8.68,85.56,14.76c.34-4.57-3.58-5.53-4.5-8.35,10,1,22,23.13,18.14,33.72C91.55,38.28,84,35.5,75.89,36.06c-2.64.18-5.27.55-7.91.79-6.8.6-12.3-5.52-10.63-11.33C58.05,23.05,60.3,23.13,60.7,22.65Z"/><path class="cls-2" d="M88.48,97.48C85.39,86,76.85,81,69,75.35c-5.53-4-5.64-10.33-.32-12.9,4-2,11.08-.26,14,3.38,1.88,2.38,1.88,2.38,4.54,2.84,1.42-1.8-.44-3-.87-4.47s-2.37-2.33-2.35-4.44a32.26,32.26,0,0,1,11.31.3c4.21.74,7.65,6.18,7.22,11.8C101.68,82,96.27,89.72,88.48,97.48Z"/><path class="cls-4" d="M50.58,191.66c1.35-8.75,4.44-17.14,5.37-26,.65-6.19,1.88-12.32,1.65-18.59,3.47-.06,7-.34,10.42-.11,3.16.21,6.31,1.68,5.5,5.37-2.53,11.44-5,22.92-9.65,33.8-2.06,4.78-5,6.51-9.84,5.77C52.9,191.71,51.73,191.73,50.58,191.66Z"/><path class="cls-2" d="M24.21,96.11c-1.75,4-2.56,8.28-5.66,12.26,5.15.41,5.79-3.47,7.36-5.69s2.59-4.46,5.55-4,3.45,3.14,4.4,5.46c2.07,5,1.38,9.14-3.26,12.5-5,3.58-9.68,7.45-14.7,11.34-5.35-10.07-5.64-19.75.44-29.39A5,5,0,0,1,24.21,96.11Z"/><path class="cls-2" d="M21.82,54.67c-.68,3.59-3.15,6-2.19,9.1,2.73.91,2.75-1.28,3.48-2.59,1.59-2.88,3.38-7.1,6.94-5.59s4.39,6,4.49,10c.05,1.91-1.86,2.64-3.06,3.67-4.11,3.48-7.86,7.19-8.84,13C11.33,74.24,10.87,61,21.82,54.67Z"/><path class="cls-2" d="M64.59,137.7c-4.06,0-7.37-1.15-8.75-4.34-1.46-3.37.73-6.5,2.94-9,1.9-2.17,4.57-1.81,4.51,1.15C63.21,129.55,64.1,133.45,64.59,137.7Z"/><path class="cls-2" d="M68.65,130.15c-.62-5-1.21-9.09-5.17-12,2.92-1.77,5.22-2.36,7.35.37C74.14,122.82,72.22,126.21,68.65,130.15Z"/><path class="cls-2" d="M16.84,52.2A29.3,29.3,0,0,0,8.71,63.3C6.79,56.32,9.88,52.2,16.84,52.2Z"/><path class="cls-5" d="M45.29,136.71c-1.31-3.09-.59-5,0-6.89Z"/></g></g></svg>