<svg xmlns="http://www.w3.org/2000/svg" viewBox="0 0 218.3 197.53"><defs><style>.cls-1{fill:#9fc772;}</style></defs><title>Asset 16</title><g id="Layer_2" data-name="Layer 2"><g id="Layer_1-2" data-name="Layer 1"><path class="cls-1" d="M218.3,137.83c-2.2,1.95-1.73,4.89-2.68,7.3C211,156.86,202.77,165.64,192.83,173c-19.45,14.36-41.68,21.19-65.42,23.72-15,1.59-29.91.46-44.89.2-19.41-.33-32.18-11.27-43.32-24.78C22,151.2,8.66,128,3,101.13,0,86.7-1.09,72.13,1.3,57.46A44.48,44.48,0,0,1,2.46,52.1C6.39,38.65,14.57,34.32,28,38.67S50.53,52.46,58.5,63.41c4.57,6.28,8.19,13.13,12.11,20.06C72,62,81.43,44.49,95.56,29.2c-.32,4.73-4.09,7.59-6.22,11.33A131.45,131.45,0,0,0,75,77.38C73,86,74.3,93.81,76.8,102.16c3.21,10.74,5.48,21.9,4.32,33.36-.32,3.09-.82,6.07-2.87,8.67.31-7.12.35-14.12-.92-21.1-5-27.19-15.25-51.67-35.88-70.84C35.77,47,29.09,43.17,21.06,42.59c-7.48-.54-10.93,1.7-12.75,9C5.75,61.77,6.72,72,8.79,82.24c4.15,20.5,15.1,37.55,27.32,53.92,12.56,16.81,25.7,33.2,35.68,51.78,1.09,2,2.19,2.72,4.71,2.14,25-5.69,50-11.43,74.45-19.19,19.38-6.15,36.69-15.7,49.86-31.76,4.33-5.29,7.86-10.75,7.77-17.9,0-1.5,0-3.18,2-3.49,1.68-.25,2.74.85,3.69,2.1,2.26,3,2.1,6.9,4,10Z"/><path class="cls-1" d="M175.82,111.5c-6.6.76-13.21,1.54-19.81,2.29-2.54.29-4,1.84-5.51,3.81-11,14.53-22.74,28.35-38.55,38-9.31,5.66-19.21,10-30.07,11.68-2.21.35-4.47.42-6.31.58,10.28-10.66,20.1-21.73,30.86-31.81C125.87,117.81,144,98.7,155.68,74.34c9-18.9,13.36-38.62,9.69-59.63-.88-5.05-3.27-9.58-5-14.42,2.49-.87,3.52.35,4.74,1.94,8,10.36,10.42,22.46,11.08,35.07,1.33,25.28-5.82,48.34-18.78,69.81-.83,1.38-2.18,2.57-1.8,4.87l20.2-1.74C175.79,110.65,175.81,111.07,175.82,111.5Z"/><path class="cls-1" d="M175.82,111.5c0-.43,0-.85,0-1.26l6.41-.62C179.58,111.46,177.89,112.16,175.82,111.5Z"/></g></g></svg>