<svg xmlns="http://www.w3.org/2000/svg" viewBox="0 0 79 195.96"><defs><style>.cls-1{fill:#f9f9f9;}.cls-2{fill:#1a1a17;}.cls-3{fill:#95c560;}.cls-4{fill:#d89120;}.cls-5{fill:#ab7222;}</style></defs><title>Asset 12</title><g id="Layer_2" data-name="Layer 2"><g id="Layer_1-2" data-name="Layer 1"><path class="cls-1" d="M33.6,2.66C32.39,3.53,31.17,4.4,30,5.29c-4.76,3.56-6,8.25-3.35,13.5,1.25,2.49,3.14,4.65,1.28,7.79-.4.68-.18,3.46,1.78,3.24,2.64-1,.25-3.1,2.19-4.42,10.19-6.95,10.66-8.58,6.92-19.49C39,3.54,38.5,1.45,36.37,0A5.91,5.91,0,0,0,33.6,2.66Zm16.3,113c3.74-6.86,3.34-15.11,7-21.93,6.91,1.27,14.16-.62,15.89-4.7,1.57-3.68,4-7.87.19-11.71-3.42-3.42-7.36-4.87-11.67-1.63-2.06-3.81.6-5.77,2.64-7.7,9.67-9.11,7.3-18.43-3.14-26.38-9.37,5.57-12.26,12.21-5.78,23.28a13,13,0,0,1,.68,12.89,33.81,33.81,0,0,1-12.52-6.93c2.19-2,4.07-3.62,5.83-5.36,1.05-1,2.15-2.08,1.52-3.9-1.87-5.35-8.71-8.83-14.16-7.08-2.8.9-5.58,1.87-8.45,2.83a10.24,10.24,0,0,1,.13-6.73c11.27,2.47,13.08,1.55,15.57-9.48.56-2.51,3-1.63,3.64-3.55-.47-.6-.83-1.52-1.48-1.8-4.25-1.85-8.62-3.59-13.37-2.69-1.8.35-2.41-.39-3.8-1.18-2.85-1.63-4.33-5-7.88-5.61s-6.1,1.42-8.8,2.87c-2.11,1.12-3.62,3.11-1.3,5.61l-.3.39.23.43c.69,6.92,3.68,9.46,12.84,10.68A28.08,28.08,0,0,1,22.82,57c-2.7-1.91-4.21-4.67-7.38-5.22C8.73,50.6,6.23,55.26,3.72,60c-.36,3.83.91,6,3.85,6.73,0,2.74,2,4.08,4,5,4.66,2.11,7.39-2,11.27-4.73l1.3,18.83c-4.83-.93-9.09-2.36-13.59-2.35-2.12,0-4,.23-4.61,2.77-1.29,5,3.17,11.51,8.4,11.8,3.78.2,7.58,0,11.41,0,.86,2.32,1.51,4.46.9,6.89a39.78,39.78,0,0,0-11,1.41c-2.78.75-3.94,2.92-4.42,5.49-.31,1.64-.26,3.44,1.18,4.59,2.54,2,12.52-1.39,14-4.72a2.42,2.42,0,0,1,2.15-1c3.42,8.37,6.73,16.75,7,26,.12,3.51-.44,5.65-4.73,5.46-7.82-.33-15.66-.17-23.48-.41-2.85-.09-4.42,1-6,3.4-2.56,3.94-.95,7.84-.45,11.64,1.83,13.78,10.84,24.71,15.33,37.46.75,2.14,2.69,1.57,4.28,1.57,13.49,0,27,0,40.47,0,1.77,0,3.68.31,5.61-1.14a5.1,5.1,0,0,1,.59-4.45c6.38-11.09,9.07-23.4,11.43-35.79,1.5-7.9-2.16-12-10.42-12.08-8.45,0-16.89,0-25.84,0,.58-5.27-4.57-10.25,1.47-14.72,3.09,1.49,5.63,3.92,9.3,4.29,3.44.35,6.76,1.65,10.17,2.38,2.14.46,4.52.92,5.07-2.25,1.15-6.68-1.44-11.17-7.93-13.7-1.86-.72-3.8-1.22-5.7-1.83a.82.82,0,0,0-1.27-.39l-2.42-.11Z"/><path class="cls-2" d="M26.41,111.74c-1.49,3.33-11.47,6.76-14,4.72-1.44-1.15-1.49-2.95-1.18-4.59.48-2.57,1.64-4.74,4.42-5.49a39.78,39.78,0,0,1,11-1.41c.61-2.43,0-4.57-.9-6.89-3.83,0-7.63.17-11.41,0-5.23-.29-9.69-6.76-8.4-11.8.65-2.54,2.49-2.76,4.61-2.77,4.5,0,8.76,1.42,13.59,2.35L22.87,67C19,69.77,16.26,73.84,11.6,71.73c-2-.92-4-2.26-4-5,7.68,2.85,7.68,2.85,14.9-5.09-.64-.7-1.28-1.43-2-2.12-6.23-6.31-7.06-6.37-13,.13-1.43,1.57-2.45,1.08-3.78.35,2.51-4.74,5-9.4,11.72-8.25,3.17.55,4.68,3.31,7.38,5.22a28.08,28.08,0,0,0,.61-10.67c-9.16-1.22-12.15-3.76-12.84-10.68,2.8.19,3.36,2.93,4.91,4.48,2.63,2.63,5.67,2.4,8.2.89s1.51-4.53.53-6.76c-.88-2-1.87-4.76-4.75-4.37-3.47.46-7,1.26-8.82,4.94-2.32-2.5-.81-4.49,1.3-5.61,2.7-1.45,5.29-3.45,8.8-2.87s5,4,7.88,5.61c1.39.79,2,1.53,3.8,1.18,4.75-.9,9.12.84,13.37,2.69.65.28,1,1.2,1.48,1.8-.63,1.92-3.08,1-3.64,3.55-2.49,11-4.3,12-15.57,9.48A10.24,10.24,0,0,0,28,57.36c2.87-1,5.65-1.93,8.45-2.83,5.45-1.75,12.29,1.73,14.16,7.08.63,1.82-.47,2.87-1.52,3.9-1.76,1.74-3.64,3.36-5.83,5.36A33.81,33.81,0,0,0,55.73,77.8a13,13,0,0,0-.68-12.89c-6.48-11.07-3.59-17.71,5.78-23.28C71.27,49.58,73.64,58.9,64,68c-2,1.93-4.7,3.89-2.64,7.7,4.31-3.24,8.25-1.79,11.67,1.63,3.85,3.84,1.38,8-.19,11.71-1.73,4.08-9,6-15.89,4.7-3.68,6.82-3.28,15.07-7,21.93-.83,1.42-1.55,2.92-2.5,4.25-2.85,4,.47,6.89,2.88,7.24,4.43.65,8.49,3.27,13.07,2.76,1.37-4.31-.14-6.43-4.13-8.08-3-1.23-7.64-.83-8.12-5.79l2.42.11a.87.87,0,0,0,1.27.39c1.9.61,3.84,1.11,5.7,1.83,6.49,2.53,9.08,7,7.93,13.7-.55,3.17-2.93,2.71-5.07,2.25-3.41-.73-6.73-2-10.17-2.38-3.67-.37-6.21-2.8-9.3-4.29-6,4.47-.89,9.45-1.47,14.72,9,0,17.39,0,25.84,0,8.26,0,11.92,4.18,10.42,12.08-2.36,12.39-5,24.7-11.43,35.79a5.1,5.1,0,0,0-.59,4.45c-1.93,1.45-3.84,1.13-5.61,1.14-13.49.07-27,.06-40.47,0-1.59,0-3.53.57-4.28-1.57C11.8,181.57,2.79,170.64,1,156.86c-.5-3.8-2.11-7.7.45-11.64,1.56-2.41,3.13-3.49,6-3.4,7.82.24,15.66.08,23.48.41,4.29.19,4.85-1.95,4.73-5.46-.31-9.24-3.62-17.62-7-26-2.17-4.12-5.61-1.82-8.48-1.45-1.93.24-4.7.48-4.36,4.09C19.54,113,22.62,109.77,26.41,111.74ZM50.16,86.12c-2,1.74-4-.38-6.44-.24,2.67,3.81-1.29,5.13-2.54,8.06,4.42-2.37,7.07.77,10.18,3,.57-3.59,3.23-6.6.92-10.1,3.1-.26,2.12-3,3.42-4.69L44.26,76.78c-.33,4.07-.4,4.22,2.37,5.46C48.48,83.07,49.28,84.56,50.16,86.12ZM33.77,97.92l6-9.1c-6.71,1.69-10,5-9.6,8.9,1.88,9.7,5.4,18.87,8.9,28.84,3.19-5.81,6.27-10.78,8.2-16.51-3.87-1.51-8.22-2.17-9.54-6.54A10.23,10.23,0,0,0,33.77,97.92Zm22.89,49c-15.78.09-31.58-1-47.36.69-3.85.4-4.11,2.19-3.78,5.33,1.14,11.07,6.29,20.85,9.92,31.19,1.14-9.09-4.86-18.09-.27-27.3,2.64,11.55,5,23.06,7.92,34.63H49.62c2.65.09,5.3.2,7.94.24,1.31,0,2.59.1,3.28-1.52,2.53-5.88,6.64-11,8-17.47,1.28-6.31,3.13-12.51,4.69-18.77,1.1-4.43-.74-7-5.4-7.14C64.29,146.68,60.47,146.89,56.66,146.94ZM39.83,73c-4.45-1.49-8-4.84-13.17-5.41,1.21,7.31.19,14.58,2.48,22.26,3-4,6.83-5.12,10.69-5.73ZM61.58,45.47c-7.92,5.2-8.07,10.84-.84,20C67.48,59.06,67.71,54.66,61.58,45.47Zm-35.36,17c2.8,1.28,4.89,2.2,7,3.19s4.39,2.17,6.39,3.17l6.69-6.07C41.77,55.51,39.85,57.07,26.22,62.5Zm31,26.86c3.26,0,6,.12,8.8,0,3.17-.17,4.37-2.72,5.42-5.14,1-2.21-.23-3.84-2-5-1.39-.92-3-2.07-4.5-.59C61.73,81.68,57.39,84,57.2,89.36ZM42.81,38.92c-7.64-2.56-12.74-2-13.9,1.82-.73,2.35-1.57,5.45,1.9,6.76C36.25,49.57,39.2,47.43,42.81,38.92ZM11.07,87.69c1.33,6.77,2.17,7.12,13.46,5.65A4.56,4.56,0,0,0,24.18,89C19.88,88.36,15.61,86.93,11.07,87.69Zm38.82,14.9a7.69,7.69,0,0,0-5-5.23c-1.41-.46-4,.43-3.68,2.24a7.67,7.67,0,0,0,5.13,5.93C48.43,106.24,49.35,104.79,49.89,102.59Zm-30,88.67a2.71,2.71,0,0,0,.71.5c.49.15.84-.07.72-.6,0-.17-.48-.36-.72-.34S20.15,191.1,19.91,191.26Z"/><path class="cls-3" d="M3.72,60c1.33.73,2.35,1.22,3.78-.35,5.95-6.5,6.78-6.44,13-.13.68.69,1.32,1.42,2,2.12-7.22,7.94-7.22,7.94-14.9,5.09C4.63,66.05,3.36,63.83,3.72,60Z"/><path class="cls-2" d="M38.8,5.91c3.74,10.91,3.27,12.54-6.92,19.49-1.94,1.32.45,3.44-2.19,4.42-2,.22-2.18-2.56-1.78-3.24,1.86-3.14,0-5.3-1.28-7.79C24,13.54,25.22,8.85,30,5.29c1.19-.89,2.41-1.76,3.62-2.63,2.28,2,.17,3.24-.94,4.47-5.41,6-5.44,7.54.21,13.71,3.76-3,6.33-6.29,4.6-11.48C37,7.92,36.5,6.35,38.8,5.91Z"/><path class="cls-3" d="M51.1,116.06c.48,5,5.15,4.56,8.12,5.79,4,1.65,5.5,3.77,4.13,8.08-4.58.51-8.64-2.11-13.07-2.76-2.41-.35-5.73-3.26-2.88-7.24,1-1.33,1.67-2.83,2.5-4.25Z"/><path class="cls-3" d="M10.66,34.8c1.79-3.68,5.35-4.48,8.82-4.94,2.88-.39,3.87,2.33,4.75,4.37,1,2.23,2,5.23-.53,6.76s-5.57,1.74-8.2-.89c-1.55-1.55-2.11-4.29-4.91-4.48l-.23-.43Z"/><path class="cls-3" d="M38.8,5.91c-2.3.44-1.81,2-1.33,3.45,1.73,5.19-.84,8.52-4.6,11.48-5.65-6.17-5.62-7.68-.21-13.71,1.11-1.23,3.22-2.45.94-4.47A5.91,5.91,0,0,1,36.37,0C38.5,1.45,39,3.54,38.8,5.91Z"/><path class="cls-3" d="M26.41,111.74c-3.79-2-6.87,1.22-10.69,1.68-.34-3.61,2.43-3.85,4.36-4.09,2.87-.37,6.31-2.67,8.48,1.45A2.42,2.42,0,0,0,26.41,111.74Z"/><path class="cls-3" d="M54.79,116.56a.87.87,0,0,1-1.27-.39A.82.82,0,0,1,54.79,116.56Z"/><path class="cls-4" d="M49.62,191.48H23.09c-2.88-11.57-5.28-23.08-7.92-34.63-4.59,9.21,1.41,18.21.27,27.3C11.81,173.81,6.66,164,5.52,153c-.33-3.14-.07-4.93,3.78-5.33,15.78-1.65,31.58-.6,47.36-.69C56.76,162.17,53.47,176.87,49.62,191.48Z"/><path class="cls-5" d="M49.62,191.48c3.85-14.61,7.14-29.31,7-44.54,3.81-.05,7.63-.26,11.43-.12,4.66.16,6.5,2.71,5.4,7.14-1.56,6.26-3.41,12.46-4.69,18.77-1.32,6.49-5.43,11.59-8,17.47-.69,1.62-2,1.55-3.28,1.52C54.92,191.68,52.27,191.57,49.62,191.48Z"/><path class="cls-3" d="M61.58,45.47c6.13,9.19,5.9,13.59-.84,20C53.51,56.31,53.66,50.67,61.58,45.47Z"/><path class="cls-3" d="M26.22,62.5c13.63-5.43,15.55-7,20,.29l-6.69,6.07c-2-1-4.19-2.12-6.39-3.17S29,63.78,26.22,62.5Z"/><path class="cls-3" d="M57.2,89.36c.19-5.36,4.53-7.68,7.67-10.78,1.51-1.48,3.11-.33,4.5.59,1.82,1.19,3,2.82,2,5-1,2.42-2.25,5-5.42,5.14C63.23,89.48,60.46,89.36,57.2,89.36Z"/><path class="cls-3" d="M42.81,38.92c-3.61,8.51-6.56,10.65-12,8.58-3.47-1.31-2.63-4.41-1.9-6.76C30.07,37,35.17,36.36,42.81,38.92Z"/><path class="cls-3" d="M11.07,87.69c4.54-.76,8.81.67,13.11,1.33a4.56,4.56,0,0,1,.35,4.32C13.24,94.81,12.4,94.46,11.07,87.69Z"/><path class="cls-3" d="M52.28,86.81c-.92.43-1.78.69-2.12-.69-.88-1.56-1.68-3.05-3.53-3.88-2.77-1.24-2.7-1.39-2.37-5.46L55.7,82.12C54.4,83.78,55.38,86.55,52.28,86.81Z"/><path class="cls-3" d="M49.89,102.59c-.54,2.2-1.46,3.65-3.52,2.94a7.67,7.67,0,0,1-5.13-5.93c-.31-1.81,2.27-2.7,3.68-2.24A7.69,7.69,0,0,1,49.89,102.59Z"/><path class="cls-3" d="M33.77,97.92l-3.57-.2c-.4-4,2.89-7.21,9.6-8.9Z"/><path class="cls-5" d="M19.91,191.26c.24-.16.46-.42.71-.44s.68.17.72.34c.12.53-.23.75-.72.6A2.71,2.71,0,0,1,19.91,191.26Z"/></g></g></svg>