<svg xmlns="http://www.w3.org/2000/svg" viewBox="0 0 148.14 199.91"><defs><style>.cls-1{fill:#0e0e0c;}.cls-2{fill:#9acc62;}.cls-3{fill:#d89120;}.cls-4{fill:#aa7222;}</style></defs><title>Asset 7</title><g id="Layer_2" data-name="Layer 2"><g id="Layer_1-2" data-name="Layer 1"><path class="cls-1" d="M0,62.77c3.73-4.5,7.9-7.84,14.36-6.24.88.21,2.22-.67,3.1-1.35,5.29-4.13,11.18-4.4,17.79-3.07-6.6-5.87-14-11.45-10.54-21.77,3.32-9.8,11.2-12.43,21-12-4.31-2.94-8.78-2.9-13-1.9a18.28,18.28,0,0,1-11.23-.65c-4.82-1.88-5.54-5.61-1.82-9.25C23,3.32,27.29,2.54,31.57,2c6.37-.82,12.86.19,19.26-1.58,2.29-.64,6.08-1,7.67,3.2-4.3.84-5.35,2.73-1.83,5.49-.11,1.43-1.1,1.4-1.84,1.43-2.29.1-2.26,1.79-2,3.18.31,1.63,1.77,1.72,3.17,1.39,4-.94,8.1-1.68,12.13-2.55,12.27-2.65,22,1.88,30.18,10.33,4.31,4.44,10.56,7.52,11.51,14.65-1.33-.12-2.68-.22-3.49-1.53-4.07-6.54-11-9.65-17.07-13.54-11.14-7.11-22.94-6.09-35.2-1.73,1.91,2,5.21.84,5.65,3.87-1.13,1.81-3,1.37-4.55,1.68-4.67.91-9.28-.11-13.92-.36C34.12,25.53,32.36,27,31,33.77c-.82,4,2.69,10.37,6.33,12.14a76.91,76.91,0,0,0,22.42,6.42c3.68.56,6.06.17,5.82-4.35,0-.66,1-1.81,2.61-.9-1,2.72,2.6,4.3,1.91,7.22.27.14.55.41.83.42a4.29,4.29,0,0,0,2-.14c6.4-3.25,15.2-.54,19.95-8.08A4.33,4.33,0,0,1,96.39,45c5.73.92,9.55-2.66,13.77-5.37,7.12-1.49,14-1.5,21.07,1.12,8.24,3.06,13.08,9.32,16.22,16.76,2.53,6-2.07,13.68-11.06,14.16-11.36.6-22.84.42-34.09-2.06a5.46,5.46,0,0,0-4.47,1c-9,6.12-17.29,13-22.45,22.91a11.53,11.53,0,0,0,2.56,14.53c2.29,2.09,2.6,4.12,2.07,7.06a152.67,152.67,0,0,0-2.16,27c5.07-3.23,5.26-9.16,9.77-12.22,1.82,3.05,1.53,6.1.42,9.11,1.85,1.86,3-1.06,4.58-.43,1.82,1,1,3,1.77,4.4.83-.16,1-1.49,2.22-1,1.29,1-.21,2.88,1.28,4.06,2.9-.32,1.24-3.76,3.74-5.22-.48,6.82,6.93,5.18,9.38,9.38,1,1.78,2.12,3.08,1.73,5.27-2.38,13.28-5.24,26.43-10.95,38.74-.74,1.6-.42,3.21-1,4.67-1.73,1.1-3.61.85-5.4.86-13.33,0-26.65-.06-40,.11-2.93,0-4.6-.83-5.64-3.55-1.31-3.4-2.87-6.69-4.4-10a75,75,0,0,0-6.7-11.9c-4.67-6.62-5.3-15.05-4.53-23.05.39-4.09,3.66-6.56,8.14-5.6,1.3-1.29.3-3.28,1.94-4.2,2.1.46,1.25,3.27,3.48,4.23,1-2-.27-4.49,1-6.38,2.35,1,1.73,3.67,3.75,5.41.54-6.25,6.26-8.84,8.47-14.4,2.24,2.2,2.37,4.81,3.66,7.26,6.39-8.26,8.46-16.75,4.91-26.89C66.81,103,62.86,95.61,61.4,87.36c-.11-.61-.46-1.51-.91-1.67-6.36-2.31-12.05-7.08-19.56-5.14a48.69,48.69,0,0,1-28-.63c-6-2-9.11-6.22-10.64-12.11-.37-1.42.69-4-2.33-4Zm94,88.11c-17.12,0-34.24-1-51.34.7-2.6.25-3.2,1.21-3.22,3.66-.12,11.82,5,21.9,10.28,32-.08-8.79-5.28-17.36-.76-26.4,1.76,11.81,5.15,23.12,8.86,34.59H86.91c5.12,1.3,8.47,0,10.75-5.35,5-11.67,7.45-24,10.27-36.06C104,149.22,98.78,150.86,94,150.88ZM109.4,50.24c-4.53.23-8.4-.72-12,1.29-2.88,1.61-5.82,3.16-4.18,7.2,1.76,4.36,5.81,6,9.7,4.07,1.14-.55,2.27-1.59,3.21-.71,1.44,1.5-.53,2.4.42,4,11,2.26,22.13,4.32,32.89-2.28,5.28-3.24,5.84-5.86,2.07-10.75-7.17-9.3-22.08-11.87-33.3-5.7ZM8.3,62.62C7.82,68.7,11.08,73.23,17.74,76,27.15,80,35.93,77.4,44.36,73c2.54-1.33,2.67-6,.14-7.77-2.26-1.55-3.83-3.65-5.77-5.43-6-5.48-16.93-5.3-22.08.93C14.16,63.74,11.85,64.24,8.3,62.62Zm62.19,28c6.51-9.71,15.88-15.83,24-22.92-5.38-3.42-7.81-8.22-9.19-15.07C80.47,59,73.92,58.8,67.35,58.71A59.69,59.69,0,0,1,65.9,71.93c3.37-2,4.48-5.46,7.53-6.63,3.09,2.26,1.23,4.15-.44,5.74-5.82,5.53-6.54,11.78-3,18.76C70.07,90,70.17,90.08,70.49,90.6ZM48.59,75.49A58.83,58.83,0,0,0,61.28,81c-.87-7.07.79-13.54,1.48-20L44.27,56.71a16.47,16.47,0,0,0,5.19,6c6.91,4.4,7,4.34,1.61,10.56A28.75,28.75,0,0,1,48.59,75.49ZM47.34,10.87C42,3,37.36,11.6,33,10.34c-.92-1.87,1.17-2.8.12-4.42-4.45.3-8.18,2.38-12.93,5.44C30,15.53,38.15,10.14,47.34,10.87Zm8.35,184.79c.46-.28.46-.55,0-.75-.28-.13-.7-.33-.88-.22a.56.56,0,0,0,0,1.06C55.06,195.87,55.43,195.7,55.69,195.66Z"/><path class="cls-2" d="M110.16,39.67c-4.22,2.71-8,6.29-13.77,5.37a4.33,4.33,0,0,0-3.57,1.46C88.07,54,79.27,51.33,72.87,54.58a4.29,4.29,0,0,1-2,.14c-.28,0-.56-.28-.83-.42.69-2.92-2.95-4.5-1.91-7.22-1.64-.91-2.65.24-2.61.9.24,4.52-2.14,4.91-5.82,4.35a76.91,76.91,0,0,1-22.42-6.42c-3.64-1.77-7.15-8.15-6.33-12.14,1.38-6.76,3.14-8.24,10.27-7.86,4.64.25,9.25,1.27,13.92.36,1.56-.31,3.42.13,4.55-1.68-.44-3-3.74-1.88-5.65-3.87,12.26-4.36,24.06-5.38,35.2,1.73,6.1,3.89,13,7,17.07,13.54.81,1.31,2.16,1.41,3.49,1.53Z"/><path class="cls-3" d="M86.91,195.45H57.79c-3.71-11.47-7.1-22.78-8.86-34.59-4.52,9,.68,17.61.76,26.4-5.27-10.12-10.4-20.2-10.28-32,0-2.45.62-3.41,3.22-3.66,17.1-1.69,34.22-.73,51.34-.7.2,6.27-.9,12.41-1.67,18.59C91.21,178.29,88.41,186.73,86.91,195.45Z"/><path class="cls-2" d="M109.4,50.24l-1.19-2.87c11.22-6.17,26.13-3.6,33.3,5.7,3.77,4.89,3.21,7.51-2.07,10.75-10.76,6.6-21.94,4.54-32.89,2.28-1-1.61,1-2.51-.42-4-.94-.88-2.07.16-3.21.71-3.89,1.89-7.94.29-9.7-4.07-1.64-4,1.3-5.59,4.18-7.2C101,49.52,104.87,50.47,109.4,50.24Z"/><path class="cls-2" d="M8.3,62.62c3.55,1.62,5.86,1.12,8.35-1.9,5.15-6.23,16.08-6.41,22.08-.93,1.94,1.78,3.51,3.88,5.77,5.43,2.53,1.72,2.4,6.44-.14,7.77C35.93,77.4,27.15,80,17.74,76,11.08,73.23,7.82,68.7,8.3,62.62Z"/><path class="cls-4" d="M86.91,195.45c1.5-8.72,4.3-17.16,5.39-26,.77-6.18,1.87-12.32,1.67-18.59,4.81,0,10-1.66,14,3.16-2.82,12.09-5.27,24.39-10.27,36.06C95.38,195.43,92,196.75,86.91,195.45Z"/><path class="cls-2" d="M47.34,10.87c-9.19-.73-17.38,4.66-27.17.49C24.92,8.3,28.65,6.22,33.1,5.92c1,1.62-1,2.55-.12,4.42C37.36,11.6,42,3,47.34,10.87Z"/><path class="cls-4" d="M55.69,195.66c-.26,0-.63.21-.84.09a.56.56,0,0,1,0-1.06c.18-.11.6.09.88.22C56.15,195.11,56.15,195.38,55.69,195.66Z"/></g></g></svg>