<svg xmlns="http://www.w3.org/2000/svg" viewBox="0 0 104.03 191.18"><defs><style>.cls-1{fill:#0e100c;}.cls-2{fill:#9acd62;}.cls-3{fill:#d89120;}.cls-4{fill:#aa7222;}</style></defs><title>Asset 11</title><g id="Layer_2" data-name="Layer 2"><g id="Layer_1-2" data-name="Layer 1"><path class="cls-1" d="M55.24,0c5,2.81,10.69,3.47,16.13,4.73,4.38,1,8.2,2.56,11.4,5.64a66.39,66.39,0,0,1,20.34,42.14c1.56,15,1.5,29.95-2.94,44.53-4.67,15.36-14.38,26-30.12,30.4-3.67,1-7.84,2.28-11.19-1.29,2.94-2.62,6.61-3.73,10.18-5.14,4.61-1.81,9.9-2.67,13.21-6.71C88,107.33,93,99.9,95.19,90.91,99.54,73.25,98.35,55.62,93,38.62c-3.13-10-8.32-19.89-18.11-25.54C60.33,4.66,45.74,6.75,32.46,15.66,16.61,26.29,8.64,42.2,6.37,60.89A68,68,0,0,0,8.51,88.55C9.83,93,14,95.57,16,99.28c2.89,5.25,7,8.67,11.59,12,5.88,4.27,12.61,6.71,19,9.82,1.93.93,5.75,1.71,1.63,4.87-2.28.19-4.59,2.1-6.83-.11-6-3.2-11.12-8.29-18.26-9.36L19.86,114a1.28,1.28,0,0,0-1.69-1.16c-3-4.91-8.76-7.44-11.52-12.48A54.41,54.41,0,0,1,.26,68.64C1.47,55.48,4.57,42.86,11,31.07s16.64-19.64,28.09-26A22.31,22.31,0,0,1,50,2c1.4,0,3.14.27,3.21-2Z"/><path class="cls-2" d="M48.27,126c4.12-3.16.3-3.94-1.63-4.87-6.43-3.11-13.16-5.55-19-9.82C23,108,18.9,104.53,16,99.28,14,95.57,9.83,93,8.51,88.55A68,68,0,0,1,6.37,60.89C8.64,42.2,16.61,26.29,32.46,15.66c13.28-8.91,27.87-11,42.44-2.58,9.79,5.65,15,15.54,18.11,25.54,5.34,17,6.53,34.63,2.18,52.29C93,99.9,88,107.33,82.25,114.3c-3.31,4-8.6,4.9-13.21,6.71-3.57,1.41-7.24,2.52-10.18,5.14l-1.32,0c-.68-9.65-1.24-19.36-.14-28.95C59.32,80.48,61,63.59,73.11,50.22c1.06-1.17,2.72-2.73,1.07-4.28-1.88-1.75-3.27.36-4.61,1.42-2.94,2.35-4,6.38-7.44,8.92-.69-4.88-1.07-9.37-2-13.74s-2-9-5.22-12.85c-3.52,2.64-1.6,5.5-.93,7.93,4.7,17.15,2.56,34.09-1,52C47.15,82.33,39.47,79.77,32.38,76c-2,3.47.14,4.7,1.94,5.8,3,1.83,6.29,3.15,9.1,5.19,3.72,2.69,8.37,5.69,8,10.65-.7,9.5-.55,19-.41,28.45Z"/><path class="cls-1" d="M51,126.13c-.14-9.49-.29-18.95.41-28.45.36-5-4.29-8-8-10.65-2.81-2-6.12-3.36-9.1-5.19-1.8-1.1-3.89-2.33-1.94-5.8C39.47,79.77,47.15,82.33,53,89.66c3.58-18,5.72-34.89,1-52-.67-2.43-2.59-5.29.93-7.93,3.26,3.83,4.26,8.39,5.22,12.85s1.32,8.86,2,13.74c3.48-2.54,4.5-6.57,7.44-8.92,1.34-1.06,2.73-3.17,4.61-1.42,1.65,1.55,0,3.11-1.07,4.28C61,63.59,59.32,80.48,57.4,97.16c-1.1,9.59-.54,19.3.14,29l1.76,11.47c8.13,0,16.4,0,24.66,0,8.46,0,12.07,4.13,10.34,12.44-2.55,12.34-4.64,24.86-10.78,36.14-.72,1.31.11,2.59-.39,3.86-1.73,1.38-3.81,1-5.73,1-13.15.06-26.3-.1-39.44.15-3.48.07-5-1.33-6.23-4.22-2.41-5.8-4.14-12.15-7.75-17.11-5.16-7.1-7.3-14.7-7.85-23.13-.46-7,1.93-9.6,9-9.54,8.78.07,17.56,0,26.8,0C51.61,133.27,52,129.67,51,126.13ZM67.16,186.7c1.15.09,2.32.1,3.46.28,4.46.73,7-.72,9-5.22C84.92,170,87.2,157.48,90.21,145.2c-4.72-5.15-10.6-2.86-16-3.08-13.32-.07-26.71-1-40,0-15,1.11-14.77-1.84-11.21,14.51a70.74,70.74,0,0,0,9.88,23.08c-1.69-9.16-5.66-18.06-2-27.63a273.06,273.06,0,0,0,9.16,34.61Zm-29.67-.77-.79.36a3.48,3.48,0,0,0,.87.69c.15.05.45-.33.67-.51Z"/><path class="cls-2" d="M23.18,116.53c7.14,1.07,12.21,6.16,18.26,9.36C33.12,127.12,28.79,120.59,23.18,116.53Z"/><path class="cls-2" d="M18.17,112.83A1.28,1.28,0,0,1,19.86,114,1.43,1.43,0,0,1,18.17,112.83Z"/><path class="cls-3" d="M67.16,186.7H40.05a273.06,273.06,0,0,1-9.16-34.61c-3.64,9.57.33,18.47,2,27.63A70.74,70.74,0,0,1,23,156.64c-3.56-16.35-3.81-13.4,11.21-14.51,13.25-1,26.64-.08,40,0C74.34,157.37,70.86,172.05,67.16,186.7Z"/><path class="cls-4" d="M67.16,186.7c3.7-14.65,7.18-29.33,7-44.58,5.41.22,11.29-2.07,16,3.08-3,12.28-5.29,24.79-10.55,36.56-2,4.5-4.58,6-9,5.22C69.48,186.8,68.31,186.79,67.16,186.7Z"/><path class="cls-4" d="M37.5,185.93l.74.54c-.22.18-.52.56-.67.51a3.48,3.48,0,0,1-.87-.69Z"/></g></g></svg>