<svg xmlns="http://www.w3.org/2000/svg" viewBox="0 0 1829.19 421.2"><defs><style>.cls-1{fill:#9fd168;}.cls-2{fill:#fdfefd;}.cls-3{fill:#d89120;stroke:#000;stroke-linecap:round;stroke-linejoin:round;stroke-width:5px;}</style></defs><title>Asset 22</title><g id="Layer_2" data-name="Layer 2"><g id="Layer_1-2" data-name="Layer 1"><path class="cls-1" d="M1241,95.9c.38-2.32,2.59-2.36,4.1-3.09,30.67-14.83,63.2-23.69,96.57-29.74,49.68-9,99.79-11.71,150.19-10,52.14,1.73,103.46,8.68,153.2,25,24.56,8,49,16.87,69.68,32.92,24.53,19.06,39.15,44,41.33,75.59,2.57,37-10.91,68.11-35.21,95-25.93,28.71-59,45.49-95.62,56.25-32.35,9.5-65.27,16.16-98.89,18.65a518.62,518.62,0,0,1-85.8-.27c-69-6.32-133.11-28.55-195.32-57.62-18.09-8.46-36.34-16.6-54.65-24.6-3.67-1.6-4.52-3.27-2.85-6.72,1.14-2.36,1.33-5.15,3.52-7.72,5.54,2.29,11.16,4.67,16.83,6.93,2.58,1,4.92,2.93,8,2.41l-.1-.06,1.48,1.09c9.38,7,19.65,11.84,31.39,13.21.46,2.22,2.52,2.48,4.09,3.22,17.21,8,34.78,15.2,52.59,21.8,64.26,23.78,130.22,36.54,199.1,32,24.3-1.6,48.39-4.12,72.19-9.27,33.48-7.26,66.31-16.28,95.7-34.81,25.17-15.88,44.85-36.42,55.74-64.64,16.73-43.36,2.78-87.17-35.62-110-17.67-10.53-36.81-18-56.38-24.16-47-14.83-95.33-21.75-144.46-23.2-31.63-.94-63.26-.73-94.81,2.68-28.49,3.08-56.84,6.94-84.56,14.35-9.75,2.61-19.78,4.45-29,8.89-5.51-2.56-11-5-17.08-6.14C1257.67,92.21,1249.35,93.69,1241,95.9Z"/><path class="cls-1" d="M673.76,321.59a49.05,49.05,0,0,1-13,5.7C622.51,339,584.22,350.45,545.2,359c-47.43,10.43-94.92,20.76-143.21,26.6-32.6,3.94-65.32,6.1-98.15,5-31.11-1.07-62.22-2.62-92.5-10.81-36.58-9.9-68.08-28-90.68-59.08C106.33,301,98.5,278.33,95,254.23c-6.2-43,8.7-79.5,35.3-112.27a200.35,200.35,0,0,1,38.09-35.84c1.71-1.24,3.28-2.82,5.89-3.25,1.51,7.12,3.1,14.17,4.47,21.26.44,2.24-1.81,2.93-3.19,4a181.62,181.62,0,0,0-44.68,52c-17.43,30.66-17.39,62.14-5.1,94.31,13.64,35.71,40.21,58,75,71.46,20.49,7.9,42,11.29,63.81,13.17,24.28,2.07,48.57,2.11,72.88,1.95,30.54-.2,60.7-4.25,90.84-8.66,40.68-6,80.56-16.16,121.12-22.76,24.62-4,49.25-7.92,74.27-9.06,13.5-.61,27-.67,40.45-.7A24.11,24.11,0,0,1,673.76,321.59Z"/><path class="cls-1" d="M59,161c-19.3,0-34.31-3.92-46.54-15.35C1.83,135.76-1,123,.3,109.14c.78-8.31,2.32-16.49,6.9-23.72a25.05,25.05,0,0,1,3.28-4.35c2-2,4.68-1.67,4.94,1,1.57,16.6,14.29,16.69,26,17.57,11.1.83,22.27.19,33.4,1.08,12.1,1,23.15,4.59,32.82,11.91,10.52,8,10.11,22.37-.59,30.14-5.62,4.07-10.15,9.61-16.89,12.2a60.3,60.3,0,0,1-11.41,3.56C71.25,159.85,63.71,161.2,59,161Z"/><path class="cls-1" d="M1829.19,129.75c-1.71,19.9-10.24,37.58-28.88,49.56a28.1,28.1,0,0,1-6.36,2.81c-7,2.32-9.45.9-12-5.7-2.25-5.71-4.83-11.32-7.6-16.8-10.89-21.56-7.36-42.46,2.56-63.16,2.87-6,7.27-10.71,12.27-14.89,7.67-6.41,17.49-6.24,23.77,2.35C1822.57,97.15,1828.61,111.52,1829.19,129.75Z"/><path class="cls-1" d="M110.94,363.65c.3,21.72-7.73,39.23-26.41,51.05-9.87,6.25-21,7.55-32.25,5.76-7.42-1.18-13.44-4.95-15.34-13.08-1.85-7.9,2-13.5,7.64-18.18,6.43-5.33,13.76-9.33,20.93-13.55,3.44-2,6.8-4.22,10-6.54,7-5,13.1-10.78,15.31-19.62A41.39,41.39,0,0,1,93.4,343c2.72-6.15,8-6.92,12.35-1.64a23.66,23.66,0,0,1,5.17,14.32C111.05,358.32,110.94,361,110.94,363.65Z"/><path class="cls-1" d="M1267.87,327.11c5.62-.72,10.54,1.32,12.64,5.09,8.83,15.83,22.61,27.35,34,40.92,6.28,7.46,10.46,15.87,7.19,26.17-2.82,8.89-8.78,14.61-17.88,16.18-9.44,1.62-16.85-2.48-22.42-10a38.34,38.34,0,0,1-7.33-21.37c-.5-10.17.77-20.26,1.06-30.39.25-8.7-1.34-16.84-6.65-24A9.11,9.11,0,0,1,1267.87,327.11Z"/><path class="cls-1" d="M472.31,45.4c.56,12-4.38,21.28-13.53,28.57-4.07,3.24-8.29,2.5-12.58.21-15.08-8.07-23.87-25.78-21.56-42.82,1.34-9.84,5.08-18.92,8.07-28.25C433.72,0,436-.6,438.57.55c16.57,7.32,29.17,18.27,33,36.92A63.31,63.31,0,0,1,472.31,45.4Z"/><path class="cls-1" d="M1699.37,388.74c-13.42-.82-26-7-36.18-17.75-5.19-5.51-10.83-10.89-12.43-18.89-1.1-5.49,1.4-8.66,6.43-7,8.09,2.74,16.38,2.09,24.61,2.86,13.5,1.27,27.21,2.27,39.47,9a14.66,14.66,0,0,1,1.6,24.9,34.79,34.79,0,0,1-5.1,3.09C1712.87,387.47,1706.67,388.8,1699.37,388.74Z"/><path class="cls-1" d="M563.87,362.9c8.48.57,19.43,3,26.85,13.26,3.72,5.16,5.49,10.7,3.34,17.21a9,9,0,0,1-7.07,6.22c-6.53,1.46-13.14,1.23-19.08-2.33a46.42,46.42,0,0,0-25.66-6.56,33.49,33.49,0,0,1-13.13-2.37c-7.46-2.93-8.33-9.63-2-14.53C535.86,367.05,548.63,362.89,563.87,362.9Z"/><path class="cls-1" d="M244.1,343.87c-4.88.23-9.17-.65-12.41-4.88-2.14-2.79-2.24-4.68,1.22-6.1,3.21-1.32,6.6-2.3,9.59-4,5.83-3.3,9.39-8.79,12.69-14.42a34.55,34.55,0,0,1,15.94-14.53c11.18-5,22.86,2.22,21.6,13.28a24.93,24.93,0,0,1-6.26,13.85c-8.51,9.67-19.88,13.47-32,15.74C251.08,343.45,247.57,343.53,244.1,343.87Z"/><path class="cls-1" d="M222.17,103.72a41.22,41.22,0,0,1,2.05-19.89A4.73,4.73,0,0,1,228,80.36c18.63-3.54,37.38-5.85,56.4-5.42.28,0,.56.28,1.14.59.85,6.33-.25,12.66-1.47,19-.37,1.92-1.6,2.23-3.25,2.27a259.3,259.3,0,0,0-56.72,7A8.19,8.19,0,0,1,222.17,103.72Z"/><path class="cls-1" d="M792.13,153.78c.55-5,1.14-9.75,1.56-14.5.23-2.56,2.16-3,4-3.8,16.68-7.4,32.5-16.07,45.16-29.66a154.74,154.74,0,0,0,20-27.31c1.28-2.19,2.33-5.83,5.64-4.15,2.94,1.49,1.25,4.76.48,7.17-6.64,20.72-18.31,37.83-36,50.84-11.9,8.76-24.9,15.34-38.44,21A12.66,12.66,0,0,1,792.13,153.78Z"/><path class="cls-1" d="M516.44,110.27c17.93,5.8,35.47,11.49,53.15,16.73a4.27,4.27,0,0,1,3,2.44A46.32,46.32,0,0,1,576,151.69c-16.49-4.49-32.36-9.38-48.09-14.73-2.11-.72-2.47-2.48-3-4.24C522.65,125.08,521.09,117.18,516.44,110.27Z"/><path class="cls-1" d="M664.53,168.65a341.35,341.35,0,0,1-53.37-8.3,149.6,149.6,0,0,0-.61-22c10.06,2,19.87,4,29.73,5.81,7,1.28,14.07,2.34,21.14,3.28,2.59.35,3.65,1.43,4,4C666.26,157.17,665.42,162.67,664.53,168.65Z"/><path class="cls-1" d="M457.81,90.77c-10.48,4.67-20,8.25-28.37,14.06-1.26.87-2.47.56-3.8.31-9.32-1.75-18.66-3.32-28.17-3.45-2,0-3.75-.33-4.19-2.61C392,92.39,389,86.21,387,79A236.64,236.64,0,0,1,457.81,90.77Z"/><path class="cls-1" d="M1076.53,239.83a46.63,46.63,0,0,1-6.71-14.84c14.73,1.41,29.16,4.55,43.5,8a406.39,406.39,0,0,1,46.12,14.26l-4.77,11.38c-2.72.49-4.64-.72-6.62-1.42a402.21,402.21,0,0,0-66.86-17.66C1079.61,239.31,1078,238.25,1076.53,239.83Z"/><path class="cls-1" d="M1658.2,67.75c-5.79.45-10.77-.65-14.84-4.26-4.64-4.13-4.31-8.81,1.38-10.29,13.42-3.48,23.79-12.27,35.41-18.87,3.84-2.19,7.89-4.36,11.88-.7,4.14,3.81,3,8.54,1,12.81-5.26,11-14.74,16.76-25.88,20.28A18.91,18.91,0,0,1,1658.2,67.75Z"/><path class="cls-1" d="M700.14,150.87c19.46.23,38.06,1.27,56.57-3.28.94,5.87-.52,10.88-1,15.94-.2,2.19-2.14,2.18-3.77,2.52-16.87,3.48-33.93,4.21-51.65,3.83C699.36,163.72,702.12,157.67,700.14,150.87Z"/><path class="cls-1" d="M1103.21,216.7c3.66-3.89,7.54-4.55,11-5.92,6.47-2.55,13-4.59,18.89-8.77,7.44-5.33,16.9-3.67,21.46,2.75,4.88,6.89,1.3,16.34-8.5,18-13.58,2.35-27.45,2.05-40.3-4.57C1105,217.84,1104.35,217.38,1103.21,216.7Z"/><path class="cls-1" d="M1042.93,220.92c1.31,4.38,3.36,8.54,4,13.14-21.22-1.54-42.37-4.09-63.69-4.15-1.66,0-2.81-.35-3.24-2.27-.69-3-1.66-6-2.61-9.36,14.22-.77,28,.48,41.71,1.06C1027,219.67,1035,220.38,1042.93,220.92Z"/><path class="cls-1" d="M1396.61,40c-11.53-2.22-23.82-3.52-34.76-9.69-2.27-1.28-5-2.58-4.7-5.81s3.43-3.48,5.61-4.18c13.71-4.44,25.78-1,36.47,8.18a9.19,9.19,0,0,1,2.28,2.63c1.08,2.12,3.08,4,1.79,6.83C1401.92,41,1399.24,39.35,1396.61,40Z"/><path class="cls-1" d="M831,162.55A31.75,31.75,0,0,1,825.76,182c-2.41,3.55-5.71,7.28-10.7,5.47-4.53-1.65-6.1-5.77-6-10.53.22-9.09,4.4-16.58,9.39-23.76a1.7,1.7,0,0,1,.32-.38c2.45-2,3.31-7.15,7.27-5.55,3.35,1.35,4.32,5.69,4.87,9.35A39.74,39.74,0,0,1,831,162.55Z"/><path class="cls-1" d="M358.2,98.59c-10.32,1-19.81-1-29.92-.83A86,86,0,0,0,325.16,76a125.27,125.27,0,0,1,23.42.9,3.07,3.07,0,0,1,2.49,2.2C353.42,85.45,355.72,91.81,358.2,98.59Z"/><path class="cls-1" d="M892.42,234c-.74-8.66.64-10.06,8-11.22,12.33-2,24.78-2.34,37.15-3.62,3-.31,4.81.37,5.52,3.43.53,2.23,1.86,4.26,1.59,7.19C927.37,231.15,910,231.2,892.42,234Z"/><path class="cls-1" d="M1241.05,95.88c-2.34,2-4.79,3.91-7,6-1.74,1.66-3,3.77-1.39,6.17s3.91,1.48,5.85.6c7.63-3.48,15.47-4.7,23.69-2.68-22.73,6.58-44.84,15.25-68.58,19.6,2.93-2.64,5.65-5.59,8.85-7.88A279.26,279.26,0,0,1,1236.4,96.9C1237.82,96.16,1239.26,95.1,1241.05,95.88Z"/><path class="cls-1" d="M806.8,264c-2.45.06-4.65-.88-6.88-1.68,3.23-4.65,8.18-7.2,12.69-10.25,12.06-8.16,33-17.58,43.33-19.64.49,8.71.49,8.7-7.7,11.38C833.5,248.6,819.38,254.7,806.8,264Z"/><path class="cls-1" d="M1000.38,238.9c5.39.92,10.91,2.69,14.65,7.64,2.34,3.08,3.44,6.5,0,9.78s-6.41.59-8.72-1.39a93.84,93.84,0,0,1-9.53-10.18c-1-1.18-2.33-2.66-1.37-4.46S998.27,239,1000.38,238.9Z"/><path class="cls-2" d="M1216,268.78l1.48,1.09Z"/><path class="cls-3" d="M203.29,136.36c-5.74-3.57-9.34-8.89-11.69-15-7.68-19.9-10-40.16-4.63-61.2,4.82-18.92,16.76-29.17,36.24-29.36,15-.14,30-1,45,.51,22.7,2.35,39.81,13.9,48.29,35.06,7.9,19.73,2.1,38.07-11.61,53.64-9.5,10.78-21,19.42-32.81,27.61-23.26,16.18-43.21,35.39-57.29,60.3-8,14.19-10.62,29.6-11.32,45.56-.3,6.78.43,13.61-1.93,20.28-2.12,6-5.88,9.57-12.15,10.56-3.31.52-9.33-3.68-11-8-5.3-13.3-5.1-26.94-2.81-40.81,3.88-23.47,16.78-42.08,31.6-59.73a218.79,218.79,0,0,1,45.68-40.8,193.61,193.61,0,0,0,30.84-25.34c10.75-11,14.8-28.28,8.54-40C284.82,56,274,47,257.24,47.35c-8.65.2-17.32,0-26,.35-10,.38-15.38,4.91-18.24,14.66a77.91,77.91,0,0,0-1.76,38C214,113.44,211.87,125.06,203.29,136.36Z"/><path class="cls-3" d="M598.36,120.19c3.87,25.35,3.83,50.3,1.27,75.24-2.44,23.87-4.79,47.73-5,71.75-.08,11.1-7.41,16.2-18.06,12.52-3.74-1.29-4-4.6-4.07-7.82-.13-13.67.8-27.29,1.88-40.92,2.3-29.05,7.66-57.84,7.44-87.1-.07-10-.41-20-3.42-29.67a49.38,49.38,0,0,0-5.83-12.11c-2.52-3.93-5.32-7.54-10.89-5.35-.18-3.6,1.38-5.76,5.23-7.18,5.38-2,10.14-.33,14.59,2.73,5.35,3.67,8.76,9,12.54,14.81,2.38-1.54,4.66-3.08,7-4.53,14.62-9.07,30.5-13.51,47.66-11.54,23.89,2.73,40.07,19.57,43.39,44,3.16,23.16-.15,45.84-4.62,68.46-2,10-3.91,19.91-4.8,30.06-1.69,19.17,9.08,34.18,27.87,38.58a44.93,44.93,0,0,1,6.69,1.92,6.87,6.87,0,0,1,3.21,9.5c-2.63,4.52-9.34,7.65-14.71,6.59-20.35-4.06-40.72-23.2-41-47.37A136.6,136.6,0,0,1,667.61,215c4.2-21.25,8.78-42.44,8.59-64.28-.08-8.54-.71-17-3.57-25.12-5.71-16.23-17.26-23-34.18-20.29a86.84,86.84,0,0,0-27.37,9C607,116.41,602.69,118.18,598.36,120.19Z"/><path class="cls-3" d="M1042.93,220.92c-4.58-20.35-7.47-40.75-5.1-61.76,2.6-23.07,9.26-44.54,22.3-63.9,16-23.72,49.77-37.88,75.89-31.59a70.25,70.25,0,0,1,23.11,10.43,28.32,28.32,0,0,1,10.47,13.64c1.64,4.2.2,6.32-3.66,7.53-6.37,2-12.47,1.14-18.37-1.83-5.2-2.61-10.35-5.35-16.13-6.55-18.19-3.76-41,5.91-51.3,21.9-10.11,15.67-15.47,32.94-17.67,51.42-2.65,22.24.45,43.69,7.35,64.78a46.63,46.63,0,0,0,6.71,14.84c13.23,22.11,43.36,35.25,68.57,29.72A37.75,37.75,0,0,0,1166.15,257c2-2.34,3.91-6.39,7.87-4.35s2.47,6.13,1.89,9.48c-1.67,9.64-7.61,16.3-16,20.43-18.14,8.92-37.22,10.41-56.25,3.82-25.43-8.8-45.37-24.23-55.44-50.26a11.77,11.77,0,0,0-1.31-2.09C1046.29,229.46,1044.24,225.3,1042.93,220.92Z"/><path class="cls-3" d="M506,262.9c-1,1.5-1.84,3.24-3.14,4.46-22.3,20.9-61.21,25-83.81-3.18-11.14-13.88-12.39-31.64-3.65-47.25,8.42-15,21.93-24.86,35.46-34.6,9.73-7,20.23-12.88,29.42-20.67a58.19,58.19,0,0,0,13.11-15.59c8.9-15.61-1.42-36.66-19.3-39-9.55-1.25-19.15-1.3-28.42,2-1.19.42-2.3.77-3.22-.24a3.25,3.25,0,0,1-.06-4.18,17.37,17.37,0,0,1,8.9-7c21.45-7.3,46.92-4,60.78,18.5,8.94,14.54,5.61,28.68-3.82,42-8.08,11.38-19.15,19.34-30.65,26.78a234.62,234.62,0,0,0-31.05,23.44c-7.16,6.54-12.69,14.26-14.21,24-2.26,14.47,7.93,28.26,24.12,33.37,10.77,3.4,20.79,1.88,28.46-6.53,12.84-14.07,22.18-30,22-49.94a30.81,30.81,0,0,0-.93-7.4,14,14,0,0,1,9.75-16.54c8.13-2.32,9.83-1.37,13.37,6.82,3,7.06,3.59,14.54,3.8,22,.37,13.65.06,27.31,1.35,40.94.25,2.63-.12,5.32-.08,8,.13,9.14-4.87,14.24-13.07,17-2.79.94-4.49-.62-6.12-2.25-3.84-3.85-6-8.69-7.3-14Z"/><path class="cls-3" d="M875.23,226.06c3,11.08,11.91,17.54,19.2,25.16,11,11.45,31.43,14.71,45.37,7.73,6.39-3.2,10.51-8.14,11.54-15.29,1.86-12.85-1.35-31.92-18.49-40.84-14.17-7.37-28.91-13.68-42.6-22-6.73-4.1-13-8.71-18.07-14.82a38.59,38.59,0,0,1-3.11-45.26c12.47-20.14,30.47-31,54.26-30.67,14.54.2,27.33,5.43,36.52,17.51,5.19,6.8,5.94,14.28,3.43,22.23-.8,2.53-1.66,5.32-5.11,5.24s-4.66-2.79-5-5.36a22.31,22.31,0,0,0-10.85-16.54c-13-8.13-26.17-7.12-39.39-.48-8.54,4.3-14.53,11.24-18.78,19.46-4,7.82-2.54,15.55,2.86,22.43,3.76,4.79,8.7,8.18,13.85,11.3,13.53,8.22,28.22,14.18,42,22,17.87,10.14,25.36,25.74,26.27,45.23,1,21.65-7.25,34.9-27,43.86-17.19,7.78-34.79,10.2-52.79,2.66-19.55-8.18-28-27.32-20.46-46.16C870,230.61,871.23,227.92,875.23,226.06Z"/><path class="cls-3" d="M1241,95.9c8.31-2.21,16.63-3.69,25.32-2.1,6.09,1.1,11.57,3.58,17.08,6.14.38,1.22,1.47,1.57,2.41,2.24,12.08,8.71,18.76,20.14,17,35.47-.85,7.49-4.48,13.87-8.76,19.92-8.08,11.4-19.24,19.3-30.73,26.74a255.93,255.93,0,0,0-31.15,23.37,49.2,49.2,0,0,0-12.9,18.19c-3.12,7.56-3.67,15.47.63,22.68,10.32,17.32,34.1,25.57,52,9.95,18.37-16,29.06-36.71,22.87-62.67-1.78-7.48.21-10.59,9.39-13.08,4.33-1.18,7.36,2.25,9.49,5.84a30.86,30.86,0,0,1,4,10.74,80.17,80.17,0,0,1,1.27,10.9c.42,15.49.31,31,1.79,46.44a40,40,0,0,1-1.29,12.88c-.92,3.9-1.85,8.76-6.15,9.53s-8-2.63-10.63-6.28a30,30,0,0,1-4.62-9.35c-.41-1.37-.83-2.73-1.29-4.24-17.47,18.49-29.82,24.61-47.87,23.87-11.74-1.37-22-6.22-31.39-13.21l-1.48-1.09.1.06c-10.77-10.52-17.2-22.74-15.19-38.35,1.71-13.28,8.92-23.53,18.24-32.41,10.14-9.67,21.53-17.79,33.34-25.37,9.81-6.29,19.55-12.74,26.82-22.16,14.61-18.93,6.53-40-17.11-44.54-8.22-2-16.06-.8-23.69,2.68-1.94.88-4.26,1.7-5.85-.6s-.35-4.51,1.39-6.17c2.22-2.13,4.67-4,7-6Z"/><path class="cls-3" d="M383.34,108.85c-.18,18.33-2.27,38.33-4.4,58.37-2.43,22.85-7.11,45.37-9.15,68.25a307.71,307.71,0,0,0-1.44,35.4c.1,3.87-.3,7.66-2.2,11.14-2,3.74-4.77,6.42-9.47,5.94a7,7,0,0,0-2,0c-9.47,1.84-13.84-1.1-15-10.78-1.29-11.14-.4-22.28.66-33.4,2.22-23.23,7.72-46,10.85-69,3.57-26.36,8.68-52.56,9.05-79.3C360.5,80.79,358,67,349.54,54.64c-4.33-6.32-7.69-7.92-17.16-3.79-1.72.75-3.34,2.89-5.32.93s-.73-4.18.36-6.34c6-11.95,26.62-10,34.75-2S375.53,61.18,378.88,72C382.42,83.35,382.81,95.2,383.34,108.85Z"/><path class="cls-3" d="M806.8,264c3.6.7,4,3.06,2.88,6a19.66,19.66,0,0,1-8.61,10c-21.71,13.31-46.46,1.79-50.09-23.34-2-13.52-.85-27,1.68-40.27,5.5-28.8,10.72-57.64,13.68-86.83.52-5.13.44-10.31.8-15.46.17-2.61-.55-3.85-3.39-4.31a54.45,54.45,0,0,1-13.4-3.85c-1.55-.68-3.21-1.29-3.26-3.32s1.32-3,2.8-3.83c5.18-2.89,11-3.72,17.05-5.14.65-10.27-.3-20.48-1.37-30.7a53.25,53.25,0,0,1-.36-7.46c.07-2.18.48-4.81,3-5.22s5.3-.37,7.12,2.32a60.23,60.23,0,0,1,5.54,10.58,89.06,89.06,0,0,1,6.31,26.1c.33,3.43,1.15,5.72,5.41,6,7.88.59,13.72,5.46,19.3,10.68-2.17,8.83-9,11.9-23.28,10-.88,7-.8,14.1-1.41,21.12-2.42,27.73-7,55.13-11.56,82.55-1.7,10.21-2.29,20.51-.67,30.83,1.43,9.08,4.06,11.4,13,11.45,4,0,8,.22,12,.35C802.15,263.08,804.35,264,806.8,264Z"/><path class="cls-3" d="M1602.25,271.14c-.69,5.34-4.57,9.24-9,12-19.83,12.18-40.82,18.46-64.24,11.58-16.67-4.9-26.56-16.43-30.86-32.43-8-29.76-1.31-56.25,19.89-78.87,1-1.08,2-2.18,3-3.29.07-.08,0-.32,0-.48-19.76-.91-29.11-8-33.65-25.73-2.08-8.09-1.65-16.24.14-24.27,6.08-27.27,21.94-40,50-40.89,15-.49,29.27,1.8,42,10.1,16,10.39,20,28.52,10.33,45-5.53,9.4-13.42,16.47-22,22.92-10.38,7.81-21,15.29-31.09,23.51-22.22,18.17-28.3,41.95-21.83,69.09,4.53,19,16.3,26.11,35.72,23.1a78.9,78.9,0,0,0,19.49-6c1.67-.73,3.26-1.69,5-2.29C1583.86,271.06,1592.19,264.76,1602.25,271.14Zm-77.94-93.87c12.59-10.16,24.8-19.92,36.89-29.83a41,41,0,0,0,10.9-14.12c3.48-7.22,2-15.14-4.46-19.66-12.56-8.85-26.41-11.57-41.17-6.51-11.82,4-16.23,14-18.71,25.2-3.42,15.38-.58,28.77,12.71,38.68A10.46,10.46,0,0,1,1524.31,177.27Z"/><path class="cls-3" d="M1376.18,114.08a83,83,0,0,1,29.58-20.58,41.27,41.27,0,0,1,23.92-2.79c4.2.8,8,2.39,10.62,6,3,4.22,1.79,7.64-3.16,9a20.13,20.13,0,0,1-11.33,0c-3.87-1.13-7.56-.57-11.24.67a97.67,97.67,0,0,0-31.51,17.91,4.89,4.89,0,0,0-1.89,5.61c4,16.37,4,32.94,2.55,49.64-2.29,26.36-6.17,52.61-5.53,79.19a172.83,172.83,0,0,0,1.76,18.36c.8,6-1.29,10-5.4,10.87-5,1-11.11-2.63-12.15-8a112.19,112.19,0,0,1-2.51-19.28c-.63-30.4,4-60.42,6.38-90.59,1.48-18.31-.23-36.22-8-53.19a24.5,24.5,0,0,0-7.38-9.87,12.34,12.34,0,0,1-3.25-3.72c-2.67-4.76-.12-9.21,5.22-8.43,7.44,1.07,13.87,4.5,18.3,10.88C1372.86,108.25,1374.26,110.89,1376.18,114.08Z"/><path class="cls-1" d="M1690.23,170.78c13.28.64,24.52,5.36,32.53,16.46a17.42,17.42,0,0,1,3.33,12.73c-.64,5.11-3.41,7-8.34,5.28a44.48,44.48,0,0,1-7.73-3.43c-10.4-5.92-21.7-9-33.36-11a51.8,51.8,0,0,1-9.53-2.79c-5.28-2.06-5.82-6-1.17-9.23C1673.18,173.68,1681.14,170.53,1690.23,170.78Z"/><path class="cls-1" d="M1426,323.77a19.67,19.67,0,0,1-10.52-2.5c-2.78-1.49-3.94-3.93-.75-6.23q9.66-7,19.58-13.64a34.26,34.26,0,0,1,7.12-3.47c3.26-1.18,6.88-2.52,9.71.61,3,3.36,1.81,7.12,0,10.67C1447.05,317.23,1435.68,323.81,1426,323.77Z"/></g></g></svg>