<svg xmlns="http://www.w3.org/2000/svg" viewBox="0 0 156.86 193.85"><defs><style>.cls-1{fill:#0e0f0b;}.cls-2{fill:#91c15c;}.cls-3{fill:#f7d42c;}.cls-4{fill:#d89120;}.cls-5{fill:#fcfcfc;}.cls-6{fill:#a87021;}</style></defs><title>Asset 9</title><g id="Layer_2" data-name="Layer 2"><g id="Layer_1-2" data-name="Layer 1"><path class="cls-1" d="M97,120c10.89-9.39,23.45-11.88,37.22-8.79,5.51,1.24,10.84,3.13,16.59,3.38,2.22.09,5.24,0,6.07,3.72-7.11,5.5-15.61,7.5-24.34,8.71-12.76,1.77-25.31,4.13-36.51,11-1.88,1.16-1.94,1.06-4.15,3.94H111c7.63,0,11.65,4.46,10.24,11.75-2.34,12.08-5.08,24-9.83,35.51-1.56,3.76-3.79,4.5-7.07,4.51-5.49,0-11,0-16.49,0-7.72,0-15.44,0-23.15.08-3.09,0-5.64-.78-6.75-3.77-3-8.17-8.1-15.24-12-22.93-2.92-5.76-3.33-12.55-3-19,.2-3.62,2.19-6.77,7.18-6.39,6,.44,12,.11,18,.27,2.28.05,4.1-.33,5-2.54-3.16-5.63-8.34-7.34-14.27-7.58a105.62,105.62,0,0,1-17.36-1.73c-9.09-1.88-15.18-7.8-20.69-14.65a2,2,0,0,1-.14-2.69,2.3,2.3,0,0,1,2.88-1.12,51.06,51.06,0,0,0,13.89,1.19c12.93-.5,24,4.91,34.87,11.25,1.17-2-.29-3.31-.89-4.65-6.31-14-14.42-27-22-40.29-1-1.73-2.35-1.73-3.77-1.65-10.83.57-21-2.34-31.2-5.53C8.08,70,4.54,65.15,2,59.31,1.31,57.87,1.78,55.92,0,55V48a14.18,14.18,0,0,1,11.36-1.3,18.24,18.24,0,0,0,7.94.53c1.27,4.63,4.58,7.29,8.54,9.69,2.59,1.57,3.91.68,5.43-1.09a51.19,51.19,0,0,1,11.64,9c3.71,3.69,7.59,7.54,5.48,13.52C58.7,85.79,63.54,95.59,69,105a1.08,1.08,0,0,0,.74,1.34c.1.2.21.39.32.58a1.12,1.12,0,0,0,.76,1.42c.09.18.18.36.29.54a1.08,1.08,0,0,0,.77,1.39c.08.18.17.36.26.54-.13.65,0,1.16.74,1.36l0,0c2.16,5.17,4.33,10.35,6.8,16.27.91-10.45-.16-19.89-.87-29.29-.43-5.7-.66-11.57-2.65-17.08-1.3-8-2.63-15.94-3.88-23.91-.3-1.92-.56-3.83-3-3.8-7.29.08-13.54-3.63-20.31-5.4C41.66,47,36.71,42.49,33.84,35.57c-5-12-4.52-23.89,1.16-35.57h5c5,3.27,9.91,6.78,15.1,9.75S65.27,16,69.3,20.34a21.92,21.92,0,0,1,5,21.41c-1.86,6.36-.33,11.8.89,17.48,2.37,11.05,4.09,22.2,5.89,33.34.63,3.83,2.44,7.45,2.11,11.47.39,10.57.08,21.17,1.16,31.72a87.11,87.11,0,0,1,3-15.12c3.11-10.14,5.86-20.4,8.76-30.61l0,.06c1-.47,1.1-1.32.89-2.28a2.3,2.3,0,0,0,.18-.5,2,2,0,0,0,.91-2.37c2.29-5.88,4.53-11.77,6.91-17.61a7.51,7.51,0,0,0,.18-4.69C102.37,48.56,108,37.12,120.77,30.4a7.55,7.55,0,0,1,2.37-.36c-.38,1.19-.75,2.39-1.14,3.61,7,.85,11.29-3.36,12.89-12.43,1.57-5.52,6.33-6.15,10.88-7.1,8.15,16.22,6.42,29.08-6.93,40.24-8.23,6.89-18.77,9.47-29.9,11.7-5.3,18.3-12.88,36.63-17.32,56a6.63,6.63,0,0,0-1.16,4.82c1.74-2.1,3.79-3.41,4.64-5.75l0,0C96,121.31,96.49,120.65,97,120Zm-65.52-.53H30.32l.55.62c8.67,8.15,19.57,7.5,30.53,6.72Zm27-95.65c7.92,3,9.22,10.75,12.33,18.53C72.1,32.94,71.12,25,64.26,20,55.92,13.78,46.73,8.75,37.61,3c-3.22,8.53-4.18,16.44-2.44,24.63,2,9.21,6.89,15.56,16.35,18.1a89.89,89.89,0,0,1,11.26,4.4c1.39.59,2.66,1.31,4.16.36-.3-3.16-.1-6.42-1-9.34-2.32-7.66-4.72-15.25-14.71-16.5-4.82-.6-9.69-8.42-9.15-13.37.26-2.41,1.42-1.67,2.55-.54C47.14,17.35,50.5,23,58.43,23.85Zm42.41,122.77c-16.46-.55-32.91-.72-49.36.58-3.54.29-4,2.34-3.55,5.17a90.53,90.53,0,0,0,10.8,31.34c.82-2.33.14-4.21-.45-6.14a57.09,57.09,0,0,1-2.59-16.21c0-1.74-.41-3.73,3-4.7,1.11,11.31,4.18,22,7.3,33.14h28a18.13,18.13,0,0,1,3.47.22c6.08,1.53,8.7-2.18,10.51-7,4.11-10.86,6.62-22.14,9-33.34C111.6,145.68,110.32,145.45,100.84,146.62ZM143.36,18c-4,3.21-6.85,6.6-8.05,11.4A10.41,10.41,0,0,1,129,36.17c-3.88,1.57-6,4.47-7.94,7.78q-2.79,4.71-5.72,9.34c-.8,1.27-1.16,3.29-3.87,2.54.54-8.25,6.91-13.69,10.42-20.88-11.77,4.44-14.38,14-12.41,26.13,7,.4,13.23-2.52,19.24-5.48C144.59,47.78,149.79,34.2,143.36,18ZM4.11,48.66C3.94,65.58,28.17,79,45.9,72.23c-.72-4.15-2.55-6.13-10-11.54-1.94-1.4-3.29-.39-5.07.07-1.44.37-3.29-.32-4.81-.92-4.74-1.84-7.56-5.65-9.4-10.22C12.25,50.51,8.38,49.27,4.11,48.66Zm95.24,74.39c7.84-.67,13.87-5.52,21.11-4.29-3.93,4.19-9.93,4.31-15.43,8.31,6.09-.48,10.19-3,14.85-3.4s9.23-1,13.82-1.74a55,55,0,0,0,13.71-3.41C130.38,113,114.55,109.69,99.35,123.05Zm-.72,7.71-.77-1.23c-4.13.57-6.93,2.91-8,7.61Z"/><path class="cls-2" d="M96.11,90c-2.9,10.21-5.65,20.47-8.76,30.61a87.11,87.11,0,0,0-3,15.12c-1.08-10.55-.77-21.15-1.16-31.72,1.92,4.68.23,9.78,1.84,15.78C89,109.16,90.6,98.84,96.11,90Z"/><path class="cls-3" d="M134.89,21.22C133.29,30.29,129,34.5,122,33.65c.39-1.22.76-2.42,1.14-3.61C126,25.73,130.27,23.22,134.89,21.22Z"/><path class="cls-2" d="M95.1,121.08c-.85,2.34-2.9,3.65-4.64,5.75A6.63,6.63,0,0,1,91.62,122Z"/><path class="cls-2" d="M98.07,84.94a2,2,0,0,1-.91,2.37A2,2,0,0,1,98.07,84.94Z"/><path class="cls-2" d="M97,87.81c.21,1,.14,1.81-.89,2.28A1.82,1.82,0,0,1,97,87.81Z"/><path class="cls-2" d="M97,120c-.49.62-1,1.28-1.92,1.08C95.29,120,96,119.72,97,120Z"/><path class="cls-4" d="M93.94,189.8H66c-3.12-11.13-6.19-21.83-7.3-33.14-3.39,1-3,3-3,4.7a57.09,57.09,0,0,0,2.59,16.21c.59,1.93,1.27,3.81.45,6.14a90.53,90.53,0,0,1-10.8-31.34c-.41-2.83,0-4.88,3.55-5.17,16.45-1.3,32.9-1.13,49.36-.58.68,5.48-.56,10.86-1.4,16.17C98,171.86,95.82,180.8,93.94,189.8Z"/><path class="cls-5" d="M44.65,10.77c-1.13-1.13-2.29-1.87-2.55.54-.54,5,4.33,12.77,9.15,13.37,10,1.25,12.39,8.84,14.71,16.5.88,2.92.68,6.18,1,9.34-1.5.95-2.77.23-4.16-.36a89.89,89.89,0,0,0-11.26-4.4c-9.46-2.54-14.39-8.89-16.35-18.1-1.74-8.19-.78-16.1,2.44-24.63C46.73,8.75,55.92,13.78,64.26,20c6.86,5.09,7.84,13,6.5,22.43-3.11-7.78-4.41-15.52-12.33-18.53C56.19,17,51,13.29,44.65,10.77Z"/><path class="cls-5" d="M143.36,18c6.43,16.16,1.23,29.74-14.65,37.56-6,3-12.22,5.88-19.24,5.48-2-12.15.64-21.69,12.41-26.13-3.51,7.19-9.88,12.63-10.42,20.88,2.71.75,3.07-1.27,3.87-2.54q2.94-4.62,5.72-9.34c2-3.31,4.06-6.21,7.94-7.78a10.41,10.41,0,0,0,6.32-6.73C136.51,24.64,139.38,21.25,143.36,18Z"/><path class="cls-6" d="M93.94,189.8c1.88-9,4.08-17.94,5.5-27,.84-5.31,2.08-10.69,1.4-16.17,9.48-1.17,10.76-.94,16,3.11-2.34,11.2-4.85,22.48-9,33.34-1.81,4.77-4.43,8.48-10.51,7A18.13,18.13,0,0,0,93.94,189.8Z"/><path class="cls-5" d="M4.11,48.66c4.27.61,8.14,1.85,12.5,1C18.45,54.19,21.27,58,26,59.84c1.52.6,3.37,1.29,4.81.92,1.78-.46,3.13-1.47,5.07-.07,7.46,5.41,9.29,7.39,10,11.54C28.17,79,3.94,65.58,4.11,48.66Z"/><path class="cls-2" d="M99.35,123.05c15.2-13.36,31-10,48.06-4.53a55,55,0,0,1-13.71,3.41c-4.59.72-9.2,1.4-13.82,1.74s-8.76,2.92-14.85,3.4c5.5-4,11.5-4.12,15.43-8.31C113.22,117.53,107.19,122.38,99.35,123.05Z"/><path class="cls-2" d="M72.81,112.13c2.07.68,1.92,3.36,4.23,4.65,1.32-11.91-.66-23.32-1-34.76,2,5.52,2.22,11.39,2.65,17.09.71,9.4,1.78,18.84.87,29.29C77.14,122.48,75,117.3,72.81,112.13Z"/><path class="cls-3" d="M19.3,47.23c7.21-3.09,12.64.26,14,8.6-1.52,1.77-2.84,2.66-5.43,1.09C23.88,54.52,20.57,51.86,19.3,47.23Z"/><path class="cls-2" d="M31.46,119.49l29.94,7.35c-11,.78-21.86,1.43-30.53-6.72A5.05,5.05,0,0,0,31.46,119.49Z"/><path class="cls-3" d="M44.65,10.77C51,13.29,56.19,17,58.43,23.85,50.5,23,47.14,17.35,44.65,10.77Z"/><path class="cls-2" d="M98.63,130.76l-8.74,6.38c1-4.7,3.84-7,8-7.61Z"/><path class="cls-2" d="M69,105l.74,1.34A1.08,1.08,0,0,1,69,105Z"/><path class="cls-2" d="M70,106.91c.25.47.5.94.76,1.41A1.11,1.11,0,0,1,70,106.91Z"/><path class="cls-2" d="M71.06,108.87a1.15,1.15,0,0,1,.77,1.39A1.08,1.08,0,0,1,71.06,108.87Z"/><path class="cls-2" d="M72.09,110.8a1.06,1.06,0,0,1,.74,1.36C72.11,112,72,111.45,72.09,110.8Z"/><path class="cls-2" d="M30.87,120.12l-.55-.62h1.14A5.05,5.05,0,0,1,30.87,120.12Z"/></g></g></svg>