<svg xmlns="http://www.w3.org/2000/svg" viewBox="0 0 1433.6 271.04"><title>Asset 15</title><g id="Layer_2" data-name="Layer 2"><g id="Layer_1-2" data-name="Layer 1"><path d="M43.89,174.89c-1.88,2-2.48,4.68-3.73,7-.91,1.59-.89,3.58-2.21,5l.07-.12c-6.1,15.88-6.94,32.56-7.3,49.28-.1,5.08-.72,9.94-3.75,14.18-1.77,2.48-3.74,4.75-7.26,4.32s-7,0-10.2-1.73a6.32,6.32,0,0,1-2.35-3c-10.11-22.35-6.51-44.27,2.14-66,2.28-5.7,5.74-10.8,8.77-16.11.53-3.17,3.2-5.36,3.9-8.46a7,7,0,0,1,.79-1.16c1.21-1,2.57-1.88,3.68-3l-.08.1c3.29-6.33,8.15-11.38,13.28-16.19a38,38,0,0,0,3.67-4l4.88-4.89c3.66-2.66,6.27-6.47,10-9.1l1-1c1.35-1,2.6-2,3.88-3l1.13-1c3.06-3.54,6.37-6.72,11.1-7.92l0,0c1.43-1,2.52-2.6,4.41-3L82.2,103c1.51-.79,2.47-2.41,4.25-2.78l-.09.08a8.9,8.9,0,0,1,4.1-3.08l-.11.08c3.69-4.65,8.57-7.94,13.22-11.5a43.18,43.18,0,0,0,12.86-16.2c.78-1.65,1.25-3.46,3-4.46l0,.08c2.06-6.24.75-12.8,1.83-19.14-.31-1-.61-2-.91-3.06-1.06-2-1.63-4.26-3.09-6l-2-3c-6.57-8.13-14.57-14-25-16a10.5,10.5,0,0,0-6.42,0,81.78,81.78,0,0,0-19.15,0C51.69,16.81,44.77,20.17,41.1,30.72c-1,2.66-.71,5.67-2.33,8.15-1,1.19-.63,2.61-.63,4a138.88,138.88,0,0,0,0,24.3l0-.09c1.49,2.2-.14,4.85,1,7.1l0-.1A28,28,0,0,1,39.82,91c-2,2.63-3.21,5.92-6.09,7.89-4.3,3-7.91,1.7-11.17-1.78a5.39,5.39,0,0,1-1.34-1.77A11.85,11.85,0,0,0,18.7,90.8c-3.63-9.51-7-19.08-7-29.46,0-5.6,0-11.2,0-16.79a91.23,91.23,0,0,1,4.94-21.81C20.39,16.46,24,10.2,30.57,6.18a35.56,35.56,0,0,1,19-5.1c15.26,0,30.54-.62,45.79.42A3.24,3.24,0,0,1,97.18,2a46.72,46.72,0,0,1,22.65,7.44c2,1.32,4.24,2.23,6.18,3.62a48.35,48.35,0,0,1,11.08,11.08l-.06-.07c1.13,1.35,2.55,2.49,3,4.3a5.75,5.75,0,0,0,2,3.68c1.36,1,1.51,2.66,2.07,4.09l0-.09A15.8,15.8,0,0,1,146,41.25l-.07-.13c2.84,10.15,1.4,20-2,29.78l.06-.13c-.59,1.76-.66,3.73-2.13,5.12l-5.73,10a11.14,11.14,0,0,1-3.38,4l-7.71,7.63a15.38,15.38,0,0,1-5.06,4.43,22.42,22.42,0,0,0-6.91,5.75,11.81,11.81,0,0,1-4.1,3.25c-8.12,5.7-16.28,11.35-23.91,17.71a11.53,11.53,0,0,1-4.07,3.3,2.52,2.52,0,0,0-1.94,1.65,21.93,21.93,0,0,1-4.92,4.4c-3.46,3.18-7.25,6-10,9.94a13.75,13.75,0,0,1-3.37,4c-2.27,2-4.53,4-5.69,6.89a12.54,12.54,0,0,1-3.19,4.14c-2.52,1.67-2.8,4.89-4.79,6.93C46,171.47,45.61,173.61,43.89,174.89Z"/><path d="M909.84,44l3.37-2.14c1.22-.87,2.7-1.16,4-1.84,5-2.87,10.79-3.58,16-5.94,1.65-1.25,3.73,0,5.44-1l.31.17.25-.24c2.12-.89,4.65-.34,6.6-1.86a4,4,0,0,1,1.61-.05c2.82,1.16,6-.62,8.73,1.08l-.13-.06c1.87,1.13,4.41-.8,6,1.33,7,1.64,13.18,5.11,19.77,7.65,2.15,1,4.31,2,6.5,2.87a6.12,6.12,0,0,1,1.15,1c2.74,3.61,6.21,6.69,7.82,11.12,1.29,3.54,1.88,6.78-2.27,8.86-.74,0-1.48-.1-2,.65-1.79,2-4.39.16-6.35,1.32-.33-.39-.65-.45-1,0-3.94-.59-8.11-.34-11.39-3.25l.11.07a7,7,0,0,1-4.29-1.88L966.06,60c-1.7-1.29-4-1-5.74-2.29l.12.07c-5.1-.8-10.18-2.11-15.4-.89l.1,0c-1.8,1.55-4.18-.13-6,1.08l.07,0c-2.16.67-4.28,1.45-6.49,2l-4.59,1.82c-2.94,2.73-6.56,4.35-10.05,6.2l.08-.06c-3,2.46-5.44,5.53-8.42,8a36,36,0,0,0-5.6,8.85c-.31,1.52-1.09,2.89-1.42,4.41A13.67,13.67,0,0,1,901,93.57c-1.18,1.36-2.16,2.86-3.22,4.31-.75.45-.75,1.16-.66,1.9-1.88,4.22-2.27,8.91-4.18,13.12l.07-.13c-2,12-4.29,24.12-3.68,36.3,1.07,21.22,4.32,42.06,14.75,61.09l-.05-.08c2.22,3.13,5.07,5.79,6.91,9.21l-.07-.08a14.63,14.63,0,0,1,3.18,3.25l.81.67c7.45,5.79,15.87,10,24.21,14.24a11.69,11.69,0,0,0,6.87,1.72c1.63,1,3.63-.19,5.25.87l1.59.14a54,54,0,0,0,14.65,0c8,0,14.39-4.16,20.76-8.31a81.45,81.45,0,0,1,8.9-8.82l.07,0c4-2.24,7.17-.65,7,3.93-.23,7.3-1.26,14.42-7.66,19.36a12.32,12.32,0,0,0-3,3.87,4,4,0,0,1-3.43,1.66l-8.88,4.3a25.34,25.34,0,0,1-6.29,1.87,6.29,6.29,0,0,1-3.71,1.12,90.53,90.53,0,0,1-29.92.76l.13.06c-1.63-.94-3.69.44-5.23-1l-4-.83a2,2,0,0,1-2.63.06,13.85,13.85,0,0,0-4.3-3.25l.1.05c-5.68-2-10.88-5-16.17-7.81l-3.93-2.26a3.13,3.13,0,0,1-3-1.13c-1-1.15-1.25-3-3.16-3.32a11.1,11.1,0,0,1-1.34-.55c-9.23-7.86-15.94-17.69-21.34-28.35-4.61-9.1-6.75-19.13-8.62-29.12-.58-3.12-2-5.92-2.5-9a30.27,30.27,0,0,0-2-14.34,3.9,3.9,0,0,1-.11-1.73,60.54,60.54,0,0,0-.19-18.57,5.74,5.74,0,0,1,.12-3.48c2.21-2.7,1.79-5.7,1-8.75a4,4,0,0,1,.21-1.64c2.19-1.8.48-4.75,2-6.75l0,.12c1.06-1.91-.54-4.29,1.09-6.1l0,.13a59.79,59.79,0,0,1,3-12.16l0,.08c.64-2,.68-4.28,2.05-6.08l0,.09c.76-1.66.85-3.6,2.13-5l-.07.1c.79-3.29,2.71-6.1,3.93-9.21.64-1.35,1.27-2.69,1.91-4,1.35-1.44,1.64-3.56,3.15-4.89l-.05.08c1.13-1.62,1.41-3.78,3.22-5l-.07.08c.36-1.82,1.86-2.86,2.9-4.21l-.06.07c.9-2,2.82-3.31,4-5.15,3.53-4.59,8.45-7.56,12.92-11.06C907.26,45,908.74,44.85,909.84,44Z"/><path d="M315.25,123l2.95-4c5.26-8.46,8.15-17.14,2.43-26.61a8.73,8.73,0,0,0-1.25-1.51c-4.26-6.17-8.9-11.83-17-12.91-1.61-.8-3.61.19-5.1-1.12l.13.05c-2.1-.84-4.33,0-6.45-.56-4.76.32-9.56-.19-14.3.94-1.76.42-3.92.24-4.71-1.77s.85-3.29,2.22-4.54c5.61-5.1,12.65-6.06,19.74-6.9a75.87,75.87,0,0,1,15.27,1.1l-.1,0c3.43.8,7.08.94,10,3.28a6.59,6.59,0,0,0,3.77,1.74,16.55,16.55,0,0,1,7.23,5.26c6.8,6.62,12.26,14,13.78,23.73a14,14,0,0,1,0,10.75c-2,9.2-7.32,16.63-12.63,24.07a21.87,21.87,0,0,1-6,6.05c-12.06,10.58-26.23,18.2-38.93,27.87-3.92,3-7.94,5.92-11.19,9.7a85.51,85.51,0,0,1-6.34,6.29c-3.81,5.09-8,10-8.64,16.73a39.87,39.87,0,0,0,.05,12.62c.6,6.45,4.74,10.83,9.26,14.67,10.21,8.67,24.33,13.57,35.79,6.28,4.88-2.79,8.41-7.08,12.23-11.05l-.06.09c.6-3.39,3.15-5.53,5.15-8l-.07.1c.68-1.88.55-4.24,3-5l0,0c3.79-7.57,5.25-15.91,7.52-23.94,1.31-4.64-.33-9.76-.53-14.68-.56-7.47,3.45-12.9,12.53-17a5.27,5.27,0,0,0,1.38-.59l-.08.08c1.66-.83,3.31-1.4,4.82.29l.9.62c2.6,1.24,3.32,3.74,4.14,6.17a12.92,12.92,0,0,0,2.13,5.74,71.21,71.21,0,0,1,2.46,19c-.12,12.92.21,25.8,1.33,38.69.5,5.74.37,11.71-2.31,17.18l-.62,1.87a3.65,3.65,0,0,1-.93,1.14c-1.36.9-2.58,2-4,2.8-6.26,3.57-8.9,3.34-14.42-1.38-2.89-2.76-3.09-7.27-6.39-9.74a10.1,10.1,0,0,1-2.26.19c-9.64,9.87-21.92,14.25-35.07,16.82-16.7,2.21-30.89-3.39-43.57-13.88-6.33-5.24-10.05-12.24-13.64-19.37-2-4.05-1.14-8.31-1.43-12.55-.45-6.59,1.66-11.93,4.24-17.55,3.46-7.54,8-14.26,14.57-19.25,3.57-2.72,6.78-5.8,10.21-8.65,8.55-7.1,18-12.91,27.21-19a60.56,60.56,0,0,0,8.6-7.42c2.12-4.07,6.85-5.33,9.53-8.83C312.81,125.63,314.23,124.48,315.25,123Z"/><path d="M520.11,108.57l-.18.21.17.21a162.62,162.62,0,0,1,.06,30l0,1.43c-1.1,2.77.26,5.8-.9,8.57a.49.49,0,0,0-.11.77c-1.13,1.95.35,4.31-1,6.24l-.24.22.17.27c-.88,1.74.24,3.81-.92,5.5-1.52,1.73-1,3.83-1,5.82-1.08,1.58.26,3.62-1,5.18a57.73,57.73,0,0,0-3.09,15.49c-1,2.07.33,4.48-.94,6.52l-.24.25.19.29c-1.1,2.73.4,5.75-.93,8.45l0,1.47a9.81,9.81,0,0,0,0,6l-.21.29.24.26c1.29,1.55-.08,3.62,1,5.21,1.54,6.55,4.2,12.34,9.83,16.57,6.37,4.79,12.81,9.17,21.19,9.25,1.58.92,4,.16,4.91,2.43,2.05,2.52.87,5.44,1,8.19a3.55,3.55,0,0,1-1.92,2.35c-10.12,6.68-19.56,3.86-28.77-2.06l-.36.13a14.28,14.28,0,0,0-1-1.16c-9.92-6.25-15.94-15.61-20.71-26a11.06,11.06,0,0,1-1.1-3.3c-1.07-9-2.41-18.1-1.08-27,1.17-7.81,2.72-15.61,4.29-23.39,3.69-18.23,6.8-36.56,6.32-55.24-.27-10.35-1.83-20.5-7.06-29.76a20.14,20.14,0,0,0-6.15-7.06c-1.18-.53-2.09-1.49-3.26-2l-6.78-3.2a58.74,58.74,0,0,0-15.39,0l.1,0c-1.78,1.56-4.17-.16-6,1.11l0,0c-5.81,1.69-11.51,3.73-17.15,5.92l.08-.06a30.39,30.39,0,0,1-10.32,5.06c-2.47.79-5.89.23-6.07,4.28,2.2,2.09.12,5,1.38,7.27.05.53.1,1.06.14,1.59,1.14,2.37-.16,5,.86,7.41l.12,2.59a338.36,338.36,0,0,1-.14,43l0-.09c-1.31,3.95.58,8.17-1,12.09l0-.07c-1.3,2.91.57,6.19-1.05,9.07l0-.1c-1.31,3.6.69,7.52-1.1,11.07l.06-.12c-1.16,3.65.61,7.55-1,11.15l0-.09c-1.33,3.94.63,8.17-1.06,12.08l.05-.09c-.92,9-.15,18.09-.42,27.13-.06,1.95.44,4-.72,5.79-1.25,3.5-2.44,7.09-7,7.46-5.37.42-10.24-.9-14.17-4.72-1.43-1.39-1.05-3.44-1.05-5.25,0-15.83,1.18-31.59,2.65-47.32,2.67-28.63,7.39-57.08,6.43-86-.3-8.85-2.13-17.46-3.05-26.2-.73-6.93-5.49-11.49-12.55-13.12l-1,.09c-3.59-.71-3.17-2.59-.88-4.21,3.4-2.42,7.18-4.08,11.57-3.19,1.58.22,3.15.49,4.19,1.91.23.88.92.93,1.65.91,5.93,3.39,9.49,8.84,12.64,14.63,1.25,1.23,2.33.7,3.49-.22C441.65,63.11,460.64,58.38,481.77,62a7.54,7.54,0,0,0,1.5,0c2.13-.49,3.65.48,4.93,2A3,3,0,0,0,491,65.08c1.44.6,3.14.68,4.14,2.12L500,70.07a9.81,9.81,0,0,1,4,3.44l.65.64a17.37,17.37,0,0,1,4.47,5C514,86.44,517,94.55,519.24,103,520.21,104.75,519.26,106.8,520.11,108.57Z"/><path d="M1113,240.92c-7.22,7-16.65,9.24-25.79,12.14a40.76,40.76,0,0,1-16-.23c-5,0-9.11-2.84-13.77-3.92-1.43-.47-3.35,0-4-2-5.79-4.18-11.87-8-16.19-13.91-.93-1.37-2-2.61-3-4-2.77-4.34-5.54-8.69-5.94-14a59.81,59.81,0,0,1,0-18c1.53-10.55,7.71-18.61,14.65-26,11.7-12.45,26.08-21.54,40.23-30.92,10.46-6.94,20.63-14.36,26.86-25.76,1.21-2.21,2.2-4.53,3.29-6.8a26.91,26.91,0,0,0,0-10.08A30.38,30.38,0,0,0,1103.23,83a40.44,40.44,0,0,0-6-3.92l-10.57-3.18a30.9,30.9,0,0,0-10.85,0c-5.26,0-9.65,3.08-14.62,4.11-2.28-1.47-3.39-3.3-1.79-5.94l-.06.1a14.11,14.11,0,0,1,6.1-6l-.08.07a17.28,17.28,0,0,1,9.24-4.12l.35.14.28-.25c1.93-1.21,4.22.11,6.18-.87l-.12,0c13-2.34,24,1.87,33.77,10.11l-.1-.09c3.3,1.1,4.63,4.7,7.71,6.07a6.55,6.55,0,0,1,1.37,1.46c1.09,2.13,2,4.33,3,6.53l-.07-.13c2,3.23,2.86,6.92,4.2,10.42a34.37,34.37,0,0,0,0,11.58,12,12,0,0,1-.87,4.8,37.77,37.77,0,0,1-3.52,4.93,1.34,1.34,0,0,0-.66,1.71c-.88,1.89-1.42,4-3.27,5.29l-2.71,3.81a8.5,8.5,0,0,1-3.4,4.17l-4.62,4.69c-1.51,1.7-3,3.44-5.14,4.36l-.86.68a10.08,10.08,0,0,1-4.12,3.33l-29.88,20.64a9.84,9.84,0,0,1-4.11,3.36,2.52,2.52,0,0,0-1.89,1.58c-1.87,2.37-3.15,5.31-6.35,6.35l-.26-.19-.24.22c-1.72,1.08-2.82,2.85-4.49,4-.77.46-1.52.95-1.58,2-.47,3-1.53,5.79-3.93,7.76-2.73,2.24-1.4,5.63-2.61,8.26-2.33,5.06-2.18,10.16-.47,15.32,3.27,10.24,16.78,19.67,28.48,19.88a9.38,9.38,0,0,0,5.88,0c15.21-1.45,24.3-11.14,31.65-23.33a93,93,0,0,0,10.06-22.91c1.34-1.75-.4-4.1,1.13-5.81l0,.1a32.81,32.81,0,0,0,0-11.44c-1.18-2.43-2.26-4.88-2-7.68-1.35-6.71.69-9.63,7.71-11l1.19-1.09c5.27-1.4,8.6,1,10.84,5.53.08,1.82,1.11,3.18,2.11,4.56a3.79,3.79,0,0,1,2,2.85c2.38,12.61,1.16,25.45,2.36,38.07.7,7.48.32,15,1.54,22.55.77,4.78-.16,10.45-1.58,15.56-.36,1.93-1.74,3-3.27,4a.48.48,0,0,0-.16.71c-.55,1.79-1.2,3.49-3.22,4.15a3.5,3.5,0,0,1-3.66-.87c-.55-1.33-2.08-1.2-3-2a14.35,14.35,0,0,1-4-3.86c-1.78-1.73-2.76-4-3.88-6.13-1.41-1.62-.84-4.74-3.9-5.1C1118.68,234.92,1116.79,239.05,1113,240.92Z"/><path d="M1358.19,251c1,1.22,2.4,1.24,3.82,1.1a67.63,67.63,0,0,0,16.64.05c8.32-1.43,16-4.77,23.56-8.27,4.08-2.4,8.6-3.6,13.13-4.79h2c2.35-1.25,5-2,6.59.64,1.8,2.95,2.23,6.3-.24,9.3a29.16,29.16,0,0,1-9.33,7.33c-16.37,8.4-33.45,13.39-52.11,10.32-3.54.3-6.42-1.65-9.54-2.77-2.4-.33-4.39-1.62-6.47-2.69L1341.1,258a32.57,32.57,0,0,1-5.91-5.82c-5.88-7.49-10.5-15.57-11.91-25.17-1.39-1.88.12-4.23-1-6.15l0,.1a51.09,51.09,0,0,1-.11-17l.24-.34-.17-.37c1.18-2.29-.5-5,1.07-7.24l0,.11c1-1.55-.48-3.65,1.09-5.08l-.06.12c.43-2.45.54-5,1.84-7.2h0a63.21,63.21,0,0,1,3-9c4-8.9,10.29-16.15,16.94-23.12a5.34,5.34,0,0,1,2.46-3,24.86,24.86,0,0,0,3.38-3.27c9.07-8.64,19.4-15.73,29-23.68a77.9,77.9,0,0,0,14.82-15.47c6.11-8.83,4.57-17.41-4.57-23.12-9.34-5.84-19.68-8.21-30.63-6.26-14.26,2.54-22.42,12.73-25,28.68-2.12,13.37,2.12,24.2,10.86,33.83a3.79,3.79,0,0,1,.31.39c1.63,2.19,4.27,4.31,2.45,7.35s-4.89,2.92-7.93,2.34a20.79,20.79,0,0,0-2.94-.17c-3.11.47-5.72-.79-8.26-2.35A5.6,5.6,0,0,1,1327,145a40.18,40.18,0,0,1-5.78-5.81,29.71,29.71,0,0,1-6.86-14.17c-1.35-1.68-.11-3.84-1-5.59l.16-.22-.18-.2a26,26,0,0,1,0-12l.21-.23-.19-.25c1-2.07-.31-4.48,1-6.52a49.37,49.37,0,0,1,11-25.08A24.71,24.71,0,0,1,1330,70c6.4-5.58,14.33-7.78,22.22-10.07,1.61-1,3.58.16,5.19-.86l2.82-.18c12.23-.83,24.42-1.2,35.88,4.37l-.13-.06c4.45,1.53,8.86,3.14,12.29,6.58,10.4,8.09,14.77,18.71,13.34,31.76-2.23,11.91-9.59,20.52-18.24,28.29a8.22,8.22,0,0,0-2.09,2.07,16,16,0,0,1-2.18,3.51,3.88,3.88,0,0,1-3,1.36L1388,142a137.62,137.62,0,0,0-15.32,11.43,70.87,70.87,0,0,0-7,4.89,9.25,9.25,0,0,0-2.7,2.87,6.49,6.49,0,0,1-1,.93,38.36,38.36,0,0,0-6.69,6.48,4.59,4.59,0,0,1-.86,1,5.65,5.65,0,0,0-2.85,2.54c-1.51,1.65-2.23,3.77-3.31,5.68-4.36,5.07-4.49,11.84-7,17.64-.81,1.48-.57,3.13-.73,4.71-.94,2.72-.35,5.69-1.3,8.42a16,16,0,0,0,0,9.16c1.39,9.27,4,18.1,9.52,25.83l.92.94a6.92,6.92,0,0,0,3.2,2.94C1354.41,249,1356.41,249.8,1358.19,251Z"/><path d="M786.13,171.18c.19.33.39.65.59,1,3.27,3.44,4.69,7.86,6.37,12.14l1.67,6.84c3,10.68,3.23,21.29-.82,31.78-2.4,6.11-6.38,11.13-10.85,15.81-1,2.26-2.29,4-5.07,3.83-8,4.14-16.15,8-24.83,10.52-1.59,1-3.53-.15-5.12.84l.09,0c-10.23,1.55-20.31,1.7-29.89-3.06l.1.05c-12.88-4.26-21.38-13.31-25.52-25.76-2.81-8.44.32-17,3.92-24.86.92-2,2.58-4.57,5-4.16,2.1.35,2.73,3,3.16,5.17l-.07-.1c1.81,1.62,1.74,4.25,3.22,6,1.08,2.13,2.41,4,4.75,4.92a6.91,6.91,0,0,1,3.83,3c3,4.54,7.16,8,11.36,11.32a5.73,5.73,0,0,0,3.72,1.72c1.84.6,3.89.7,5.28,2.33a14.28,14.28,0,0,0,7.88,1.62,34.46,34.46,0,0,0,11.77,0c6.81-1.21,12.83-3.92,17.49-9.21,3.34-7.47,5.2-15.16,3.5-23.38-.83-4-3.3-7.51-3.32-11.73l.07.11c-2.66-4-5-8.24-9.25-10.87l-12-7a56.21,56.21,0,0,0-5-2.87L746,166c-1.44-1-3.31-1.09-4.76-2.08l-16-7.92c-1.54-1.19-3.39-1.84-5-2.9a56.88,56.88,0,0,1-11.1-7.1c-1.45-1.25-3.66-1.28-4.85-3-3.23-4-6.56-7.89-9.51-12.12-5-7.11-5.84-14.77-5-23.35C691,95.13,698.18,86.2,705.6,77.39a33.36,33.36,0,0,1,12.85-9.18l-.1.07c1.56-1.93,3.84-2.45,6-3.12l-.11.06c1.47-1.24,3.38-1.44,5.1-2.07l-.11.06c3.72-2.26,8-2.39,12.11-3.06l-.12.05c3.59-1.71,7.56.18,11.19-1.19a3.5,3.5,0,0,1,3.74,1.83c15.18,2.32,27.5,8.89,34.53,23.3,2,1.39.25,3.76,1.37,5.38a6.46,6.46,0,0,0,0,4c-.5,2.92-.6,5.89-1.78,8.69A5.37,5.37,0,0,1,785,106c-2.42,0-3.27-1.59-4.36-3.41-2.35-3.92-1.38-9-4.47-12.55-10.91-11.42-23.83-15.38-39-10.22-3.51,1.2-6.73,3.27-10.08,4.94-1.28,1.25-2.49,2.58-4.27,3.12-2.32.92-3.6,2.83-4.73,4.9a12.43,12.43,0,0,1-3.21,4.13c-1.68,2.91-4.74,5.09-4.77,8.9-1.13,4.58-.31,9,1,13.42.25,2.56,1.74,4.35,3.6,5.92a32.73,32.73,0,0,1,4.34,4.31c6,6.16,13.91,9.38,21.32,13.3,4.43,2.35,8.7,5.19,13.72,6.28,2.07.95,4.45,1.33,6,3.23.3.89,1,.9,1.76.86,1.83.92,3.84,1.52,5.24,3.14,2.81,2.7,6.51,3.92,9.78,5.85A30.32,30.32,0,0,1,786.13,171.18Z"/><path d="M615.29,100c-.07,1.17-.14,2.34-.2,3.51-.94,2.08.22,4.44-.87,6.5l-.12,1.43c-.79,8.84-1.3,17.7-2.41,26.51a64.88,64.88,0,0,1-1.72,10l.06-.13c-1,1.94.52,4.3-1,6.14l0-.13c-.9,1.63.33,3.63-.89,5.21a76.14,76.14,0,0,0-3.07,18.54c-.87,1.72.19,3.76-.87,5.45a.46.46,0,0,0-.1.74c-1,1.63.24,3.66-.93,5.26a3.75,3.75,0,0,0-.24.6c0,.1,0,.23.07.34-.91,11.39-2.32,22.79.15,34.17,2,6.87,3.27,8.24,9.78,7.88,8.24-.46,16.08,1.27,24,3.11,1.44,1.55.87,3.23.28,4.9-3.16,5.94-7.52,10.55-14.08,12.73a4.43,4.43,0,0,1-3.53,2.19c-3.46-.15-6.84.66-10.32.67a32.88,32.88,0,0,1-14-2.51l-3-1.09c-1.37.62-2.12-.34-3-1.14-.87-2.58-3.07-3.88-5.15-5.3a3.57,3.57,0,0,1-.89-2c-2.91-7-5.78-14-6.89-21.56a8,8,0,0,0,.38-3c-.69-16.33,2.33-32.23,5.51-48.12,5.11-25.49,8.52-51.25,11.38-77.07A36.76,36.76,0,0,0,593.2,81c-6-.67-11.6-2.7-17.13-5-3.2-3.44-3.07-5.7.88-7.69a36.2,36.2,0,0,1,11.75-3.87c3.62-.45,5.25-1.84,5.15-6a224.16,224.16,0,0,0-2-26.26,30.69,30.69,0,0,1,.56-11.4c1-1.52,2.28-1.8,3.8-.71a8.39,8.39,0,0,1,7.34,4.68,74.74,74.74,0,0,1,8.59,22.65A6.41,6.41,0,0,0,613.25,50c1,1.59-.16,3.57.88,5.17.06,9.85.17,9.95,12.87,11.89,1.42.65,3.18.65,4.09,2.22a14.23,14.23,0,0,0,4.74,4.23c4.45,2.15,3.32,4.73.74,7.56a19.69,19.69,0,0,1-9.38,6c-2.17,1.11-4.62-.13-6.81.82a6.93,6.93,0,0,1-1.43.26c-2.53.15-3.31,1.58-3.31,4C615.64,94.73,616.16,97.4,615.29,100Z"/><path d="M191.8,254.87l-1.74,1.71c-.3,1.09-1.28,1.09-2.12,1.32-2.14.23-4.3,0-6.45.37-6.91,1.12-11.05-1.46-13.65-8.1-2.75-7-2.63-14.41-1.82-21.62.54-4.8.36-9.6.93-14.36,1.46-12.2,3.61-24.29,5.76-36.37,2.24-12.57,4.84-25.08,6.47-37.74,2.09-16.28,5.2-32.4,6.71-48.78,1-10.59,2.12-21.13,1.85-31.79-.32-12.56-3.23-24.32-10.54-34.75-1.21-1.73-2.14-3.87-4.67-4.16a24.66,24.66,0,0,0-3.33-.13,5,5,0,0,1-3-1.35c-2.36.89-5.32,0-7.17,2.39-.95,1.6-2.31,2.51-4,1.47s-3.2-2.44-2.83-4.8a11.54,11.54,0,0,1,2.77-5.72c3.27-2.58,6.51-5.23,10.81-5.93a15.08,15.08,0,0,0,5.5-.72,3.38,3.38,0,0,1,2.87,1.34l-.07,0c4.58.59,9.48.23,13,4.21l-.09-.07a27,27,0,0,1,11.23,12.83l0,0a15.86,15.86,0,0,1,4,7.22L208.16,49c1.29,1.9-.15,4.22.94,6.15l0-.1c1.3,3.42,1.25,7.18,1.4,10.62a377.72,377.72,0,0,1-1.5,51.56c-.21,2.21.52,4.66-1,6.71l.06-.13c-1.76,17.25-3.49,34.51-6.39,51.62a364.71,364.71,0,0,0-5.5,67.69C196.23,247.5,195.07,251.62,191.8,254.87Z"/><path d="M1260.79,76.87c-3.31,1.48-6.29-.29-9.39-.94-1.8-.54-3.6-1.07-5.14.6a3.63,3.63,0,0,1-4.06.52,26.9,26.9,0,0,0-13.14,5.55c-1.82,3.35-5.2,4.5-8.36,6s-5.6,4.14-8.79,5.68c-2.88,1.39-3.76,3.83-2.82,7.12,4,13.9,4,28,2.86,42.36-.77,10.23-1.74,20.45-2.45,30.68-.79,11.37-3.07,22.64-2.89,34.1.22,13.42-.82,26.88,1.28,40.23,1.28,8.16-3.32,11.76-11.56,8.94l.12.07a7.43,7.43,0,0,1-4.26-1.86c-1.38-1.39-2.65-2.84-2.9-4.9-1.32-2,0-4.36-1-6.38l.15-.35-.26-.28c-1.09-1.71,0-3.77-.9-5.52l.18-.25-.22-.22a161.74,161.74,0,0,1,.08-31l0,.09c1.29-5.64-.61-11.48,1-17.11l0,.08c1.26-2.94-.47-6.2,1-9.12l.24-.25-.19-.29c1.17-3.07-.49-6.43,1-9.47l.17-.22-.19-.21c1.24-3.41-.53-7.13,1-10.51l0,.1c1.31-3.6-.69-7.53,1.1-11.07l-.06.11c1.13-3-.51-6.24.94-9.19l.23-.26-.2-.28a93.35,93.35,0,0,0,0-19.56l0,.08c-1.45-2.68.14-5.71-1-8.42-1.94-7.63-3.4-15.39-6.64-22.66-1.23-2.77-2.19-5.64-4.35-7.88-1-1.45-2.61-2-3.81-3.18-3.51-3.38-5-8.17-3.29-11.12,1.55-2.66,5.86-3,10.93-.95a59.85,59.85,0,0,0,9.16,5.43,29.52,29.52,0,0,1,2.47,2.41c1.17,1.88,2.45,3.71,3.68,5.56a5.39,5.39,0,0,1,.68,1.13c.6,1.1.92,2.53,2.67,2.29,2.86-1.75,4.36-5.13,7.63-6.39l-.08.07a11.5,11.5,0,0,1,4.08-3.17c9.79-7.22,20.56-12,32.77-13.14,5.07-1.61,9.67.24,14.3,1.9a20.45,20.45,0,0,1,3.12,3.12c4.45,4.75,3.51,8.59-2.65,11.17C1262.26,76.41,1261.53,76.67,1260.79,76.87Z"/><path d="M303.1,135.76c-2.51,4.7-6.38,7.62-11.21,9.9-4,1.88-7.15,5.22-10.94,7.63-10.3,6.54-19.5,14.61-28.35,23a44.42,44.42,0,0,0-13.07,22.95c-1.8,8.59-1.84,17.3,3.36,26.09a54.15,54.15,0,0,0,25.3,22.62,59.52,59.52,0,0,0,23,5.09c1.63.05,3.34-.47,4.86.56l.3.19-.08.35c-6.38,2.45-12.72,1.19-19.05-.23-2.56.18-4.78-.89-7-1.87s-4.73-1.81-6.81-3.31l.12.08c-2.06-1-4.21-1.71-6.26-2.71l-1.53-1.2c-3.65-3.08-6.49-7-10.36-9.86a3.26,3.26,0,0,1-.91-1c-.19-1.64-1.65-2.68-2-4.24l.07.11c-6.4-8.2-7.35-17.57-6-27.48,1.09-8.26,5.2-15.16,9.52-22,.15-.46.3-.93.46-1.39,1.09-1.36,3-2.15,2.91-4.34a5.41,5.41,0,0,1,2-2.57,9.47,9.47,0,0,0,3.08-3.12,5.73,5.73,0,0,1,2.65-2c4.77-1.55,7-6.28,10.9-8.86,8.06-4.71,15.34-10.69,23.66-15l5.61-4.21c1.56-.69,2.49-2.33,4.22-2.75l-.1.08C301.71,135.35,302.38,135.45,303.1,135.76Z"/><path d="M489.93,80.11c5.54.93,7.12,5.88,9,9.84,6.32,13.61,7,28,5.75,42.83-.75,9.27-2.19,18.4-3.47,27.57-.63,4.56-1.55,9.08-2.47,13.59-2.43,12-5.39,24.08-4.76,36.27.53,10.27,3,20.44,9.83,29.07,3.73,4.71,7.53,9.05,12.7,12.15.41.25.43,1.18.63,1.79-2.32.86-3.2-1.56-4.9-2.14L507.08,247a26.45,26.45,0,0,1-5.88-6c-.65-1-1.29-2-1.93-3-9-13.09-10.21-27.34-7-42.56,1.4-6.72,2.36-13.61,3.69-20.33,1.46-7.41,3.21-14.79,4.08-22.28,1.88-16.33,5.18-32.69.77-49.13-.44-1.64.32-3.33-.38-4.92l.06.12c-1.25-1.74-1-4.08-2.25-5.8-1.41-2.82-2.6-5.79-4.87-8.1C492.37,83.25,490.15,82.37,489.93,80.11Z"/><path d="M393.23,66.64c7-1.16,15.26,6.3,14.72,14.3-.39,5.66,1,11,1.52,16.45a248.8,248.8,0,0,1-1,49.64c-1.61,14.3-2.78,28.66-4.34,43-1.82,16.66-3.18,33.33-3,50.11a5.06,5.06,0,0,0,2.37,4.76c6.72,5,13.56,4.14,17.75-2.87.42,1.35,1,2.71-.39,3.87l.08-.14c-.67,2.52-2.62,3.54-4.9,4.18l.08,0a14.25,14.25,0,0,1-5.16,1.56c-9,.79-11.57-1-12.08-9.83-.58-10.11.72-20.21,1.23-30.3,1-19.66,3.93-39.15,5.93-58.72q2.15-21,2.23-42.08c0-9.57-2.15-18.67-4-27.89-.77-3.81-3.76-6.18-5.5-9.33-.33-.4-.66-.81-1-1.21-.74-2-1.44-4.07-3.6-5.1Z"/><path d="M171.87,19.17c2.53-.53,3.93.86,5.33,2.76,8.2,11.06,11.72,23.63,12,37.18.46,24.51-3.69,48.56-7.39,72.65-1.89,12.28-3.27,24.66-5.75,36.81-2.38,11.71-4,23.54-6.35,35.23-.7,3.45.43,7-1.2,10.32a2.57,2.57,0,0,1-1.24-1.28c-1.6-9.17,2.43-17.61,3.48-26.44,1.81-15.17,5.58-30,7.55-45.21,2.78-21.37,6.88-42.59,8.12-64.13.68-11.7,1.5-23.52-2.19-35q-1.44-4-2.87-8.05c-2.35-4-4.23-8.27-7.89-11.36A3.67,3.67,0,0,1,171.87,19.17Z"/><path d="M184.2,42.06c2.56,4.27,2.76,9.1,3,13.83,1.05,23.91-3,47.36-6.22,70.93-3.54,26.21-8.86,52.12-12.55,78.29a73.75,73.75,0,0,0-.33,7.45c-.43,10.34-2.16,20.65-1.22,31a21.48,21.48,0,0,0,8.46,15.6l-.09.83h-2c-2.68-.08-5-.57-5-4l-3-7a5.24,5.24,0,0,1-1.51-4.28c0-6.15.13-12.31-.06-18.46-.35-2,.6-3.64,1.57-5.26v-1c-2.34-3.6-1-6.84,1-10v-1c-2.14-3.28-.82-6.17,1-9,2.13-7.32,2.57-14.94,3.94-22.4,2.29-12.51,4.84-25,6.43-37.59,2.07-16.38,5.85-32.51,6.69-49.06.34-6.75,1.47-13.46,1.88-20.22A116.87,116.87,0,0,0,184.2,42.06Z"/><path d="M398.38,70.85c6.68,7.63,9,17,9.88,26.65,2,21.51.1,42.92-2.47,64.28-3,24.48-5.51,49-6.14,73.65,0,.5,0,1,0,1.5-.09,13,1.07,14,14,13,.83-.07,1.66,0,2.49,0a2.23,2.23,0,0,1-1.95,1.2c-3.6,4.34-8.12,2.77-12.19,1.4-3.17-1.07-4.86-3.8-3.82-7.48-.24-15.37,1.44-30.66,2-46-.61-1.54,0-2.78.89-4,0-2.67.07-5.34.11-8-.61-1.55,0-2.8.94-4,.38-11.06,3.22-21.89,3.06-33-.61-1.55,0-2.81.95-4l.05-4c-.61-1.55,0-2.8.93-4,0-12.56.1-25.12,0-37.69a55.47,55.47,0,0,0-1-7.31c-1.63-2.43-2.83-5-2-8-.68-2.46-1-5.1-3-7C399.33,76,397.13,74.09,398.38,70.85Z"/><path d="M1196.33,257.7c8.61,1.08,12-2,10.72-10.57-3-19.93-1.57-39.81.14-59.71,1.62-18.89,4.4-37.68,4.57-56.69a117.08,117.08,0,0,0-3.26-29.68c-.8-3.2-.29-5.38,2.47-7.24,3.39-2.3,6.14-5.54,10.23-6.8-1.1,4.8-5,6.4-9,8-3,1.56-3.41,3.85-2.26,6.9a39.64,39.64,0,0,1,1.34,6.1c1.3,1.48,1.89,3.1.92,5l.12,4c1.27,1.5,1.85,3.11.88,5a288.86,288.86,0,0,1-1,30c1.44,2,.37,3.5-.88,5l-.12,5c1,1.88.4,3.5-.86,5l-.14,6c1.43,2,.38,3.5-.87,5l-.13,5c1,1.89.39,3.51-.89,5,0,1.33-.07,2.67-.11,4,1.27,1.93.45,3.5-.84,5q-.08,8-.16,16a75.18,75.18,0,0,1,0,26c.29,3.4.52,6.82,2,10,1.72,3.91.39,6.8-3,9C1202.86,259.36,1199.51,261.3,1196.33,257.7Z"/><path d="M8,250.41l2.15,1.6c2.87,1.67,5.8,2.68,9,1,2.58,1.33,4-.52,5.33-2.11a24.84,24.84,0,0,0,5.83-16.49c.13-12.61.57-25.19,3.87-37.47.93-3.49,1.75-7,3.79-10.14-.15,5.2-2.81,9.77-3.62,14.84-1,6.35-2.53,12.64-2.18,19.12.37,6.8-1.69,13.46-1,20.26a35.5,35.5,0,0,1-2.75,17.62c-1.26,2.86-3.41,4.2-6.05,1.17-1.14-1.3-2.23-1.4-3.91-.85-6.2,2-7.16,1.53-10.29-3.94,0-3-3.28-4.68-3-7.76C7.53,247.05,7.3,249.15,8,250.41Z"/><path d="M38.4,91.08c2.7-5.58.58-11.35.67-17,1.37,3.93,5.64,7.33,2.17,12.12,4.64,6.94-1.5,12-3.27,17.69-1.59,5.16-9.92,7.54-13.45,3.72-3.09-3.35-5.46-7.39-7.95-11.26-1-1.57.14-3.19.81-4.7C19.6,92,20.05,94,21,95.5c1,2.2,2,4.37,4.34,5.54,4.51,3.46,4.35,3.34,7.85-1.14A63.54,63.54,0,0,0,38.4,91.08Z"/><path d="M191.8,254.87a22.85,22.85,0,0,0,3.71-13.23c-.76-28.44,3.88-56.35,8.16-84.3,1.55-10.19,2.4-20.47,3.61-30.71a20.41,20.41,0,0,1,.76-2.83c-.31,14.25-2.14,28.33-4.39,42.38-2.31,14.36-4.22,28.75-5.62,43.24-1.06,11-.29,21.9-.92,32.82C196.84,246.91,196.51,251.9,191.8,254.87Z"/><path d="M1362.22,266.63c5-1.46,10.2-.15,15.27-.65,14.15-1.42,27.65-4.93,39.62-13,1.76-1.19,3.12-3,4.86-4.23,3.36-2.41,1.66-5.49,1-8.13-.79-2.93-3.73-1-5.62-1.61l.87-.95c4.07-2.38,7.21,1.4,10.88,1.79,1.43.16,1.39,2.4,1,3.91-.4,1.83-1.6,3.23-2.64,4.71a8.06,8.06,0,0,1-1.25,2c-2.19,1.92-5,2.77-7.37,4.42-7.34,3.82-14.71,7.57-22.65,10.06-2.43.81-5,1.35-7.16,2.75a5.18,5.18,0,0,1-1.45.24c-2.35-1.11-4.34.23-6.42.95a3.55,3.55,0,0,1-1.59-.16c-5.5-.25-11-.26-16.39-1.75Z"/><path d="M593.2,81c2.29,1.16,1.09,3.27,1,4.82-.92,23.35-4.63,46.34-8.58,69.33-2.56,14.92-6.08,29.68-7.67,44.78-.81,7.64-.64,15.28-.6,22.92l-.61.37c-1.16-.47-1.38-1.2-.59-2.19-1-18.88,3-37.17,6.31-55.58,3.08-17.22,6.32-34.4,7.88-51.89C591.34,102.69,593.57,92,593.2,81Z"/><path d="M38.4,91.08c-.5,5.36-4.93,8.94-6.35,13.93-.49,1.7-2.17,1.23-3.33.37-1.46-1.09-2.8-2.32-4.2-3.49-2.08-1.47-2.84-3.92-4.32-5.84-1.37-1.2-.81-3.64-2.82-4.44.45-3.15-2-5.59-2.11-8.6-.47-2.85-2.27-5.16-3.14-7.86A5,5,0,0,1,12,73.47a168.81,168.81,0,0,1-1.36-25.32,35,35,0,0,1,1.72-11.1l0,.12a92.19,92.19,0,0,1,2-9.19c.32-1-.24-2.32.89-3.14.7-.5.39-1.59,1.16-2.06a.92.92,0,0,1,1,.39C15.82,30.08,13.22,36.78,13.2,44a66.56,66.56,0,0,0,0,18,77.72,77.72,0,0,0,7,29c1.08,1.14,1.22,2.73,2,4l1,1c.2.27.37.56.58.81,4.35,5.12,4.35,5.12,9.43,1.18Z"/><path d="M500.38,98.79c2.12,4.28,2.32,9,2.65,13.58,1.55,21.5-2.22,42.49-6.38,63.43-1.46,7.35-2.71,14.73-3.86,22.14-2.19,14.15-.24,27.45,6.48,40.07-2.5-1.23-2.76-4-4.1-6-3.1-2.28-4.24-5.23-3.06-9l-.93-3c-3.27-8.46-2.65-16.78.89-25,.27-6.14,2.19-12,3.07-18-1.18-1.95-.37-3.52,1-5q2-12,4-24c-1.22-1.94-.41-3.51.9-5l.12-5c-1.25-1.92-.44-3.49.84-5,.14-9,.79-18-.91-27-1.35-1.46-2.15-3-1-5C500.22,100.28,500.3,99.53,500.38,98.79Z"/><path d="M904.08,210.16c-6.46-8.78-8.82-19.13-11.28-29.45a144.37,144.37,0,0,1-.52-66.15,11.41,11.41,0,0,1,.73-1.79c1,5.91-2.41,11.36-1.8,17.23,1.28,1.95.95,3.61-.9,5-1.38,17.14,1.26,33.92,4.86,50.57C897,194.14,901,202,904.08,210.16Z"/><path d="M8,250.41l-2.83-3.17L4.3,245C-.57,232.9-.11,220.33,1.67,207.8A83,83,0,0,1,10.31,180L17.2,167.9c.54-.51.85-1.37,1.84-1.21-1.21,6-5.48,10.43-7.74,15.91-9,21.76-13,43.67-3.34,66.33A4.52,4.52,0,0,1,8,250.41Z"/><path d="M8.2,255c3.28,2.94,6.37,5.82,11,1.78,1.88-1.63,3.27.91,4.25,2.21,1.58,2.11,2.31,1.54,3.44-.36,3.25-5.46,2.19-11.92,4.28-17.63.92.48,2,1.25,1.8,2.19-1.43,6-.32,12.62-4,18.13-1.91,2.86-4.44,4-6.82.91-1.73-2.25-3.06-1.49-5.05-.81C11.5,263.35,8.37,261,8.2,255Z"/><path d="M718.45,68.21a69.43,69.43,0,0,0-20.47,20c-11.6,17.48-9.87,36.83,4.88,51.74.92.94,1.77,1.94,2.65,2.92a1.62,1.62,0,0,1-2.31.13c-2.89-4.1-6.74-7.46-9-12-3.82-3.9-6.16-8.32-5-14l0-1q-3.18-4,0-8c0-1,0-2,0-3-.92-1.64,0-2.84,1-4,4.56-12.73,12-23.28,23.34-30.87C715,69.11,716.47,68,718.45,68.21Z"/><path d="M152.19,22c-2.74,2.14-5.79,5-9.1,1.92S141,17,143,13.44C146.54,7,152.53,4.79,159.32,4c1.56-.18,3.46-.41,3.88,2a3.79,3.79,0,0,1-2,1.91c-2.39.89-4.79,1.77-7.26,2.42a7,7,0,0,0-5.43,3.39,9.4,9.4,0,0,1-.69,1.08,4.68,4.68,0,0,0-1.26,3.35c.48,2.45,2.27,1.66,3.79,1.57S153.4,19.72,152.19,22Z"/><path d="M1145.8,242.89c2.75-8.79,2.07-17.72,1.27-26.69-1.3-14.4.09-28.91-1.75-43.29-.33-2.62-1-5.2-1.56-7.8,3.14-1,1.2,2.28,2.44,2.89,2.7,13.57,1.9,27.31,2,41a7.84,7.84,0,0,1,1,8c0,2.33,0,4.67,0,7a4.21,4.21,0,0,1,0,6c0,1.67,0,3.33,0,5C1149.12,238.08,1150.74,241.9,1145.8,242.89Z"/><path d="M97.18,2c-15,0-29.92-.22-44.88.08C41.82,2.3,31.93,4.41,24.52,13c-2.74,3.19-4.2,7.16-7.12,10.14l-.46-.38c-.33-1-.55-2,.41-2.81l3.85-6.06A26.2,26.2,0,0,1,25.53,9.2l-.14.13c1.61-1.6,2.93-3.57,5.32-4.18L32.2,4a26.86,26.86,0,0,1,6.13-1.89l-.09,0A22.44,22.44,0,0,1,47.87.48c13.13.07,26.27,0,39.4,0,1.64,0,3.32-.34,4.91.39S95.72.71,97.18,2Z"/><path d="M483.1,63a77.6,77.6,0,0,0-39,3.84c-6.73,2.49-13.23,5.52-18,10.93-3.2,3.61-4.49,2.6-5.72-1.14a10.57,10.57,0,0,1,2.23-.49L425.2,74a31.83,31.83,0,0,1,8.47-4.85L435.2,68a92.22,92.22,0,0,1,27.47-8c6.68-.82,13.5.42,20.18,1.62A.88.88,0,0,1,483.1,63Z"/><path d="M705,201.26c-1.5-1.27-1.44-4.59-3.46-4.39-2.51.25-3.77,2.93-4.85,5.24C688.8,219,694.53,237,711,246.89c2.4,1.45,4.94,2.66,7.41,4-10.65-1.92-17.11-9.18-22.58-17.7-.89-1.38-1.73-2.78-2.59-4.17a10.49,10.49,0,0,1-2-10c.81-6.92,1.63-13.82,5.35-20,1.33-2.19,3.14-4.69,5.59-4S705.4,198.51,705,201.26Z"/><path d="M309.15,65.14c-5.32-.2-10.63-1.16-15.95-.14-6.52.84-13,1.68-18.45,5.93a23.34,23.34,0,0,0-2.65,2.21c-1,1-1.78,2.14-.94,3.52.72,1.19,2,.92,3.16.7,4-.77,8-1.77,12.21-1.36,1.28.12,2.69-.28,3.67,1-.34.34-.67.69-1,1-4.71,2.42-9.8,2.95-15,3l-3,1c-3.24.58-4.09-1.24-4-4,.13-4.93,3.59-7.39,7.19-9.76,1.62-1.07,3.22-2.17,4.83-3.25,4.12-2,8.24-4.11,13-2h4c1.57-1.12,2.83-.53,4,.72C303.08,64.68,306.45,62.82,309.15,65.14Z"/><path d="M333.11,171.13a52.63,52.63,0,0,1-7.69,39.14c.52-3.29,2.13-6.4.9-10-.52-1.52.54-3.17,1.88-4.31.95-.79,2.45-1.41,1-3,.17-1.59-.53-3.37.92-4.67,3.12-2.8,3.3-5.55.14-8.49-.87-.81-1.29-2.3-.29-3.14,3.12-2.61,1.12-5.73,1.14-8.65l.6-.26C333.39,168.4,332.21,170.2,333.11,171.13Z"/><path d="M320.12,90.17c6.05,12.25,5.47,20.85-1.92,28.8,1-2.92,1-5.84,3.4-8.66,4.34-5.07.84-15.87-5.28-18.78a9.61,9.61,0,0,1-4.73-4.92c-2.29-6.17-7.55-7.24-12.76-8.71a6.17,6.17,0,0,1-1.58-1.08l5.57.34C310.76,78.61,315.53,84.26,320.12,90.17Z"/><path d="M152.19,22c-.55-2.53-1.95-.86-2.95-.53-3.38,1.13-4.67,0-4-3.47.74-1.3.91-2.88,2-4h0c1.3-2.51,4-3.35,6-5l8-2,.21.65c-1.29,2.2-4,3-5.26,5.17-.61,1.15-1.18,2.33-1.86,3.45-1.1,1.82-1.73,3.68-.2,5.51,1.68,2,3.3.16,4.94-.24C157.08,26.27,154.57,23.25,152.19,22Z"/><path d="M119.41,65.13c-.56,4.48-3,8.14-5.72,11.41A115.33,115.33,0,0,1,90.35,97.29c.87-3,.76-6.93,5.66-6.49.29,0,.84-.19.87-.37,1-6.29,8.16-5.42,11.2-9.61,2.92-4,4.72-8.55,7-12.84C116.21,65.81,117.16,64.89,119.41,65.13Z"/><path d="M866.37,173.85c2.27,7.82,3.41,15.91,5.87,23.7,5.24,16.57,13.82,30.91,27.12,42.26-1.65,1.65-3.09.51-4.25-.57-3-2.78-6.23-5.34-7.91-9.24a75.18,75.18,0,0,0-8-11,19.69,19.69,0,0,1-5-11c0-1.11.07-2.25-1-3-2.83-1.92-1.2-6.07-4-8a5.7,5.7,0,0,0,.33-4.69c-1.29-5.06-2.28-10.2-3.39-15.31a2.16,2.16,0,0,1-.64-2.29A1.63,1.63,0,0,1,866.37,173.85Z"/><path d="M346.32,154.1a2.41,2.41,0,0,1-.12.92c-2.54.94-5.18,1.66-7.34,3.42-1.65,1-3.24,2.14-3.91,4.12-1.17,1.85-2.59,3.53-3.72,5.41l-.12.08c-5.46-4-1.89-7.86.4-11.46C334.89,151.3,342.66,150.14,346.32,154.1Z"/><path d="M290.2,77c-5.76.15-11.59-.2-17.05,2.21-1.45.63-2.9,1-3.91-.63a3.57,3.57,0,0,1,.48-4.18,22.43,22.43,0,0,1,9.91-7.19A30.65,30.65,0,0,1,293.2,65c-2.05,1.8-4.74,1.19-7.1,1.71a27.22,27.22,0,0,0-11.43,5.6c-.89.72-2.26,1.4-1.85,2.64.55,1.67,2.34,1.18,3.45.88,3.75-1,7.54-.82,11.34-.8,1.31,0,2.68-.11,3.63,1.12.34.46.21.7-.35.75l-.37-.16Z"/><path d="M359.71,241.86c1.1-4.53,2.21-9.14,1.71-13.79-2.19-20.3.25-40.84-3.19-61.07,3.06,5.07,2.72,10.87,2.83,16.33.27,14,.57,28,1.9,42.06C363.48,230.85,363.35,236.88,359.71,241.86Z"/><path d="M492.07,195c-1.28,8.3-.82,16.66-.89,25-2.61.11-3.86-1-4-3.75a56,56,0,0,1,2.16-19.73C489.79,195.06,490.93,195.08,492.07,195Z"/><path d="M165.19,221l0,5a77.1,77.1,0,0,0,0,19l0,4c-3,.16-4.05-1.44-4-4.27.07-5.77.19-11.55-.05-17.32C161,224.12,162.07,222,165.19,221Z"/><path d="M10.31,180c-2.86,8.45-6.06,16.77-7.7,25.63A88.14,88.14,0,0,0,4.3,245c-3.11-3.59-3.64-8.24-3.93-12.5-1-15.41-.09-30.68,5.9-45.23C7.33,184.7,8.17,182,10.31,180Z"/><path d="M1353.2,174c.77,3.94-2,6.85-3,10.29s-2.9,6.64-3.21,10.38c-.17,2-1.75,3.11-3.8,3.33-1.72-1.55-1.43-3.48-1-5.43.32-1.23.23-2.57.88-3.72,2-2.92,2.67-6.43,4.08-9.61.33-.86.86-1.62,1.21-2.47a7.61,7.61,0,0,1,1.2-1.67C1350.64,174.34,1351.62,173.17,1353.2,174Z"/><path d="M593.27,21c-2,6.24-.45,12.48.18,18.67.66,6.61.57,13.23,1,19.83.22,3.31-.73,4.83-4.05,5.23a39.44,39.44,0,0,0-12.33,3.67c-3.58,1.7-5.19,4.06-2,7.61-2.34-.27-3-1.8-2.83-3.87a5.72,5.72,0,0,1,4.22-5,101,101,0,0,1,11.37-3.42c3.26-.73,4.38-2.13,4.49-5.67.36-11.77-2.71-23.29-2.13-35C590.92,21.33,591.56,20.61,593.27,21Z"/><path d="M1207.23,239c-1.3-8.67-.6-17.33,0-26,5.08,7.51,2.73,15.81,2.43,23.86A2.44,2.44,0,0,1,1207.23,239Z"/><path d="M774.38,187.77c5.38,9.86,6,20.19,2.79,30.8-.49,1.64-1.07,3.51-3,4.31.07-3.53,1.3-6.75,2.19-10.06,1.44-5.35,3.17-12.07-1.85-17.18C771.85,192.9,774.56,190.38,774.38,187.77Z"/><path d="M1046.13,216.19c-4.7-12-.12-22,7-31.34,1.6,3.93,1.28,7.15-3.24,8.86-.44.17-1.17.73-1.11.89,2.22,6.37-4.88,11.25-2.8,17.62C1046.39,213.43,1046.1,214.86,1046.13,216.19Z"/><path d="M208,123.93c1.91-22.94,3.65-45.88,1.09-68.89,1.85,4,1.85,8.27,2.05,12.44.77,15.86-.47,31.71-1,47.56C210,118,210,121.28,208,123.93Z"/><path d="M247.36,179.17c-3.3,5.69-7.22,11.05-8.92,17.57a44.25,44.25,0,0,0,4,33.12c-3.77-1.76-3.58-5.88-5.29-8.86a5.63,5.63,0,0,1-1.86-3.81c0-.71.29-1.4.27-2.11-.5-1.33-1.16-2.63-.39-4.08v-5c-.7-1.56.31-2.72.92-4,.35-2,.71-4,1.06-6-.56-1.29.27-2.13,1-3l7-13C245.69,179.12,246.22,178.36,247.36,179.17Z"/><path d="M398.19,245c3.07,7.52,6.64,8.87,16,6.08,0,3.57-2,5-5.35,4.92a21.19,21.19,0,0,1-9.66-3C396.48,251.48,394.21,248.19,398.19,245Z"/><path d="M483,62.42c-15.07-3.61-29.52-1.21-43.66,4.43-1.32.52-2.51,1.72-4.15,1.15,8-4.84,16.79-7.14,26-8.1,1.49-1.27,3-2.34,5-.9l17,2A1,1,0,0,1,483,62.42Z"/><path d="M1212.2,95c2.78-2.92,6.61-4.64,9-8,2.37-1.92,4.76-3.78,7.86-4.41.1,1.65.66,4.06-.87,4.62C1222.58,89.28,1219,95.5,1212.2,95Z"/><path d="M39.13,106.7c.2-3.86,1.57-5.64,4.61-5.64,2.61,0,3.43,2,3.31,4-.16,2.94-2.41,4.37-5,4.46A2.61,2.61,0,0,1,39.13,106.7Z"/><path d="M517.37,253.93a13.08,13.08,0,0,1,3.31.85c8.45,4.72,16.89,4.91,25.39.18,1,1.39-.68,2-.93,3a4.29,4.29,0,0,1-1,1c-2,1.3-4.36,1.23-6.52,1.94a6.22,6.22,0,0,0-3.93,0c-2.53-.6-5.24-.45-7.53-1.92C522.8,258.09,519.29,257.39,517.37,253.93Z"/><path d="M1425.06,249.62l.62-.75a8.21,8.21,0,0,0,2.91-3.17c2-3,2.27-5.72-1.39-7.7a3.08,3.08,0,0,1,4.15-1.71c2,.75,1.18,2.75,1.71,4.14,2.57,6.74-4.91,8.15-6.43,12.67-.34,1-2.3,1.25-3.43-.09C1423.65,251.79,1424.89,251,1425.06,249.62Z"/><path d="M43.31,135c-5.05,7.24-11.22,13.56-17,20.24,1-3.55-.4-8.59,5.71-8.91A1.9,1.9,0,0,0,33.42,145C33.5,138.45,40.29,138.58,43.31,135Z"/><path d="M992,249.92c6.75-5.6,11.22-12.45,11.61-21.46.22-4.94-1.72-6.54-6.42-5.55,2.39-4.17,4.7-1.07,7,.09,1.33,1.08,2.17,2.28,1,4,.09,4.59-1.34,8.83-3,13,.47,2.55-1.13,3.86-3,5a10.46,10.46,0,0,0-4,4C994.39,250.25,993.49,251.17,992,249.92Z"/><path d="M92.18.91C79.46.89,66.73.9,54,.83a84,84,0,0,0-15.76,1.3A7.82,7.82,0,0,1,44.14,0c15.1,0,30.2,0,45.3,0A3.57,3.57,0,0,1,92.18.91Z"/><path d="M1343,191.68c0,2.11.1,4.21.16,6.32-3.07,9.67-4,19.33,0,29,.43,2.37,3.5,4.38,1,7.16a1.35,1.35,0,0,1-1.55-.94c-2.59-8.2-5.6-16.28-3.73-25.2.73-3.53.75-7.24,1.45-10.79C1340.76,195.3,1340.7,192.82,1343,191.68Z"/><path d="M1400.31,132.26c3-5.28,8.33-8.42,11.76-13.38,3.64-5.25,6.69-10.63,8.12-16.88a1,1,0,0,1,1.39.09c1.6,2.32.23,4.51-.28,6.74-1.3,2.64-2.17,5.6-5,7.17l-1.23,1.55c-.45,1.86-1.83,3.06-3.1,4.33l.08-.1a27.55,27.55,0,0,1-9.15,9.1c-.27.23-.55.45-.83.67C1401.79,132.57,1401.09,132.52,1400.31,132.26Z"/><path d="M121.2,46.07c2.52,6.68.38,12.91-1.83,19.14.38-4,.64-7.76-1.65-11.57C115.59,50.12,119.71,48.48,121.2,46.07Z"/><path d="M291.59,143.13l-23.13,16a1.77,1.77,0,0,1-2.26-.1c0-1.55.07-3.43,1.85-3.67,7.55-1,12.33-6.91,18.53-10.28C288.19,144.17,289.63,143,291.59,143.13Z"/><path d="M1416.28,116c.59-2.66,2.15-4.84,3.52-7.11,2.64-2,.93-5.84,3.42-7.89a3,3,0,0,1,1.83,3.67,88.06,88.06,0,0,1-2.63,8.41C1421.36,115.92,1418.92,116.25,1416.28,116Z"/><path d="M1266.2,63c4.77-.8,5.36,3.2,7,6,1.31,2.21.72,4.11-.66,5.88s-3.12,3-5.39,1.15C1270.43,71.44,1267.5,67.28,1266.2,63Z"/><path d="M776.2,90c2.31,1,2.34,3.33,2.95,5.3.68,2.2,1.18,4.46,2,6.6.75,1.95,2.14,3.33,4.47,3.26a4.2,4.2,0,0,0,4-3.17c.95-2.78,1.68-5.64,2.5-8.46.28,8.58-1.21,11.5-6.89,13.44-3.18,1.52-4-.82-5-3Q778.19,97,776.2,90Z"/><path d="M389.52,61.15c-2-2-1.72-4.21-.44-6.3,1.47-2.4,4-1.92,6.31-1.76S398.23,55,398.2,57c-2,2.12-5.9.8-7.37,4A1.6,1.6,0,0,1,389.52,61.15Z"/><path d="M1115,73.3C1105,66,1093.62,62.87,1081.26,63.19c2.36-2.32,5.3-.71,7.94-1.19,2.32-1.62,4.1,0,6,1h2c2.24-.07,4.4.13,6,2C1107.26,67.6,1112.56,68.42,1115,73.3Z"/><path d="M389.52,61.15a.5.5,0,0,0,.68-.12c3.63-5.22,8.5-2.33,13-2l-.05,0c.31.1.46.26.43.47s-.09.35-.17.35c-4,.16-7.52,1.8-11.05,3.51-2.61,1.26-1.26,2.21-.1,3.36-1.39-.81-2.68,2.4-3.71.41S388.16,63,389.52,61.15Z"/><path d="M610,147.92c1.74-12.12,1.85-24.43,4.13-36.49.58,11.95-1.47,23.67-3.17,35.41C610.88,147.24,610.3,147.56,610,147.92Z"/><path d="M1185.3,66.71c-3.47-2.28-7.14-3-10.35.09-2.47,2.43-1,6.67,2.89,10.32,1.26,1.18,3.29,1.73,3.47,3.89-4.8-2.43-8.72-5.31-8.2-11.66.31-3.73,1.87-5.41,5.58-5.38,4.37,0,8.53.48,11.37,4.41A6.56,6.56,0,0,1,1185.3,66.71Z"/><path d="M603.16,224.11c-2.89-8.17-2-16.6-1.49-25,.2-3.06,0-6.29,1.34-9.22a52,52,0,0,1-.44,13.59C601.24,210.41,603.76,217.22,603.16,224.11Z"/><path d="M887.2,230c2.54,2.38,5.08,4.78,7.64,7.14,1.31,1.2,2.32,3,4.52,2.67v0c.46.47.41.87-.16,1.2-.92.29-1.9.93-2.75.79C893.29,241.26,887.28,233.44,887.2,230Z"/><path d="M428.07,154c.78-14.32.09-28.64.14-43,.11.13.31.24.32.37,1.23,14,.86,27.92.2,41.88C428.72,153.5,428.3,153.72,428.07,154Z"/><path d="M75.3,108.09c-3.58,2.81-6.81,6.11-11.1,7.92C64.41,110.33,70.08,106.29,75.3,108.09Z"/><path d="M143.94,70.9c2.56-9.81,3.72-19.7,2-29.78,2.57,3,2.56,6.73,2.22,10.29C147.51,58.05,147.88,65,143.94,70.9Z"/><path d="M12.37,37.05a110.05,110.05,0,0,0,.93,37.88c-2.65.42-1.38-2-2.1-2.93-1.37-8.83-1-17.72-1-26.6C10.2,42.44,10.45,39.52,12.37,37.05Z"/><path d="M1266.2,63c5.34,6.77,5.51,9,1,13.07l-1-.06-.21-.65c3.37-5.82,3.08-6.8-3.73-12.44-4.29-2.83-9.29-2.29-14-3,1.44-1.5,3.31-.76,5-1,2-1.28,3.52-.41,5,.92l4,1.08c1.31-.57,2.14.26,3,1C1265.53,62.33,1265.86,62.67,1266.2,63Z"/><path d="M1396.09,63.26c-11.63-4.19-23.7-4.8-35.88-4.37C1372.53,57.35,1384.77,56.51,1396.09,63.26Z"/><path d="M90.19,18c11.08,1.09,19.08,7,25,16.05-5-4-9.36-8.73-15.12-11.9C96.89,20.33,93.22,20,90.19,18Z"/><path d="M718.27,250.82a75.21,75.21,0,0,0,29.89,3.06c-6.93,3.46-14,1-21.06.56a29.22,29.22,0,0,1-2.91-.44c-1.5.35-2.7-.52-4-1Z"/><path d="M420.89,245.87l.39-3.87c.42-9.25.82-18.51,1.26-27.76.09-1.8-.3-3.66.56-5.38,0,9.91.13,19.83,0,29.75C423.13,241.17,422.94,243.85,420.89,245.87Z"/><path d="M939.07,237.37c-8.82-3.47-17.37-7.41-24.21-14.24,5.64,1.86,9.66,6.48,15.06,8.86C933.12,233.4,936.81,234.26,939.07,237.37Z"/><path d="M689.19,117a47.76,47.76,0,0,0,5,14C689,129.7,685.9,121,689.19,117Z"/><path d="M995,64.93c2.84-1.93,2.71-4.3,1.62-7.3-1.8-5-5-8.77-8.59-12.45,1.49-1.41,2.34-.37,3.15.82.66.67,1.33,1.33,2,2,1.84,1.16,3.5,2.43,3,5l1,1a6,6,0,0,1,2,5C999.33,62.05,998.74,64.6,995,64.93Z"/><path d="M257.19,168.08l-2,1.92a8.62,8.62,0,0,0-3,3l-1.87,2c-.66.46-1,1.68-2.13,1,.48-5.67,5.78-11,10-10C258.86,167.17,257.67,167.46,257.19,168.08Z"/><path d="M793.94,222.91c3.37-10.51,2.89-21.12.82-31.78,2.21,1,1.59,3.23,1.82,4.83a67.83,67.83,0,0,1-.65,24.23A3.55,3.55,0,0,1,793.94,222.91Z"/><path d="M1407.31,69.71c-3.15-3.28-7.68-4.15-11.35-6.51,6.34.54,11.12,4.19,15.85,7.93,1.52,1.21,2.93,2.58,4.39,3.87.91.67,1.9,1.3,1.42,2.7a1.24,1.24,0,0,1-1.1.6C1413,75.88,1410.46,72.48,1407.31,69.71Z"/><path d="M292.2,63l-13,2C281.74,60.5,289,59.38,292.2,63Z"/><path d="M1352.23,147.16c-.7,1.39-1.58,2.55-3.3,2.71-2.56.66-5.13,1.12-7.73.16l-2.8-.1a.58.58,0,0,1-.48-.75,64.88,64.88,0,0,0,6.84-.65c4.71-.92,5.18-2.39,2.22-6.2l-1.79-2.32C1349.65,139.78,1351.34,141.49,1352.23,147.16Z"/><path d="M348.2,252c-3.69,3-7.84,2-10-2.75a21.94,21.94,0,0,1-1-4.25c1.6-.72,2.22,1,3.37,1.36a12.11,12.11,0,0,1,1.32,1.36,4.13,4.13,0,0,0,2.67,2.26,9.18,9.18,0,0,1,1.17.32A4.47,4.47,0,0,1,348.2,252Z"/><path d="M166.2,19.12l3-.05c3,1.43,6.13,2.77,6,6.93C171.75,26.19,167.12,22.65,166.2,19.12Z"/><path d="M874.2,208a30.6,30.6,0,0,1,5,11C875.38,218.77,872.67,212.81,874.2,208Z"/><path d="M1427.2,238c1.76.36,4.07.71,3.79,2.91-.42,3.36-1.51,6.67-5.31,8a46.77,46.77,0,0,0,2.88-4.53c1.13-2.29,1.76-3.88-2.24-4.37-2.61-.32-5.06-2.6-8.14-1.88C1421.16,235,1424.2,238.6,1427.2,238Z"/><path d="M1145.8,242.89c2.86-1.89,1.79-5.47,3.4-7.89,4.16,2,.57,4.89.54,7.21,0,2.79-2.74,3.82-5.5,3.79Z"/><path d="M1187.34,207.05q0,15.48-.08,31c-1.49-1.28-1-3-1.06-4.63q0-10.87,0-21.76C1186.22,210,1185.73,208.26,1187.34,207.05Z"/><path d="M941.27,259.78a165.25,165.25,0,0,0,29.92-.76C961.29,262,951.3,261.86,941.27,259.78Z"/><path d="M1372,152.81c5.11-4,9.68-8.72,16-10.86L1374.19,153a2,2,0,0,1-1.49.53A1,1,0,0,1,1372,152.81Z"/><path d="M274.2,81c4.73-2.34,10-1.77,15-3A13.84,13.84,0,0,1,274.2,81Z"/><path d="M520.16,139c.38-10,.52-20-.06-30,1.52,1.26,1.08,3,1.09,4.61q.06,10.38,0,20.76C521.18,136,521.62,137.71,520.16,139Z"/><path d="M303.1,135.76l-1.78.49c2.51-6.65,10-8.1,13.93-13.26C312.86,128.83,306.88,131.24,303.1,135.76Z"/><path d="M1344,234.34c.7-2.56-.91-4.85-.83-7.34,3.43,3.65,6.34,7.51,5,13-1.93-.33-2.48-2.28-3.84-3.28C1343.81,236,1343.38,235.24,1344,234.34Z"/><path d="M1137.2,250a5.11,5.11,0,0,1,3.45-.14c1.5,0,2.3-1.42,3.59-1.85,2.07.4,2.24,1.83,1.56,3.37-.84,1.87-2.7,1.58-4.34,1.63C1139.28,253.06,1137.45,252.65,1137.2,250Z"/><path d="M689.17,108v8c-2.51.09-4.09-.88-3.93-3.62C685.39,109.93,686.1,107.88,689.17,108Z"/><path d="M728.06,226.41c-6.41-3.33-10.22-9.43-15.19-14.29.64.1,1.51,0,1.87.35C719.22,217.07,723.63,221.75,728.06,226.41Z"/><path d="M175.2,26c-1.08-3.1-3.52-5-6-6.93l2.66.1c3.9,4.47,8.12,8.74,9.46,14.84C177.9,32.4,178.49,27.71,175.2,26Z"/><path d="M166.19,210l-1,10C160.6,216,160.89,213,166.19,210Z"/><path d="M595.2,253.08c8.26,2.12,16.55,2.92,24.91.59.51,2-.6,1.84-1.89,1.47C610.4,256.12,602.51,257.85,595.2,253.08Z"/><path d="M422.59,76.17c-.54,1.06-1.42.63-2.23.49-2.49-5.94-7-10.27-11.59-14.51,4.61.68,6.48,4.73,9.27,7.62C419.86,71.66,420.38,74.52,422.59,76.17Z"/><path d="M577.38,222.83c.88,7.54,3.76,14.41,7,21.18-1.22.72-1.57-.37-2.14-1-1.8-5.65-5.22-10.8-5.18-17a2.14,2.14,0,0,1,.1-3Z"/><path d="M1129.07,113.58c0-1.29-.39-2.63.69-3.71,1.11-.13.74-1.46,1.51-1.87,2.86,3.74,2,7.45-2.07,9C1128.37,115.89,1128.7,114.74,1129.07,113.58Z"/><path d="M1423.22,101c-1.23,2.59-.27,6.13-3.42,7.89.56-2.27,1.88-4.36,1.61-6.83-.36-5.2-.05-10.42-.71-15.6l.61-.57C1424.37,90.62,1422.81,95.93,1423.22,101Z"/><path d="M198.14,24.08a85.14,85.14,0,0,0-11.23-12.83C193,13.49,197,17.56,198.14,24.08Z"/><path d="M167.2,200c-.34,3-.67,6-1,9C161.69,205.06,161.92,203,167.2,200Z"/><path d="M492.11,223l3.06,9C490,230.76,488.78,227.27,492.11,223Z"/><path d="M691.19,219l2,10C689.18,227.44,688.23,222.69,691.19,219Z"/><path d="M1206.2,258c1.42-2.86,2.88-5.71,3-9C1212.85,253.49,1211.77,256.73,1206.2,258Z"/><path d="M38.11,67.13a68,68,0,0,1,0-24.3Z"/><path d="M900.14,92.85c-.16-1.62.78-2.8,1.63-4,.54-.55,1-.49,1.43.16,1.81,3.54,1.55,6.19-3,7A2.72,2.72,0,0,1,900.14,92.85Z"/><path d="M909.2,247.06l16.17,7.81C919.21,253.85,914,250.87,909.2,247.06Z"/><path d="M403.18,59.06a18.19,18.19,0,0,0-13,2c.57-5.49,4.8-3.74,8-4C399.41,58.77,402,57.19,403.18,59.06Z"/><path d="M864.27,135.55a2.4,2.4,0,0,1,0,2.44c-.72.48-.31,1.55-1.06,2-2-.2-3.07-1.28-2.87-3.26s1-3.86,3.65-3.74C865,133.73,864.58,134.64,864.27,135.55Z"/><path d="M593.27,21a3.62,3.62,0,0,0-2.08,2c-1.5-2.38-1.79-4.67,1.33-5.77,2.19-.78,3.82.08,3.68,2.81Z"/><path d="M317.41,223.1c-3.08,4.79-6.71,9-12.23,11.05C309.3,230.52,312.81,226.2,317.41,223.1Z"/><path d="M340.26,247l-3.06-2a11.43,11.43,0,0,0-3-6c-1.32-1.1-1.25-2.63-1.29-4.12,1-1.71,1.81-1.8,2.31.35a26.29,26.29,0,0,0,4.67,9.91C340.94,245.58,340.73,246.26,340.26,247Z"/><path d="M442,82.86a43,43,0,0,1,17.15-5.92A71.39,71.39,0,0,1,442,82.86Z"/><path d="M348.2,252c-1.09-.05-2.27.14-2.81-1.19,4.26-2.32,9.21-3.31,12.85-6.79l.85-.29c-.37,3.68-3,5.28-6.11,6.05A17.13,17.13,0,0,0,348.2,252Z"/><path d="M137.09,24.15,126,13.07A21.27,21.27,0,0,1,137.09,24.15Z"/><path d="M398.38,70.85c-.4,2.91,2.61,4.48,2.81,7.15-3.13-1.75-6.38-3.43-5-8,1.14-.7,1.47.61,2.22.89Z"/><path d="M277.18,253.87c6.34.9,12.69.57,19.05.23-.8,1-2,.89-3,1-1.5,1.25-3.05,2.13-5,.92A25.46,25.46,0,0,1,277.18,253.87Z"/><path d="M1059.71,178.84c.93-3.31,4-4.49,6.35-6.35C1065.2,175.87,1065.24,180.14,1059.71,178.84Z"/><path d="M245.36,233.86c3.15,3.93,7.67,6.58,10.31,11-4.47-1.79-6.45-6.53-10.47-8.86A1.48,1.48,0,0,1,245.36,233.86Z"/><path d="M322.5,215.17a26.21,26.21,0,0,1-5.15,8C314.28,217.44,320.11,217.41,322.5,215.17Z"/><path d="M1149.2,217a20.86,20.86,0,0,1-1-8C1152.07,211.23,1152.31,213.17,1149.2,217Z"/><path d="M863.17,140l1.06-2,0,20c-1.81.12-1.73-.8-1.09-2Q863.18,148,863.17,140Z"/><path d="M1129,154c-6.74,2.44-7.62,3.69-7.71,11C1118.6,158.36,1121.61,154.06,1129,154Z"/><path d="M1071.17,252.83l16,.23A20.48,20.48,0,0,1,1071.17,252.83Z"/><path d="M1193.27,119.89a65.43,65.43,0,0,1,0,19.56Z"/><path d="M1363.19,267l17.86.86c.33,1.86-.57,1.81-1.85,1.19C1373.79,268.9,1368.28,269.58,1363.19,267Z"/><path d="M765.2,177c5,2,7.4,6.19,9.25,10.87Q769.82,182.45,765.2,177Z"/><path d="M257.19,168.08c.34-.69.67-1.39,1-2.08a6.6,6.6,0,0,0,3-3c.94-2.24,3.15-2.89,5-4l2.26.1C265,162.45,261.55,165.85,257.19,168.08Z"/><path d="M64.62,18a78.15,78.15,0,0,1,19.15,0Z"/><path d="M404.18,85a26.4,26.4,0,0,1,2,8C403.22,90.9,400.8,88.67,404.18,85Z"/><path d="M780.2,104c1.81.76,2.71,3,5,3-.59,2.57-2.52,2.39-4.11,1.56C779.22,107.6,779.14,105.79,780.2,104Z"/><path d="M58.14,121c-2.84,3.55-5.88,6.89-10,9.1C51.13,126.66,53.64,122.74,58.14,121Z"/><path d="M188.38,257.08l1.68-.5c-.11.3-.14.82-.33.88-4.7,1.65-9.32,3.75-14.51,2.55l.13-.2C179.31,257.08,184,257.91,188.38,257.08Z"/><path d="M1028.27,197a119.12,119.12,0,0,0,0,18A31.16,31.16,0,0,1,1028.27,197Z"/><path d="M1188.29,190c-.48,5.7.14,11.46-1,17.11C1187.7,201.44,1185.89,195.62,1188.29,190Z"/><path d="M615.29,100c0-3.58.21-7.16.05-10.73s1.23-4,4-2.36c-.47,1.52-2.25,1.8-2.95,3.1C615.67,93.29,617.16,96.82,615.29,100Z"/><path d="M1211.43,76.19l-7.27,7.71c-2.11.43-2.39-.89-2.38-2.49l.51-.51c2,1.4,2.83-.55,4-1.49C1207.87,78.12,1208.86,75.89,1211.43,76.19Z"/><path d="M778,242.55a15.12,15.12,0,0,1,5.07-3.83C782.92,244.12,782.06,244.76,778,242.55Z"/><path d="M1113,240.92l9-9.15a1.12,1.12,0,0,1,.79.73,1.48,1.48,0,0,1-.56,1.5C1118.66,235.69,1117.38,240.38,1113,240.92Z"/><path d="M997.09,223c-3.13,2.78-4.93,6.89-8.9,8.82A18.43,18.43,0,0,1,997.09,223Z"/><path d="M1415.34,239.05l-13.13,4.79C1405.88,240.3,1410.51,239.42,1415.34,239.05Z"/><path d="M1402.88,130.88l9.15-9.1A14,14,0,0,1,1402.88,130.88Z"/><path d="M483,62.42,483.2,61c3.55-2.16,5.12-1,5,3l-5.1-1A3.1,3.1,0,0,1,483,62.42Z"/><path d="M786.13,171.18l-9.25-9.07A14.59,14.59,0,0,1,786.13,171.18Z"/><path d="M1322.22,204q.06,8.48.11,17A28.13,28.13,0,0,1,1322.22,204Z"/><path d="M703.2,143l2.31-.13c1.49.71,3,1.42,3.6,3.13a26.43,26.43,0,0,1-4.37-.14C703.31,145.59,701.62,145.07,703.2,143Z"/><path d="M869.2,197c3.23,1.72,3.39,5,4,8-2,.09-3.11-.69-3-2.82A9,9,0,0,0,869.2,197Z"/><path d="M793.09,184.29l-6.37-12.14C790.86,175.14,792.47,179.45,793.09,184.29Z"/><path d="M1378.65,252.11c-5.55,1.33-11.1,1.69-16.64-.05Z"/><path d="M618.22,255.14c.85-.21,1.63-.5,1.89-1.47.73-1.17,2-.53,3-.94-.09,1.52.72,3.48-1.5,4.09C620.15,257.22,618.61,257.17,618.22,255.14Z"/><path d="M187,11.32a36.24,36.24,0,0,0-13-4.21C178.85,7,183.9,6.15,187,11.32Z"/><path d="M864.33,158.7l2,15.15-.25.19c-1.58-.09-1.63-.89-1-2q-.6-5.5-1.19-11A1.69,1.69,0,0,1,864.33,158.7Z"/><path d="M1122.75,81.14l-.67-.81a1.88,1.88,0,0,1,.12-2.33c5-1.26,3.77,2.45,4,5C1124.32,83.73,1124.08,81.42,1122.75,81.14Z"/><path d="M1358.19,251c-2.45-.06-3.88-2.14-5.93-3a5.71,5.71,0,0,1-2.93-3.14l.05.07a1.21,1.21,0,0,1-.57-1.59l.48-.41Z"/><path d="M1149.22,230q0-3,0-6c2,.19,3,1.25,2.9,3.24C1152,229,1150.9,229.84,1149.22,230Z"/><path d="M945,56.89a24.69,24.69,0,0,1,15.4.89Z"/><path d="M1141.05,158.44c-2.91-3.21-5.7-6.67-10.84-5.53C1135.92,151.05,1139.37,152.81,1141.05,158.44Z"/><path d="M168.19,256c1.11,2,3.36,2.65,5,4a3.14,3.14,0,0,1-4.49.26C167.48,259.22,166.48,257.64,168.19,256Z"/><path d="M892.94,112.9a34.74,34.74,0,0,1,4.18-13.12C896.25,104.32,895.72,109,892.94,112.9Z"/><path d="M546.2,258a4.3,4.3,0,0,1-2.72,4.68c-1.38.56-2.1-.32-2.28-1.67.27-1.68,2.2-1.93,2.84-3.29l-.09.08A2,2,0,0,1,546.2,258Z"/><path d="M1196.19,74l-2-2c-.89-.85-2.29-1.28-2.33-2.82,4,.56,6,3.39,7.45,6.78l-.62.3C1197.4,76,1196.9,74.89,1196.19,74Z"/><path d="M909.69,75.85c2.29-3.22,4.75-6.26,8.42-8C915.89,71.11,913.42,74.14,909.69,75.85Z"/><path d="M918,67.88c2.9-2.8,6.47-4.52,10.05-6.2C925.62,65.19,922.12,67,918,67.88Z"/><path d="M325.45,210.23a9.84,9.84,0,0,1-3,5C322.17,212.83,318.73,208.49,325.45,210.23Z"/><path d="M910.94,219.29a23.88,23.88,0,0,1-6.91-9.21C907.23,212.47,910,215.23,910.94,219.29Z"/><path d="M1103.2,65a9.7,9.7,0,0,1-6-2C1099.84,61.74,1102.57,60.22,1103.2,65Z"/><path d="M465,75.89a26.62,26.62,0,0,1,15.39,0Z"/><path d="M711.12,119.22c-2.4-4.32-2.45-8.82-1-13.42Z"/><path d="M1212.2,113a7.79,7.79,0,0,1-.92-5c1.3,0,2.63.09,2.83,1.81C1214.28,111.34,1214.15,112.72,1212.2,113Z"/><path d="M967.43,240.08a34.46,34.46,0,0,1-14.65,0Z"/><path d="M267.18,78a6.52,6.52,0,0,0,4,4c-.31,2.11-1.59,2-2.8,1C266.85,81.69,265.29,80.22,267.18,78Z"/><path d="M19,166.69,17.2,167.9c0-2.71,2.74-4.28,3-6.9.89-.9,1.1-3,3.19-1.79Z"/><path d="M1242.2,77.05c1.13-.55,2-1.72,3.54-1.19a.93.93,0,0,1,1.46.3C1246.23,80.38,1244.42,79.89,1242.2,77.05Z"/><path d="M1095.19,63l-6-1C1091.93,57.89,1093.61,60.16,1095.19,63Z"/><path d="M741.39,60.15l-12.11,3.06C732.77,60,737,59.83,741.39,60.15Z"/><path d="M11.2,72l2.1,2.93,0-.05A4.45,4.45,0,0,1,13.19,79Q8.6,76.52,11.2,72Z"/><path d="M1208.31,188a7.51,7.51,0,0,1,.89-5c1.94.27,2.08,1.65,1.91,3.17C1210.93,187.89,1209.61,188,1208.31,188Z"/><path d="M431.78,87.86,442.1,82.8A12.81,12.81,0,0,1,431.78,87.86Z"/><path d="M1396.1,136.77a2.12,2.12,0,0,1,1.81-1.88c1.13-.17,1.94-1.53,3.29-.89C1401,137.63,1399.65,139.24,1396.1,136.77Z"/><path d="M1146.2,168c-1.16-.67-.85-2.59-2.44-2.89-.86-.52-.75-1.31-.6-2.11C1150,161.12,1146.08,165.79,1146.2,168Z"/><path d="M1122,231.77c.19-1,.6-2,1.63-2.11s.88,1.17,1.07,1.84c.62,2.15,1.1,4.34,1.64,6.51l-2.12-3a11.29,11.29,0,0,1-1.85-2.79Z"/><path d="M1210.34,167a7.27,7.27,0,0,1,.86-5c1.93.27,2.07,1.63,1.92,3.15C1212.94,166.87,1211.65,167,1210.34,167Z"/><path d="M870.33,100.05q-1.49,6.08-3,12.16A19,19,0,0,1,870.33,100.05Z"/><path d="M992,249.92l3.23-.92c-.23,3.69-1.6,5.23-5.13,2.73A2.2,2.2,0,0,1,992,249.92Z"/><path d="M1213.2,122a7.45,7.45,0,0,1-.88-5c1.31,0,2.61.12,2.8,1.83C1215.28,120.35,1215.13,121.73,1213.2,122Z"/><path d="M1363.2,163c-.35,4.41-.42,4.48-4,4-.78-1.31-.08-2.31.69-3.3C1360.87,162.91,1361.88,162.23,1363.2,163Z"/><path d="M1209.33,178l.87-5c1.93.27,2.08,1.64,1.92,3.16C1211.94,177.87,1210.64,178,1209.33,178Z"/><path d="M1191.81,69.19c.5,1.17,2.37,1.2,2.33,2.82-3.15-1.42-6.41-2.67-8.84-5.3l4.76,1.67A1.55,1.55,0,0,0,1191.81,69.19Z"/><path d="M943.2,31.84c0-1.31.13-2.6,1.85-2.77,1.51-.15,2.88,0,3.15,1.93-.46.7-1.57.32-1.94,1.17l.1-.05C945.26,32.53,944.17,32.85,943.2,31.84Z"/><path d="M756.2,60.84l-3-.87c-.5-.65-1.53-.25-2-1,.74-1.45,1.92-2.25,3.54-1.8C756.67,57.73,756,59.48,756.2,60.84Z"/><path d="M466.2,59l-5,.9c0-1.3.1-2.62,1.82-2.82C464.54,56.91,465.92,57.05,466.2,59Z"/><path d="M1122.2,78l-.12,2.33-7.15-7.12C1118.56,73,1119.44,76.92,1122.2,78Z"/><path d="M999.2,245q1.5-2.5,3-5C1004.34,243.56,1003.18,245.13,999.2,245Z"/><path d="M974.36,63.68l11.39,3.25C981.63,67,977.31,67.73,974.36,63.68Z"/><path d="M903.12,243l2.15,1.8c-3.55,2.45-4.85.81-5.07-2.8C901.51,241.34,902.2,242.52,903.12,243Z"/><path d="M999.2,59a5.9,5.9,0,0,1-2-5C1001.26,54.31,1000.59,56.51,999.2,59Z"/><path d="M991.2,46l-3.15-.82,0,0c-.49-1.15-2.61-1.34-1.89-3.21C989.09,41.8,991.78,41.86,991.2,46Z"/><path d="M1211.32,157c.3-1.67.59-3.34.88-5,1.93.27,2.08,1.64,1.92,3.16C1213.93,156.88,1212.63,157,1211.32,157Z"/><path d="M1131.27,108c-.16.9-.48,1.67-1.51,1.87.91-4.24.3-8.52.34-12.79l.63-.27c1.09.49,1.21,1.23.53,2.16C1131.26,102,1131.27,105,1131.27,108Z"/><path d="M423.05,209a48.53,48.53,0,0,1,1.06-12.08C423.73,200.89,425.42,205.1,423.05,209Z"/><path d="M260.13,213.2a19.16,19.16,0,0,1-.05-12.62Q260.11,206.9,260.13,213.2Z"/><path d="M577.12,223c0,1-.07,2-.1,3-4.53-.94-3.29-2.86-.84-5C576.49,221.68,576.8,222.36,577.12,223Z"/><path d="M582.2,243l2.14,1c.28.35.57.69.86,1,.47.94,1.65,1.64,1,3C582.49,248.23,582,245.87,582.2,243Z"/><path d="M590.08,250l2.12,2c-3.62,2.26-4.81.47-5-3C588.51,248.33,589.18,249.51,590.08,250Z"/><path d="M930.07,257l2.13,1c-2.26,2.58-4.22,3.67-5-1A2.19,2.19,0,0,1,930.07,257Z"/><path d="M1360.33,164.15c-.38.95-.76,1.9-1.13,2.85-2.11.86-3,3.48-5.45,3.83a1.24,1.24,0,0,1,.64-1.68l0,0a11.7,11.7,0,0,1,5.38-5.45Z"/><path d="M174.11,7.15,171.2,7c-.49-.7-1.55-.28-2-1C171.55,3.4,173.56,2.24,174.11,7.15Z"/><path d="M996.2,53l-3-5C996.66,48.18,998.34,49.44,996.2,53Z"/><path d="M1258.2,59.91l-5-.92C1255.39,56.46,1257.33,55.31,1258.2,59.91Z"/><path d="M751.2,59l2,1-11.92.23C744.33,57.74,747.91,59.55,751.2,59Z"/><path d="M1074.57,64.12l-9.24,4.12C1067.47,64.76,1070.75,63.85,1074.57,64.12Z"/><path d="M319.06,68.39l-10-3.28C312.81,64.9,316.44,65.13,319.06,68.39Z"/><path d="M433.67,69.14c-2.74,1.76-5.19,4-8.47,4.85A10.74,10.74,0,0,1,433.67,69.14Z"/><path d="M1417.26,78c-.35-1-.71-2-1.06-3,3.48.17,5.1,1.46,3,5A2,2,0,0,1,1417.26,78Z"/><path d="M878.29,80a25.88,25.88,0,0,1-3.93,9.21C874.21,85.51,876.1,82.68,878.29,80Z"/><path d="M616.36,90c-.46-2.41.92-3.07,2.95-3.1l-.07,0c.4.82,1.51.4,2,1.13C620.2,90.18,618.26,90,616.36,90Z"/><path d="M1130.1,97.08q-1.61-5-3.2-9.94c2.63,1.54,2.4,4.51,3.4,6.86a2.15,2.15,0,0,1,0,3Z"/><path d="M1130.27,97c0-1,0-2,0-3,4.55.84,3.46,2.77,1,5Z"/><path d="M500.13,101c.33,1.65.66,3.31,1,5C496.55,105.17,497.63,103.24,500.13,101Z"/><path d="M1313.27,107v12A14.57,14.57,0,0,1,1313.27,107Z"/><path d="M890.31,135l.9-5c1.94.28,2.07,1.66,1.9,3.18C892.92,134.89,891.61,135,890.31,135Z"/><path d="M502,133c.49,1.8-.71,3.3-.84,5C498.73,135.87,497.49,134,502,133Z"/><path d="M501.06,143c.43,1.79-.73,3.3-.9,5C497.69,145.82,496.51,143.9,501.06,143Z"/><path d="M1365.11,157.91a23.57,23.57,0,0,1,6.91-5.1l.43.47c-.1,1.6-1.31,2.12-2.54,2.61l-2.89,2.05A1.16,1.16,0,0,1,1365.11,157.91Z"/><path d="M427.1,166c.13-4,0-8.12,1-12.09C427.75,157.9,429.37,162.1,427.1,166Z"/><path d="M23.39,159.21,20.2,161c-.18-2.87.29-5.23,4-5,.68,1.32-.74,2.1-.82,3.23Z"/><path d="M864.33,158.7c-.11.76-.23,1.53-.35,2.29-4.51-1-3.22-2.9-.79-5a2.23,2.23,0,0,0,1.09,2l.24.33Z"/><path d="M266.2,159c-1,2.15-3,3.05-5,4C261,159.29,263.32,158.82,266.2,159Z"/><path d="M496.13,172l-1,5C492.62,174.75,491.55,172.81,496.13,172Z"/><path d="M865.17,172l1,2c0,1,0,2,0,3C861.52,176.17,862.63,174.23,865.17,172Z"/><path d="M1207.36,197c-.48-1.79.73-3.3.84-5C1210.66,194.13,1211.91,196.05,1207.36,197Z"/><path d="M1379.2,269a1.86,1.86,0,0,0,1.85-1.19l0,0c1.1-.41,2.18-.68,3.18.24C1383.12,271.65,1381.47,272,1379.2,269Z"/><path d="M1391.2,267c-1,3.58-2.67,4-5,1,.43-.75,1.56-.35,1.94-1.18l-.1,0A2.88,2.88,0,0,1,1391.2,267Z"/><path d="M1321.19,139.19,1327,145A8.66,8.66,0,0,1,1321.19,139.19Z"/><path d="M1065.41,68.17l-6.1,6C1060,70.78,1061.93,68.69,1065.41,68.17Z"/><path d="M325.18,140l6-6.05A7.84,7.84,0,0,1,325.18,140Z"/><path d="M1053.4,246.91a5.81,5.81,0,0,1,4,2c-1.34.53-2.65,1.62-4.13.4C1052.27,248.5,1052.38,247.66,1053.4,246.91Z"/><path d="M330.06,75.39l-7.23-5.26A7.89,7.89,0,0,1,330.06,75.39Z"/><path d="M1417.26,78l2,2c.84,1.91,2.09,3.68,2.08,5.89l-.32.27c-2.78-2-3.84-4.75-4-8Z"/><path d="M489.93,80.11c.66,2,3.32,2.54,3.39,4.9a21.56,21.56,0,0,1-6.11-5.89C488.42,78.62,488.9,80.12,489.93,80.11Z"/><path d="M1335.19,252.18a22.26,22.26,0,0,1,5.91,5.82A8.47,8.47,0,0,1,1335.19,252.18Z"/><path d="M343.81,109.87a34.3,34.3,0,0,0,0-10.75A9.62,9.62,0,0,1,343.81,109.87Z"/><path d="M501.2,241a18.39,18.39,0,0,1,5.88,6A8.22,8.22,0,0,1,501.2,241Z"/><path d="M756.71,232.09a21.22,21.22,0,0,1-11.77,0Z"/><path d="M1192.39,149.07c-.17,3.71,0,7.45-1.1,11.07C1191.64,156.44,1190,152.56,1192.39,149.07Z"/><path d="M268.72,183.85a22,22,0,0,1,6.34-6.29A11.54,11.54,0,0,1,268.72,183.85Z"/><path d="M1123.29,172.7a21.87,21.87,0,0,1,0,11.44Z"/><path d="M425,185.93c.35-3.69,0-7.45,1.1-11.07C425.76,178.55,427.36,182.44,425,185.93Z"/><path d="M865.31,125.49l.17.28-.23.22c-.74.47-.32,1.56-1.09,2-2.93-2.23-2.63-3.89.87-5C865.93,123.74,865.61,124.61,865.31,125.49Z"/><path d="M424.07,197c0-3.74-.2-7.51,1-11.15C424.83,189.54,426.32,193.41,424.07,197Z"/><path d="M1329.24,175a28.73,28.73,0,0,1-3,9C1326.26,180.67,1326.86,177.53,1329.24,175Z"/><path d="M690.18,101a6.86,6.86,0,0,1-1,4c-1-.18-2-.52-1.78-1.8C687.61,101.63,688.79,101.15,690.18,101Z"/><path d="M1005.21,227c-.34-1.33-.67-2.66-1-4,1.33-.91,2.27,0,2.68,1C1007.5,225.43,1006.43,226.34,1005.21,227Z"/><path d="M356.1,161.26,352,155.09C355.78,155.51,356,158.34,356.1,161.26Z"/><path d="M1341.2,150c2.58,0,5.14-.94,7.73-.16-1.16.33-1.22,2.18-2.75,2C1344.88,150.28,1342.45,151.75,1341.2,150Z"/><path d="M1191.32,160c-.27,3.51.17,7.09-1,10.51C1190.67,167.06,1189,163.35,1191.32,160Z"/><path d="M1337.92,149.18a3,3,0,0,0,.48.75c-3.12.22-6.15.16-8.19-2.79C1332.91,147.36,1335.07,149.58,1337.92,149.18Z"/><path d="M332.91,234.88c1.61,1,1.2,2.64,1.29,4.12a3.3,3.3,0,0,1-3.12-2.26Z"/><path d="M1425.06,249.62a3.05,3.05,0,0,1-1.86,3.39c-1.43.67-2.48,2.21-4.35,1.87Z"/><path d="M202.1,31.26l-4-7.22A7.12,7.12,0,0,1,202.1,31.26Z"/><path d="M14.31,28a23.86,23.86,0,0,1-2,9.19A13.62,13.62,0,0,1,14.31,28Z"/><path d="M1075.78,75.89c3.62-1.33,7.23-.88,10.85,0Z"/><path d="M169.2,6l2,1-5.82.09c-1.39.48-2.79,1-4.16,0l0-.09,2-1Z"/><path d="M946.26,32.17A2,2,0,0,1,948.2,31c2.63.49,5.58-1.15,7.93,1.21Z"/><path d="M1344.74,236.17c2.26.28,2.56,2.33,3.47,3.83l1.08,2.9-.33.31A7.69,7.69,0,0,1,1344.74,236.17Z"/><path d="M1122.75,81.14,1126.2,83c.25,1.42.51,2.85.77,4.27Z"/><path d="M13.19,79l.09-4.12a20.11,20.11,0,0,1,2,8.13Z"/><path d="M1330,70a14.76,14.76,0,0,1-4.78,4.91A6.1,6.1,0,0,1,1330,70Z"/><path d="M986.2,42l1.89,3.21-6.27-4.08Z"/><path d="M38.77,38.87c.67-2.75.72-5.67,2.33-8.15C41.12,33.66,41.15,36.61,38.77,38.87Z"/><path d="M864.16,128c.36-.67.72-1.34,1.09-2-.07,3.21,0,6.43-1,9.55-.11-.84-.21-1.69-.32-2.54Z"/><path d="M1391.2,267l-3.16-.15a21.79,21.79,0,0,1,8.16-1.95C1394.84,266.37,1393,266.54,1391.2,267Z"/><path d="M544,257.72A4.88,4.88,0,0,1,541.2,261l-3.54-.12Z"/><path d="M426.07,175c.14-3.05,0-6.13,1.05-9.07C426.84,168.92,428.24,172.14,426.07,175Z"/><path d="M1189.25,181c-.13,3.06.08,6.16-1,9.12C1188.52,187.06,1187.23,183.85,1189.25,181Z"/><path d="M263.34,248.69c2.44.76,5,1.38,6.81,3.31C267.42,251.85,265,251,263.34,248.69Z"/><path d="M1097.2,79.08a7.12,7.12,0,0,1,6,3.92A10.59,10.59,0,0,1,1097.2,79.08Z"/><path d="M257.2,246.06c2.81-.75,4.32,1.46,6.26,2.71C261.07,248.57,258.68,248.36,257.2,246.06Z"/><path d="M590.08,250l-2.88-1-1-1-1-3A14.48,14.48,0,0,1,590.08,250Z"/><path d="M1193.27,140c0,3.09.1,6.2-.94,9.19C1192.52,146.11,1191.2,142.88,1193.27,140Z"/><path d="M245.36,233.86c-.05.71-.11,1.43-.16,2.14a1.31,1.31,0,0,1-2.29,0c-.92-1.08-.08-2,.29-3,1.13-.69,1.46.59,2.19.9Z"/><path d="M1190.3,171c-.08,3.19,0,6.39-1,9.47C1189.57,177.29,1188.15,174,1190.3,171Z"/><path d="M235.2,211a6.38,6.38,0,0,1,.91,4c-.3.5-.61.47-.91,0C232.86,213.67,232.86,212.33,235.2,211Z"/><path d="M708.12,207.2a11.63,11.63,0,0,1-3.22-6C707.83,202.18,707.51,204.94,708.12,207.2Z"/><path d="M1113.3,97.45a13.05,13.05,0,0,1,0,10.08Z"/><path d="M401.08,195a6,6,0,0,1-.89,4C397.38,197,398.83,195.9,401.08,195Z"/><path d="M1354.39,169.15l-.64,1.68-.66.9c-.38.94-.79,1.86-2.11,1.28a1.59,1.59,0,0,1,.21-2A2.82,2.82,0,0,1,1354.39,169.15Z"/><path d="M406.14,146a6.46,6.46,0,0,1-.95,4C402.36,147.92,403.85,146.87,406.14,146Z"/><path d="M1059.37,74.06c-.73,2.38.37,4.21,1.79,5.94C1057.5,78.94,1057.29,76.85,1059.37,74.06Z"/><path d="M509.16,79.11l-4.47-5C507.17,74.92,508.82,76.42,509.16,79.11Z"/><path d="M416.07,249.91l4.9-4.18C421,249,419,250.05,416.07,249.91Z"/><path d="M1346.21,261.17a19.07,19.07,0,0,1,6.47,2.69A6.54,6.54,0,0,1,1346.21,261.17Z"/><path d="M724.4,65.16a18.72,18.72,0,0,1-6,3.12C719.45,65.46,721.77,65,724.4,65.16Z"/><path d="M1326.19,184q-.92,3.6-1.84,7.2C1324.07,188.57,1323.92,186,1326.19,184Z"/><path d="M893.28,57c-.62,2.27-2.36,3.66-4,5.15C889.37,59.45,891.34,58.23,893.28,57Z"/><path d="M117.2,37c2.28,1.38,2.85,3.63,3.09,6A10.55,10.55,0,0,1,117.2,37Z"/><path d="M235.2,215h.91c0,.67,0,1.34.08,2-1,1.34.92,2.67,0,4C232.63,219.54,234.44,217.18,235.2,215Z"/><path d="M407.12,138a6.26,6.26,0,0,1-.93,4C403.36,139.93,404.84,138.88,407.12,138Z"/><path d="M74.14,138a17.68,17.68,0,0,1,4.92-4.4C78.24,136,76.76,137.61,74.14,138Z"/><path d="M25.53,9.2a13.7,13.7,0,0,1-4.33,4.72A5.87,5.87,0,0,1,25.53,9.2Z"/><path d="M510.16,204a23.23,23.23,0,0,1,.93-8.45C510.86,198.38,512.17,201.37,510.16,204Z"/><path d="M30.71,5.15,25.39,9.33C26.3,6.84,27.8,5.1,30.71,5.15Z"/><path d="M760.1,152.26l-6-3.23C756.65,149.09,759,149.54,760.1,152.26Z"/><path d="M519.23,149c.18-2.87-.17-5.8.89-8.57C519.85,143.28,521.14,146.31,519.23,149Z"/><path d="M120,101.92l5.06-4.43C124.25,100,122.77,101.69,120,101.92Z"/><path d="M402.13,183a6.39,6.39,0,0,1-.94,4C398.36,184.93,399.85,183.87,402.13,183Z"/><path d="M526.2,259c2.68,0,5.09,1,7.52,1.91C531,261,528.25,261.41,526.2,259Z"/><path d="M1192.3,111.55c1.06,2.72,1,5.58,1,8.42C1191.18,117.37,1192.54,114.37,1192.3,111.55Z"/><path d="M621.2,88a2.08,2.08,0,0,1-2-1.13l8,.16C625.41,88.71,623.2,87.73,621.2,88Z"/><path d="M1106.92,142.9l5.14-4.36C1111.2,141,1109.74,142.75,1106.92,142.9Z"/><path d="M1365.11,157.91l1.91,0-3,2.58c-.25,1-.91,1-1.69.64C1362.63,159.53,1363.93,158.77,1365.11,157.91Z"/><path d="M748.21,167.13a6.51,6.51,0,0,1,5,2.87C751.18,169.67,749.36,169,748.21,167.13Z"/><path d="M288.2,256l5-.92v.9c-1,1.55-2.34,2-4,1Z"/><path d="M1054.72,182.86c1.2-1.67,2.24-3.52,4.49-4C1058.17,180.71,1056.94,182.34,1054.72,182.86Z"/><path d="M43.89,174.89a13.68,13.68,0,0,1,3.24-5.06C46.85,172,46.33,174.07,43.89,174.89Z"/><path d="M236.12,202a6.29,6.29,0,0,1-.92,4C231.88,203.84,235,203.16,236.12,202Z"/><path d="M1323.36,196.05c-.16,2.45-.13,4.92-1.07,7.24C1322.53,200.86,1321.2,198.2,1323.36,196.05Z"/><path d="M974.9,257.9a14.54,14.54,0,0,1,6.29-1.87C979.49,258,977.26,258.15,974.9,257.9Z"/><path d="M872.34,94.05a14.27,14.27,0,0,1-2.05,6.08C870.1,97.81,870.15,95.57,872.34,94.05Z"/><path d="M427.09,99.41l-1.38-7.27C428.5,94.12,426.75,97,427.09,99.41Z"/><path d="M512.2,251.08c2.07-.28,2.76,2.59,4.9,2.14a2.36,2.36,0,0,1-.09.84A5,5,0,0,1,512.2,251.08Z"/><path d="M1199.26,76c1.9,1.1,2.51,3,3,4.93l-.33.31c-1,.11-1.36-.6-1.58-1.41l0,.07c-1.07-1-2.09-2-1.42-3.69Z"/><path d="M398.41,70.89,396.19,70c-.67-1-1.33-2-2-3C396.54,67.27,397.53,69,398.41,70.89Z"/><path d="M1130.19,244.14a10.36,10.36,0,0,1,4,3.86A4.26,4.26,0,0,1,1130.19,244.14Z"/><path d="M39.11,74.14c-1.07-2.26-1-4.7-1-7.1C40.15,69.15,38.86,71.76,39.11,74.14Z"/><path d="M546.2,258l-2.25-.2c.7-.95,1.41-1.9,2.12-2.84l2-1.32C548.42,255.51,546.88,256.57,546.2,258Z"/><path d="M886.52,66.2a13.22,13.22,0,0,1-3.22,5C883.55,69,884,66.9,886.52,66.2Z"/><path d="M719.06,129.45a12.19,12.19,0,0,1-4.34-4.31A6,6,0,0,1,719.06,129.45Z"/><path d="M498.19,93.11c1.79,1.53,2.06,3.65,2.25,5.8C498.57,97.41,498.39,95.25,498.19,93.11Z"/><path d="M1122.79,125.87l3.27-5.29C1125.92,122.93,1125.43,125.06,1122.79,125.87Z"/><path d="M1388.14,266.85a2.08,2.08,0,0,1-1.94,1.18l-2,.08-3.17-.24C1383.28,266.72,1385.72,266.88,1388.14,266.85Z"/><path d="M38.33,2.09c-1.94,1-3.82,2.13-6.13,1.89C33.85,2.08,36,1.85,38.33,2.09Z"/><path d="M960.32,57.71c2.13.24,4.17.67,5.74,2.29C963.93,59.78,961.77,59.66,960.32,57.71Z"/><path d="M428.09,108.41a18.61,18.61,0,0,1-.86-7.41C429,103.3,427.94,105.93,428.09,108.41Z"/><path d="M865.31,125.49c-.09-.83-.19-1.66-.28-2.49.48-1.64-.53-3.69,1.35-4.94C866.32,120.58,866.37,123.11,865.31,125.49Z"/><path d="M932.67,59.86a11.88,11.88,0,0,1,6.49-2A8.24,8.24,0,0,1,932.67,59.86Z"/><path d="M883.35,71.07c-.7,1.86-1.29,3.78-3.15,4.89C880.61,73.92,881.14,72,883.35,71.07Z"/><path d="M943.2,31.84l3.16.28c-2.3,1-4.74.93-7.17.92C940.22,31.62,941.84,32.15,943.2,31.84Z"/><path d="M720.21,153.1a6.74,6.74,0,0,1,5,2.9C723.18,155.68,721.35,155,720.21,153.1Z"/><path d="M767.1,156.26l-5.24-3.14C764.15,153.27,766.18,153.84,767.1,156.26Z"/><path d="M90.46,97.21a8.32,8.32,0,0,1-4.1,3.08C87,98.27,88.17,97,90.46,97.21Z"/><path d="M900.14,92.85,900.2,96l-2.42,1.88C898.57,96.2,899.36,94.53,900.14,92.85Z"/><path d="M714.9,96.9a10.93,10.93,0,0,1,3.21-4.13C718.12,95,716.89,96.24,714.9,96.9Z"/><path d="M874.43,89.1a10.63,10.63,0,0,1-2.13,5C872.15,92.1,872.46,90.25,874.43,89.1Z"/><path d="M132.76,89.86l3.38-4A4,4,0,0,1,132.76,89.86Z"/><path d="M722.84,87.87a10.5,10.5,0,0,1,4.27-3.12C726.38,86.74,725.1,88,722.84,87.87Z"/><path d="M930.07,257H927.2l-1.93-2.18C927.06,255.12,928.82,255.5,930.07,257Z"/><path d="M459.13,77c1.87-1.1,3.94-1.12,6-1.11C463.44,77.84,461.16,76.72,459.13,77Z"/><path d="M290.89,76.9a2.34,2.34,0,0,0,.35-.75c2,.43,4.21-.52,6.13.72Z"/><path d="M1215.43,73.09a10.82,10.82,0,0,1-4.08,3.17A4,4,0,0,1,1215.43,73.09Z"/><path d="M141.87,75.89,144,70.77C144.27,72.88,144,74.76,141.87,75.89Z"/><path d="M1188.31,244.63c1,2,1,4.2,1,6.38C1187.39,249.13,1188.43,246.79,1188.31,244.63Z"/><path d="M547.05,245.45,542.14,243C544.16,243.05,546.43,242.6,547.05,245.45Z"/><path d="M504,73.51l-4-3.44A3.92,3.92,0,0,1,504,73.51Z"/><path d="M903.12,243l-2.92-1c-.34-.33-.67-.67-1-1,0-.4.11-.8.16-1.2C900.87,240.55,902.45,241.25,903.12,243Z"/><path d="M245.39,233.9l-2.19-.9c-.27-1.08-.54-2.16-.8-3.25A9.13,9.13,0,0,1,245.39,233.9Z"/><path d="M986.71,66.9l6.35-1.32C991.38,68.11,988.86,66.61,986.71,66.9Z"/><path d="M1034.2,229a5,5,0,0,1,3,4C1035.61,232.13,1034.33,231,1034.2,229Z"/><path d="M737.06,230.46c-1.83-.63-3.78-1-5.28-2.33C733.94,228,736,228.09,737.06,230.46Z"/><path d="M1081.38,63.14a14.78,14.78,0,0,1-6.18.87C1077.05,62.27,1079.28,63.18,1081.38,63.14Z"/><path d="M729.39,63.15a9.74,9.74,0,0,1-5.1,2.07C725.47,63.26,727.31,62.92,729.39,63.15Z"/><path d="M889.35,62.07a10.62,10.62,0,0,1-2.9,4.21C886.13,64,887.52,62.88,889.35,62.07Z"/><path d="M300.17,63.72l-4-.72C298.06,60.27,299.19,61.58,300.17,63.72Z"/><path d="M1322.29,220.86a12.59,12.59,0,0,1,1,6.15C1321.42,225.21,1322.41,222.94,1322.29,220.86Z"/><path d="M236.2,221c-.55-1.33-1.69-2.66,0-4a6.86,6.86,0,0,1,1,4Z"/><path d="M329.2,193c.76.16,1.73.27,1.53,1.33-.24,1.3-1.39,1.55-2.53,1.67C328.53,195,328.86,194,329.2,193Z"/><path d="M939.09,57.93c1.87-1.22,4-1.07,6-1.08C943.42,58.84,941.14,57.73,939.09,57.93Z"/><path d="M209.1,55.14c-1-1.94-.88-4.06-.94-6.15C209.94,50.81,209,53.06,209.1,55.14Z"/><path d="M511.14,195c0-2.22-.27-4.48.94-6.52C511.94,190.68,513,193.05,511.14,195Z"/><path d="M1123.33,184c-.12,2,.28,4.07-1.13,5.81C1122.5,187.9,1121.38,185.67,1123.33,184Z"/><path d="M146,41.25a11.58,11.58,0,0,1-1.93-5.19A4.81,4.81,0,0,1,146,41.25Z"/><path d="M962.05,33.48l-6-1.33C958.08,32.33,960.5,30.91,962.05,33.48Z"/><path d="M38,186.9a9.26,9.26,0,0,1,2.21-5C40.19,183.91,39.93,185.78,38,186.9Z"/><path d="M247.36,179.17l-2.16.83c-1-2.14.08-2.84,2-3a1.75,1.75,0,0,1,.14,2.19Z"/><path d="M247.34,179.19c-.05-.73-.1-1.46-.14-2.19l1-1,2.13-1C250.12,177,248.69,178,247.34,179.19Z"/><path d="M1351.25,173.15l1.84-1.42c0,.75.07,1.51.11,2.27l-3.35,1.87A1.81,1.81,0,0,1,1351.25,173.15Z"/><path d="M1068,170.91l4.11-3.36A4,4,0,0,1,1068,170.91Z"/><path d="M741.19,163.92A6.11,6.11,0,0,1,746,166,5.54,5.54,0,0,1,741.19,163.92Z"/><path d="M140.06,28.38a10.62,10.62,0,0,1-3-4.3C139,24.87,140.21,26.13,140.06,28.38Z"/><path d="M1362.36,161.16l1.69-.64c-.29.82-.57,1.65-.85,2.48l-2.87,1.15-.14-.16c-.55-1.93,1.08-2.18,2.19-2.84Z"/><path d="M51.92,162.9l3.19-4.14C55.13,161,53.9,162.22,51.92,162.9Z"/><path d="M17.35,20l-.41,2.81L15.2,24.84A5.41,5.41,0,0,1,17.35,20Z"/><path d="M23.37,159.23c.28-1.08.55-2.15.82-3.23l2.25-.87A8.46,8.46,0,0,1,23.37,159.23Z"/><path d="M1369.91,155.89l2.54-2.61,1.74-.24C1373.23,154.69,1372.07,156,1369.91,155.89Z"/><path d="M518.15,156c0-2.14-.07-4.27,1-6.24C519,151.88,520,154.16,518.15,156Z"/><path d="M609,153.93c-.06-2.12-.06-4.22,1-6.14C610,149.88,611.09,152.18,609,153.93Z"/><path d="M60.8,151.87l3.37-4A4.09,4.09,0,0,1,60.8,151.87Z"/><path d="M1101.94,146.91l4.12-3.33A4,4,0,0,1,1101.94,146.91Z"/><path d="M301.42,136.17c-1.13,1.34-2.25,2.69-4.22,2.75C298.19,137.35,299.26,135.93,301.42,136.17Z"/><path d="M1401.2,134l-3.29.89,2.4-2.63,1.74-.71C1401.77,132.37,1401.48,133.19,1401.2,134Z"/><path d="M1116.68,133.85l3.4-4.17A3.88,3.88,0,0,1,1116.68,133.85Z"/><path d="M81,131.93a11,11,0,0,1,4.07-3.3A4,4,0,0,1,81,131.93Z"/><path d="M1412,121.88a11.54,11.54,0,0,1,3.1-4.33C1415.21,119.85,1414,121.17,1412,121.88Z"/><path d="M63.07,117a4.89,4.89,0,0,1-3.88,3C60,118.45,61.12,117.17,63.07,117Z"/><path d="M1129.07,113.58l.13,3.42-2.48,1.87Z"/><path d="M867.42,112.08c-.08,2.08,0,4.19-1.09,6.1C866.46,116.1,865.29,113.8,867.42,112.08Z"/><path d="M109,110.92l4.1-3.25A4.05,4.05,0,0,1,109,110.92Z"/><path d="M79.66,105.14a9.88,9.88,0,0,1-4.41,3C76.1,106.22,77.38,105,79.66,105.14Z"/><path d="M614.22,110c-.12-2.22-.25-4.45.87-6.5C615,105.68,615.94,108,614.22,110Z"/><path d="M1314.24,100a16.64,16.64,0,0,1-1,6.52C1313.46,104.32,1312.39,101.94,1314.24,100Z"/><path d="M86.45,100.21c-1.13,1.36-2.22,2.79-4.25,2.78C83.16,101.36,84.24,99.92,86.45,100.21Z"/><path d="M1144.24,248a3.23,3.23,0,0,1-3.59,1.85l3.43-3.14C1144.14,247.14,1144.19,247.57,1144.24,248Z"/><path d="M614.13,55.18a8.22,8.22,0,0,1-.88-5.17C614.75,51.52,614.05,53.42,614.13,55.18Z"/><path d="M909.84,44c-1,1.1-2,2.18-3.64,1.94A3.4,3.4,0,0,1,909.84,44Z"/><path d="M720.2,253a7.07,7.07,0,0,1,4,1C722.37,255.61,721.37,254,720.2,253Z"/><path d="M917.22,40c-1.21.89-2.34,2-4,1.84C914.07,40.21,915.55,39.89,917.22,40Z"/><path d="M903.2,89l-1.43-.16a9.52,9.52,0,0,1,2.32-4.14A6.61,6.61,0,0,1,903.2,89Z"/><path d="M748.07,253.91a7.1,7.1,0,0,1,5.12-.84C751.68,254.54,749.82,253.87,748.07,253.91Z"/><path d="M604.21,183a8.94,8.94,0,0,1,.87-5.45C605,179.41,605.8,181.39,604.21,183Z"/><path d="M792.1,89.52c-.45-1.79-.91-3.59-1.37-5.38C793.12,85.44,791.89,87.67,792.1,89.52Z"/><path d="M938.63,33.11a9,9,0,0,1-5.44,1C934.75,32.36,936.77,33.17,938.63,33.11Z"/><path d="M289.2,257a7.13,7.13,0,0,0,4-1C292.44,258.65,291,258.42,289.2,257Z"/><path d="M144.09,36.15,142,32.06C144,32.74,144.29,34.33,144.09,36.15Z"/><path d="M1192.19,255.91a8.25,8.25,0,0,1,4.26,1.86C1194.59,258.17,1193,257.84,1192.19,255.91Z"/><path d="M936.17,258.84a8.09,8.09,0,0,1,5.23,1C939.59,259.87,937.64,260.64,936.17,258.84Z"/><path d="M515.17,173a9.38,9.38,0,0,1,1-5.18C516,169.59,516.79,171.52,515.17,173Z"/><path d="M608.15,159a8.79,8.79,0,0,1,.89-5.21C609.08,155.59,609.79,157.5,608.15,159Z"/><path d="M603.18,189a8.5,8.5,0,0,1,.93-5.26C604,185.54,604.79,187.48,603.18,189Z"/><path d="M1260.79,76.87l1.41-.83a3.43,3.43,0,0,1,3.85-.22l.12.19C1264.59,77.62,1262.62,76.84,1260.79,76.87Z"/><path d="M1313.3,119.43a10.37,10.37,0,0,1,1,5.59C1312.5,123.43,1313.41,121.33,1313.3,119.43Z"/><path d="M1247.2,76.16l-1.46-.3a5.17,5.17,0,0,1,5.66.07Z"/><path d="M1324.41,191.08c-.09,1.75,0,3.54-1.09,5.08C1323.38,194.4,1322.48,192.44,1324.41,191.08Z"/><path d="M351.06,154.47c-1.57-.73-3.15-1.27-4.82-.29C348,152.53,349.58,152.27,351.06,154.47Z"/><path d="M238.18,193c-.33,1-.67,2-1,3C235.66,194.38,236.16,193.43,238.18,193Z"/><path d="M520.11,108.57c-1-1.74-.89-3.66-.87-5.57C520.82,104.66,520,106.69,520.11,108.57Z"/><path d="M631.09,69.29,627,67.07C628.84,66.93,630.51,67.12,631.09,69.29Z"/><path d="M510.1,211.44a8.6,8.6,0,0,1,0-6C510.11,207.46,510.1,209.45,510.1,211.44Z"/><path d="M511.12,217.2c-1.16-1.58-1.12-3.38-1-5.21C511.8,213.47,511,215.42,511.12,217.2Z"/><path d="M495.12,67.2,491,65.08C492.8,64.92,494.45,65.11,495.12,67.2Z"/><path d="M914.05,222.46a7.56,7.56,0,0,1-3.18-3.25A3.8,3.8,0,0,1,914.05,222.46Z"/><path d="M1122.34,232.21a2.7,2.7,0,0,1,1.85,2.79l-2-1Z"/><path d="M970.18,61.87c1.75-.1,3,.87,4.29,1.88C972.58,64.18,971,63.84,970.18,61.87Z"/><path d="M637.18,240c-.09-1.63-.18-3.27-.28-4.9C638.89,236.62,638.55,238.28,637.18,240Z"/><path d="M1265.2,62l-3-1C1263.83,59.46,1264.77,60,1265.2,62Z"/><path d="M1357.39,59.07a9.37,9.37,0,0,1-5.19.86C1353.73,58.45,1355.63,59.14,1357.39,59.07Z"/><path d="M1080.49,236.09a6.48,6.48,0,0,1-5.88,0Z"/><path d="M403.39,59.86a2.62,2.62,0,0,0-.26-.82c1.79-.11,3.39.14,4,2.2Z"/><path d="M951.19,240a8.19,8.19,0,0,1-5.25-.87C947.73,239.14,949.65,238.43,951.19,240Z"/><path d="M1187.3,238.48c1,1.73.93,3.63.9,5.52C1186.56,242.38,1187.38,240.36,1187.3,238.48Z"/><path d="M517.16,162c0-1.88-.15-3.79.92-5.5C518,158.38,518.84,160.4,517.16,162Z"/><path d="M33.2,98c-.64.94-1.32,1.86-1.91,2.82-1.68,2.73-3.43,2.87-5.1.08-1-1.64-3-2.67-3-4.89C26,99.1,29.31,100.13,33.2,98Z"/><path d="M13.19,62a34.56,34.56,0,0,1,0-18Q13.2,53,13.19,62Z"/><path d="M19.2,253c-3.4,3.27-6.19.94-9-1,2.69-.49,5.58,3,8.19-.43C18.52,251.37,19.16,252.34,19.2,253Z"/><path d="M22.2,95a5.65,5.65,0,0,1-2-4C21.94,91.79,22.28,93.29,22.2,95Z"/><path d="M331.23,168c-.47-2.69,1.78-4.14,2.83-6.13a41.53,41.53,0,0,1,4-4A12.33,12.33,0,0,1,346.2,155c-3.28,2.8-7.68,4-10.19,8.07-1.61,2.59-3,5-2.9,8C331.91,170.42,332.69,168.53,331.23,168Z"/><path d="M358.24,244c-3.29,4.14-8,5.68-12.85,6.79v0a5.28,5.28,0,0,1-4.2-2.82l-.94-1c-.12-.62-.25-1.24-.37-1.86C346.46,252.14,352.26,246.62,358.24,244Z"/><path d="M320.12,90.17c-4.85-5.55-10.23-10.41-17.3-13C311.62,77.47,316.18,83.4,320.12,90.17Z"/><path d="M411.38,92.62v2.74C409.35,94.71,410.54,93.57,411.38,92.62Z"/><path d="M1344.74,236.17c1.11,2.52,2.15,5.09,4.22,7l.42,1.69c-5.35-3.3-6.78-9.11-8.7-14.4-1.44-3.94-1.71-8.31-2.5-12.48a22,22,0,0,1,0-10c.63-2.62-.23-5.43,1-8,1.22-1.49-.2-3.51,1-5,2.29-6,2.63-12.8,7-18a1.07,1.07,0,0,1,1.72,0c.49.94-.85,1-.81,1.74-1.52,3.36-2.06,7.14-4.41,10.13a3.14,3.14,0,0,0-.65,2.82c-4.27,14.33-5.55,28.58,1,42.66A1.64,1.64,0,0,0,1344.74,236.17Z"/><path d="M1417,78.15q2,4,4,8c.72,5.29,2.26,10.55.42,15.9l-1.22-.06c1.21-12-2-22.36-11.64-30.21a7.13,7.13,0,0,1-1.24-2.08C1411.59,71.32,1413.81,75.31,1417,78.15Z"/><path d="M1362.38,161.15l-2.19,2.84-5.83,5.2A11.37,11.37,0,0,1,1362.38,161.15Z"/><path d="M1348.91,177h-1.72c1.29-2,1.62-4.7,4-6l.06,2.16-1.4,2.72Z"/><path d="M1338.18,208v10A11.55,11.55,0,0,1,1338.18,208Z"/><path d="M1349.33,244.83a7.28,7.28,0,0,1,2.93,3.14C1350.27,247.88,1349.22,246.9,1349.33,244.83Z"/><path d="M1340.19,195c-.18,1.69.55,3.57-1,5C1339.38,198.3,1338.63,196.42,1340.19,195Z"/><path d="M188.38,257.08l-13,2.73c-5.44-2.66-8.16-7.17-8.57-13.05-.78-11.44-.72-22.86,1.29-34.2.13.52.27,1,.4,1.56.14,10.54-2.74,21.06-.3,31.61a18.16,18.16,0,0,0,1.61,5.19c2.35,4,4.56,8.13,10.69,6.22C182.87,256.38,185.73,257.05,188.38,257.08Z"/><path d="M161.22,7.06l4.16,0-9.23,5.69C156.61,9.79,159.43,8.89,161.22,7.06Z"/><path d="M1266.05,75.82l-3.85.22c6.32-4.69,6.32-4.69,0-13.12C1269.71,66.34,1271.1,71,1266.05,75.82Z"/><path d="M1199,76.18l1.42,3.69c-2.49-1.16-3.51-3.39-4.23-5.83C1197.75,73.93,1197.78,75.83,1199,76.18Z"/><path d="M1200.38,79.8l1.58,1.41c.16,1.36.58,2.52,2.2,2.69C1200,85.25,1201.07,81.69,1200.38,79.8Z"/><path d="M252.2,173a2.86,2.86,0,0,1,3-3A3.76,3.76,0,0,1,252.2,173Z"/><path d="M165.16,245a38.39,38.39,0,0,1,0-19Z"/><path d="M20.2,96.05c2.12,1.44,3,3.79,4.32,5.84C21.71,101,20.75,98.66,20.2,96.05Z"/><path d="M153.2,9c-1.27,2.55-3.95,3.4-6,5C147.76,10.61,150.35,9.64,153.2,9Z"/><path d="M147.2,14a5.69,5.69,0,0,1-2,4C145.12,16.29,145.43,14.78,147.2,14Z"/><path d="M338.06,157.88a5.41,5.41,0,0,1-4,4A5.13,5.13,0,0,1,338.06,157.88Z"/><path d="M1343.69,188.86c1.24-3.48,2.06-7.14,4.41-10.13C1347.62,182.54,1346.84,186.22,1343.69,188.86Z"/><path d="M341.2,248l4.2,2.82C343.14,251.17,341.46,250.64,341.2,248Z"/></g></g></svg>