<svg xmlns="http://www.w3.org/2000/svg" viewBox="0 0 1829.05 420.99"><defs><style>.cls-1{fill:#070707;}.cls-2{fill:#9fd168;}</style></defs><title>Asset 20</title><g id="Layer_2" data-name="Layer 2"><g id="Layer_1-2" data-name="Layer 1"><path class="cls-1" d="M1250.15,90.58c11.08-5.79,22.79-10,34.68-13.73,52.94-16.39,107.38-23.07,162.58-24.19,46.07-.94,91.95,1.39,137.35,10,38.63,7.31,76.2,18,111.19,36.3,33.24,17.42,54.48,44.06,59.47,81.83,4.19,31.69-4.66,60.36-23.09,86.2-22.49,31.52-53.29,51.81-89.23,64.63-39.92,14.24-81.21,22.25-123.49,25.1-32.16,2.17-64.26,1.76-96.27-2.56-43-5.79-84.41-17.3-124.82-32.87-33-12.7-64.58-28.48-96.83-42.8-5-2.22-10-4.38-15.27-6.66,1.53-5.13,1.57-10-1.68-14.56,16,5.53,31,12.69,46.33,19.2a3.12,3.12,0,0,0,2.51,1.17c4.17,1.83,8.37,3.58,12.49,5.51a769.83,769.83,0,0,0,71.6,29.27c43.94,15.36,89,25.55,135.56,27.88,43.93,2.19,87.55-1.08,130.53-11.08,32.73-7.61,64.73-17.05,93-36.09,26.25-17.68,45.71-40.54,54.57-71.5,12.14-42.45-5.13-83-44.2-103.43-5.15-2.71-10.38-5.31-15.7-7.66-51-22.43-104.87-32.16-160-35.68-39-2.48-77.91-2.23-116.79,1.88-36.85,3.9-73.21,10.17-108.54,21.66C1274.9,92.07,1263.1,88.69,1250.15,90.58Z"/><path class="cls-1" d="M175.76,101.17c.6,7.59,1.17,14.41,3.05,21,.84,3-1,4.14-2.91,5.61a181.78,181.78,0,0,0-40.82,44.9c-23.88,37.12-23.23,75.09-3.92,113.48,18.35,36.48,50.17,55.52,88.22,65.47,36,9.41,72.89,9.69,109.75,9.47,55.42-.34,109.76-9.58,163.83-20.83,39.16-8.14,78.43-15.64,118.34-19.06a450.54,450.54,0,0,1,51.44-1.61,53.67,53.67,0,0,1,11.49,1.67,73.07,73.07,0,0,1-15,6.25,1573.89,1573.89,0,0,1-249.15,56.76c-56.21,8-112.59,8.76-168.94,1.35-30.58-4-59.44-13.3-85.24-30.8-35.76-24.26-54.69-58.79-61-100.77-6.29-41.68,7.9-77.4,33.12-109.61a194,194,0,0,1,43.67-40.8C172.79,102.92,173.93,102.29,175.76,101.17Z"/><path class="cls-2" d="M212.72,107.51c.72,9-4.06,16.26-7.8,23.81-1.28,2.58-3.22,1.05-4.54-.08a32.34,32.34,0,0,1-9.18-13.5c-7.59-20.12-10-40.64-4.08-61.66,4.6-16.34,15.61-28.7,35-28.4,16.81.26,33.68-1.3,50.41,1,22.73,3.13,44.27,23.09,46.67,44.06,2,17.18-3.14,32.68-15.36,45.3-11.75,12.14-25.52,21.83-39.13,31.74-20.71,15.07-38,33.34-50.51,55.87-6,10.84-9,22.52-10.12,34.72-.64,7.12-.77,14.29-1,21.45a32.48,32.48,0,0,1-2.89,11.53c-2.26,5.47-6.78,8.25-12.06,7.8-4.61-.4-8.37-3.65-10.22-8.51-5-13.05-4.72-26.34-2.57-39.85,3.5-22,15.29-39.75,28.77-56.77,16.67-21.05,37.79-36.86,59.47-52.15a133.46,133.46,0,0,0,20.33-17.68c2.63-2.79,5.19-5.65,6.11-9.54.58-1.17,1.17-2.34,1.75-3.5,8.92-20.84-5-45.69-27.5-48.54-11.08-1.39-22.26-.55-33.42-.16-8.22.29-13.74,4.13-16.61,11.34-4.83,12.17-5.37,24.9-3.49,37.77C211.4,98.21,211.18,103,212.72,107.51Z"/><path class="cls-2" d="M1043.83,221.26c-4.43-18.66-8.1-37.37-6.79-56.76,1.74-25.69,7.79-49.93,22.4-71.52,13.24-19.54,32.17-29.65,55.09-33.36,16.52-2.66,30.88,2.62,44.39,11.26a26.55,26.55,0,0,1,10.5,13.61c1.67,4.48-.21,6.69-4.16,7.83a22.16,22.16,0,0,1-15.11-.87c-6.43-2.69-12.4-6.49-19.39-7.8-20.79-3.91-43.52,8-54.67,28.45C1068,127,1063.88,142.91,1062,159.61c-2.31,20.56,1.21,40.41,6.77,60a45.85,45.85,0,0,0,2.1,5c1.32,5.45,3.49,10.43,7.81,14.24,2.23,6.54,7.64,10.46,12.73,14.25,15.47,11.5,32.79,16.74,52.13,13.46a37.26,37.26,0,0,0,20.85-11c1-1.07,1.87-2.35,2.91-3.42,1.71-1.75,3.39-4.29,6.22-3,3,1.39,2.93,4.34,2.67,7.34-.82,9.44-6,16-13.46,21.14-6.43,4.45-13.78,6.54-21.37,7.88a78.66,78.66,0,0,1-51.28-7.91c-18.92-9.75-33.31-23.51-41.4-43.43Q1046.25,227.78,1043.83,221.26Z"/><path class="cls-2" d="M598.36,117c4,29,3.3,57.64,0,86.37a495.21,495.21,0,0,0-3.67,59.28,45.22,45.22,0,0,1-.68,7.43c-.65,4-3.28,6.32-7.17,6.45-11.41.41-15,2.46-14.63-12.89.61-25,3.19-49.78,6.14-74.56,2.62-22,4.71-44,2.52-66.18a50.56,50.56,0,0,0-8.56-24.24c-2.53-3.64-5-7.47-10.52-4.82-1.47-3.24,0-4.75,2.15-6.07,5.94-3.62,13.09-2.69,19.29,2.76a50.69,50.69,0,0,1,5.84,6.15c1.66,2.06,3,4.38,4.64,6.8,2.89-.41,4.8-2.66,7.15-4.07,17.71-10.65,36.56-15.35,56.86-9.48,20.53,5.93,31.09,20.83,34.15,41.3,3.49,23.41.13,46.47-4.49,69.4-2.3,11.42-4.54,22.82-4.82,34.55-.39,16.42,11.65,29.8,27.3,33.64a52.65,52.65,0,0,1,7.18,2,6.8,6.8,0,0,1,3.4,9.45c-2.2,4.16-9.38,7.77-14.09,6.89-21.07-3.9-41.91-24.28-41.66-48.31.17-16,3.78-31.34,6.68-46.86,3.18-17.06,5.4-34.2,4.51-51.61a63.46,63.46,0,0,0-4.13-20C666,105.9,654.64,99.53,639.22,102a87.81,87.81,0,0,0-28.81,9.37C606.51,113.52,602.33,115.17,598.36,117Z"/><path class="cls-2" d="M506.93,259.6c-10.06,12.62-23,17.47-37.24,20.45-17.14,3.59-31.79-1.46-44.36-12.47-19-16.66-21.05-39.37-6.12-59.88,11.22-15.42,27-25.51,42.48-35.87,10.11-6.75,20.39-13.3,27.81-23.25,5.21-7,9.12-14.31,6.79-23.56-3.25-12.94-18.79-23.8-32-21.91-6.53,1-13.38-.11-19.58,3a1.8,1.8,0,0,1-2.52-1,4,4,0,0,1,.64-4.66,21.61,21.61,0,0,1,11.22-7.18c19.93-4.56,38.38-2.82,53.23,13.35,10,10.84,12.4,25.56,6.21,38.94-5.78,12.5-15.31,21.67-26.31,29.45-13.85,9.81-28.43,18.58-41,30.2A48.09,48.09,0,0,0,434,222.74c-4.39,10.9-2.8,21.11,5.77,29.42,9.68,9.38,20.84,14.85,34.81,10.52a27.07,27.07,0,0,0,13.83-10.29c8.53-11.76,16.49-23.91,18-38.95a40.45,40.45,0,0,0-.59-14.38c-1.8-7,2.79-14.85,9.8-17,7.63-2.33,9.5-1.35,13,6.21,3.1,6.67,3.8,13.83,4,20.94.44,14.64.14,29.3,1.35,43.93a47.17,47.17,0,0,1-.22,8.48c-.84,8.46-5.41,13.73-13.5,15.57-2.88.66-4.66-1.37-6.32-3.22C510.63,270.22,508.92,265.53,506.93,259.6Z"/><path class="cls-2" d="M875.28,223.07c2.75,10.54,11.25,16.4,17.78,23.82,9.77,11.11,30,15.82,43.71,10.26,11.61-4.72,16.43-13.54,14.85-27.39-1.53-13.34-7-23.66-19.6-30.42-13.51-7.24-27.69-13.12-40.84-21-8.79-5.3-17.19-11.08-22.42-20.15-9.2-16-6.93-31,3.58-45.72,16.94-23.69,48.91-32.49,73.53-19.8a39.17,39.17,0,0,1,15.32,14c4.49,7.06,4.34,14.46,1.22,22-.73,1.76-1.83,3.17-4,3.23-2.36.06-3.68-1.32-4.58-3.24a15.26,15.26,0,0,1-1.17-3.28c-2.71-13.12-12.33-18.71-24.13-20.44-19.34-2.82-35.62,7.27-44.74,24.42-4.43,8.33-1.66,18.28,6.44,25.66,9.77,8.9,21.84,14,33.5,19.61a213.73,213.73,0,0,1,24.38,13.68c14,9.2,19.57,23.21,20.71,39.13,1.74,24.24-6.75,37.83-29.11,47.38-16.55,7.07-33.37,8.68-50.5,1.8-18.57-7.45-27.6-26.39-21.1-44.75C869.26,228.52,870.49,225.17,875.28,223.07Z"/><path class="cls-2" d="M1250.15,90.58c12.95-1.89,24.75,1.49,35.92,7.8,1.74,1.75,3.47,3.52,5.23,5.26,13.71,13.63,15.56,30.3,5.4,46.8-6.25,10.15-14.87,17.87-24.47,24.62s-19.4,12.95-28.67,20c-10.1,7.66-20,15.78-24.57,28.27-3.86,10.43-2.62,20.06,5.29,28.23,17.11,17.68,42.39,14.28,55.88-4.18,2.55-3.49,4.75-7.24,7-10.94,8.3-13.8,12.16-28.29,7.46-44.36-1.79-6.12-.64-7.49,8.79-12.16,3.67-1.83,6.18,1,8.54,3.27,1.85,1.76,2.79,4.14,3.72,6.46a50.06,50.06,0,0,1,3.15,16.59c.46,10.15.35,20.3.71,30.46.32,8.93,2.41,17.87.39,26.86-1.1,4.91-1.54,11.25-6.83,12.34s-9-3.88-12-8.34c-2.28-3.44-2.9-7.57-4.69-11.68-.79,1-1.22,1.45-1.6,2-14,19-38.27,26.45-57.53,19.6-1.26-.45-2.51-1.08-3.67.2a3.12,3.12,0,0,1-2.51-1.17c-.71-2.47-3.16-2.81-4.93-3.88-11.47-6.93-20.83-15.73-24.24-29.17-4.39-17.28,1.46-31.88,13.16-44.39,11-11.75,24.07-21,37.56-29.63,10.38-6.66,20.61-13.56,28-23.82,11.41-15.95,6.64-28.54-7.68-38.83a10.82,10.82,0,0,0-7-2.11c-8.82-4.68-17.56-3.15-26.3.31-2.28.91-4.83,2.45-6.86-.05s0-4.63,1.23-6.74C1238.67,94.16,1243.94,91.35,1250.15,90.58Z"/><path class="cls-2" d="M383.15,102.26a490.9,490.9,0,0,1-4.69,64.66c-2.9,22.26-6.29,44.46-8.92,66.75a229.57,229.57,0,0,0-1.42,34.89,19.92,19.92,0,0,1-2.53,11.05c-1.9,3.24-4.44,5.35-8.44,5.19a10.86,10.86,0,0,0-3,.2c-8.17,2-12.38-.54-14.25-8.92-1.73-7.73-1.14-15.61-.68-23.4,1.63-27.64,8.19-54.58,12-81.9,4-29.12,10.07-58.09,8.67-87.75a62.52,62.52,0,0,0-10.64-31.79c-4.42-6.76-9.31-6.94-16.82-3.61-1.85.82-3.65,3.19-5.71.82-1.87-2.16-.49-4.37.7-6.43,7-12.23,26.77-9.44,34.46-1.87,10.46,10.29,16.34,23,18.94,37.23A141.15,141.15,0,0,1,383.15,102.26Z"/><path class="cls-1" d="M56.39,160.87C42.24,161,29,158,17.25,149.65,5.84,141.56.18,130.33,0,116.44c-.14-10.75,1.22-21.27,6.83-30.79A24.71,24.71,0,0,1,9.7,81.59c2.75-3,5.58-2.62,5.9,1.23,1.06,12.41,9.61,15,19.69,16.14,12.76,1.5,25.61.56,38.4,1.52,11.56.87,22.25,4.08,31.88,10.47,10.48,7,13.33,20.43,5.14,28.32-9.17,8.84-18.94,17.35-32.48,19.27C71,159.57,63.75,160.75,56.39,160.87Z"/><path class="cls-2" d="M809.58,261.52c1.41,5.72-1.52,9.83-5.56,13-10.42,8.09-22.33,9.61-34.46,5.27-11.75-4.2-16.62-14.35-18.58-25.87-2.83-16.71,0-33.14,3.2-49.51,5.29-26.93,9.55-54,12.45-81.32.49-4.61,1.43-9.76-.07-13.85-1.74-4.79-8.15-2.8-12.13-4.84-2.69-1.38-7.1-1.13-7.24-5s4-4.4,6.8-5.6a36.52,36.52,0,0,1,4.77-1.45c8.26-2.12,8.18-2.11,8.19-10.92a178.25,178.25,0,0,0-1.77-22.85A29.23,29.23,0,0,1,765,54c.06-2.82-.17-6.1,3.29-7s6.13.76,7.91,3.81a82.76,82.76,0,0,1,10.63,33.51c.47,4.51,1.26,7.78,6.87,8.2,7.54.57,12.94,5.48,18.14,10.42-3.16,9-8.2,11.22-23.46,10-.81,7-.71,14.11-1.33,21.13-2.45,27.69-7,55.06-11.55,82.44-1.73,10.35-2.36,20.8-.62,31.28,1.38,8.36,4.18,10.95,12.49,10.9a78.28,78.28,0,0,1,14.91.93Z"/><path class="cls-1" d="M1829.05,128.67c-1.15,19.44-9.4,36.13-25.67,48.55-4.93,3.77-10.62,6.1-17.13,5.49-1.62-.15-3-.36-3.3-2.21-1.27-7.54-5.34-14-8.67-20.58-11-21.81-7.53-42.82,2.48-63.7,3-6.16,7.59-10.91,12.74-15.15,7-5.79,16.62-5.92,22.59,1.89C1822.23,96.22,1828.47,110.85,1829.05,128.67Z"/><path class="cls-1" d="M110.78,363.84c.46,18-5.43,33.28-19,45.33-11.33,10.06-24.7,13.41-39.45,11.15C45,419.2,39.09,415.54,37,407.86s1.38-13.57,7.05-18.43c5.34-4.57,11.41-8.05,17.4-11.64,4.43-2.64,8.85-5.3,13.13-8.17,8-5.31,14.28-11.93,16.69-21.58a37.52,37.52,0,0,1,2-5.13c2.52-6.08,7.43-7.05,12-2.19,3.8,4.07,5.22,9.22,5.6,14.63C110.94,358.17,110.78,361,110.78,363.84Z"/><path class="cls-1" d="M1266.52,326c8.69-.35,13.83,4,17.28,10.59,5.2,9.88,12.72,17.82,20.66,25.43,5.78,5.56,11.14,11.46,15,18.52a23.73,23.73,0,0,1-2.48,27.09,21.53,21.53,0,0,1-23.43,6.85c-8.06-2.55-12.8-8.65-16.17-16-4.94-10.77-3.5-22.16-2.93-33.42.4-7.94,1.25-15.83-.65-23.75C1272.5,335.84,1269.7,331.12,1266.52,326Z"/><path class="cls-1" d="M472.13,47.28c.87,10.35-5,19.43-14.06,26.74-4,3.26-8.49,1.83-12.6-.56-15.83-9.18-23.28-25.89-20.33-45,1.39-9,5-17.2,7.74-25.73.87-2.7,2.64-3.11,5-2.43C457.05,5.77,472.23,25.76,472.13,47.28Z"/><path class="cls-1" d="M1701.42,388.69c-16.18-.87-29.35-7.74-40-19.59-4.62-5.15-9.59-10.16-10.84-17.5-.94-5.46,1.53-8.4,6.65-6.6,7.92,2.79,16,2.13,24.11,2.82,12,1,24,2.46,35.43,6.86,6.62,2.56,11.51,6.56,12,14.16s-3.92,12.28-10.2,15.6C1713.17,387.28,1707.32,388.21,1701.42,388.69Z"/><path class="cls-1" d="M560.29,362.65A42.57,42.57,0,0,1,586.21,371c6.63,4.81,9.91,15,7.73,22.18a8.73,8.73,0,0,1-6.85,6.25c-6.6,1.46-13.32,1.33-19.37-2.3a45,45,0,0,0-25.05-6.52A35.6,35.6,0,0,1,529,388.21c-7.48-2.83-8.51-9.66-2.07-14.46A56.2,56.2,0,0,1,560.29,362.65Z"/><path class="cls-1" d="M291.74,93.15c-.58,1.16-1.17,2.33-1.75,3.5-26.27-.05-52.28,1.81-77.27,10.86-1.54-4.53-1.32-9.3-2-14,.47-9.17.45-9.22,9.33-11.49,18.46-4.72,37.31-6.53,56.28-7.39,4.76-.21,9.54,0,14.12,0C292.17,81.16,291.51,87.18,291.74,93.15Z"/><path class="cls-1" d="M243.56,343.66c-5.13.28-9.47-.88-12.49-5.58-1.54-2.41-1.41-3.71,1.14-5.1s5.36-1.81,7.9-3c6.33-2.86,10.47-8,13.85-13.9,3.91-6.78,8.92-12.41,16.08-15.86,4.72-2.27,9.59-2.78,14.5-.81,7.92,3.17,10.34,13.48,5.68,21.72-7.91,14-21.39,18.45-35.74,21.48C250.92,343.39,247.2,343.34,243.56,343.66Z"/><path class="cls-1" d="M793.49,153.51c.48-5.53,1-10.31,1.25-15.11.12-2.6,2.14-2.71,3.68-3.39,15.8-7,30.69-15.28,42.9-27.81A150.07,150.07,0,0,0,862,79.75c.69-1.14,1.34-2.31,2.08-3.41,1-1.54,2.24-3.3,4.39-2.21,1.8.92,1.41,2.85,1,4.49-1.86,7.66-5.14,14.77-8.77,21.71-8.6,16.41-21.63,28.6-37.17,38.23A167.8,167.8,0,0,1,793.49,153.51Z"/><path class="cls-1" d="M574.39,150.25c-1.47.94-2.54.22-3.6-.11-14-4.29-27.92-8.69-41.94-12.85-3.16-.94-4.71-2.46-4.84-5.82-.19-5.08-2.1-9.67-4.7-14-1.4-2.34-3.07-4.6-3.68-8.1,4.27,1.45,8,2.77,11.69,4,13.43,4.36,26.85,8.79,40.34,13,2.73.85,4.18,2,4.71,4.89A189.43,189.43,0,0,1,574.39,150.25Z"/><path class="cls-1" d="M609,137.59a443,443,0,0,0,56.76,10.34,96.17,96.17,0,0,1-2.11,20.43,366,366,0,0,1-51.57-7.82c-1.28-.28-2.21-.84-2.13-2.29C610.31,151.46,608.22,144.76,609,137.59Z"/><path class="cls-1" d="M1078.68,238.93c-4.32-3.81-6.49-8.79-7.81-14.24a419.76,419.76,0,0,1,88.6,22.57c.41,1.39-.65,1.94-1.2,2.67-2,2.72-2,7.62-5.52,8.25-2.89.52-6.3-1.59-9.42-2.69A386.18,386.18,0,0,0,1078.68,238.93Z"/><path class="cls-1" d="M1655.3,67.67c-4.57-.27-11.15-.75-14.52-8.14-1.28-2.81-1.18-4.88,2.06-5.72,14.4-3.74,25.87-13,38.35-20.29,3.28-1.93,6.84-3.1,10.2-.49,3.19,2.47,3.47,5.82,2.6,9.76a24.52,24.52,0,0,1-5.53,10.37C1681.35,61.81,1668.73,67.68,1655.3,67.67Z"/><path class="cls-1" d="M447.66,88c-2,2.58-4.46,2.74-6.33,3.91-4.36,2.71-8.93,5-11,10.35a3.93,3.93,0,0,1-4.72,2.72c-11.58-2.5-23.38-3.29-35.29-4.11-1.1-7.26-2.17-14.29-3.34-22C407.44,79.55,427.51,81.41,447.66,88Z"/><path class="cls-1" d="M701.19,150.65c19.22,1,38.26.91,56.88-3.43.32.93.56,1.25.51,1.51-3.73,20.72.5,15.83-19.38,19.15-13,2.16-26.17,2-40,2.06C699.83,163.59,700.49,157.37,701.19,150.65Z"/><path class="cls-1" d="M1103.49,215.6c6.1-3.87,12.57-5.49,18.71-7.87a39.62,39.62,0,0,0,9.6-5.12,17.59,17.59,0,0,1,16.06-2.83,11.78,11.78,0,0,1,8.62,9.46c.86,4.58-1.59,8-5,10.73-2.22,1.84-4.84,3.33-7.64,3.37-11.54.16-23.21,1.23-34.25-3.55A14.42,14.42,0,0,1,1103.49,215.6Z"/><path class="cls-1" d="M1043.83,221.26q2.43,6.51,4.85,13c-24-2.45-48-4.66-72.23-4.59-1.14-3.68-.24-7.34-.8-11.54C998.63,217.52,1021.23,219.33,1043.83,221.26Z"/><path class="cls-1" d="M831.21,161.61c-1,8.75-1.47,17.71-9.22,23.85-4.82,3.82-9.51,2.56-12-3.11a15.91,15.91,0,0,1-.7-9.82c2-9.36,6.76-17.28,13.09-24.33,2-2.25,3.71-2.41,5.41.51A23,23,0,0,1,831.21,161.61Z"/><path class="cls-1" d="M1234,98.14c-1.21,2.11-3.21,4.3-1.23,6.74s4.58,1,6.86.05c8.74-3.46,17.48-5,26.3-.31-24.64,7.1-48.5,16.81-72.29,21.13C1204.39,114.6,1219,106.11,1234,98.14Z"/><path class="cls-1" d="M1397,39.92c-11.81-2.16-24-3.55-35-9.54-2.39-1.31-5.41-2.57-5-6.06.34-3.1,3.47-3.37,5.62-4.07,13.89-4.52,26.06-1,36.81,8.41a7.93,7.93,0,0,1,2.19,2.69c.9,2.13,2.91,4,1.41,6.79S1399.17,39,1397,39.92Z"/><path class="cls-1" d="M326.63,97.44c.12-7.47.64-14.53-.69-22.07,7.84.41,15.26.86,22.69,1.16a2.84,2.84,0,0,1,3.06,2.56,143.09,143.09,0,0,1,3,19.72Z"/><path class="cls-1" d="M889,224.4a385.67,385.67,0,0,1,51.07-5.2c1.41,3.51.42,7,1,10.69-15.08.83-29.72,1.37-44.25,3.22-2.31.29-3.29-1-4.22-2.71S890.4,226.77,889,224.4Z"/><path class="cls-1" d="M809.58,261.52l-7.32-1.86C819.61,245,840.05,236.61,862.75,230c-1.81,3.15-2.88,5.59-2.85,8.34,0,2-1.86,2-3.25,2.41a211.49,211.49,0,0,0-45.29,19.06A9.75,9.75,0,0,0,809.58,261.52Z"/><path class="cls-1" d="M1000.13,238.69c6.07,1.43,12.54,2.87,15.87,9.67,1.44,2.95,1.4,5.48-1.21,8s-5,1-7-.5c-4.55-3.37-7.87-8-11.69-12.13-.8-.87-1.73-2.17-.9-3.57C996.21,238.33,998.07,238.91,1000.13,238.69Z"/><path class="cls-2" d="M1521.28,176c-22.69,3.76-34.22-15.8-35.25-33a62,62,0,0,1,8.84-36.34c7.56-12.56,19.38-18.41,33.36-20.28,18.46-2.48,36.28-.92,52.23,10,14.21,9.68,18.42,26.52,10.59,41.83-5.22,10.2-13.42,17.66-22.3,24.58-12.47,9.71-25.88,18.21-37.5,29s-16.39,24.63-18.5,39.9a53.31,53.31,0,0,0,4.19,30.2c7.17,15.59,16.34,20.17,33.37,17.36a81,81,0,0,0,19.51-6c3.5-1.54,7-3.2,10.54-4.56,10.37-3.94,10.39-3.9,22.29-1.18-1.54,6.33-6.33,10.41-11.11,13.42-12.84,8.1-27,13.14-42.34,13.5-31,.72-52.23-18.59-54.14-50-1.48-24.22,4.9-46.17,22.47-64C1518.88,179.22,1520.77,178.21,1521.28,176Zm3-2.16c11.68-9.32,22.77-18.08,33.76-27a53.31,53.31,0,0,0,13.3-15.41c4-7.16,2.79-15.35-3-20.48-10.87-9.55-31.76-12.25-44.78-5.81-10.58,5.24-14,15-16.24,25.53-2.85,13.66-.15,25.85,10.72,35.31C1520.59,168.28,1523.15,170.25,1524.32,173.88Z"/><path class="cls-2" d="M1376.23,110.65a85.5,85.5,0,0,1,29-20.12c8-3.33,16.25-4.73,24.86-2.85,4,.88,7.62,2.47,10.11,5.91,3,4.16,1.71,7.84-3.27,9-3.06.71-6.12,1.37-9.34.32-6.42-2.09-12.48-.24-18.37,2.24a106,106,0,0,0-25.59,15.42c-2.11,1.71-3.3,3.49-2.53,6.41,5.42,20.73,3.51,41.61,1.32,62.52-2.44,23.34-5.1,46.68-4.3,70.21.15,4.63,1.21,9.22,1.71,13.85.73,6.8-1.17,10.57-5.46,11.18-6.24.9-11.28-3-12.5-9.42-3.76-19.72-1.87-39.49-.45-59.22,1.53-21.23,5.4-42.3,5.15-63.64a92.61,92.61,0,0,0-7.61-36.9c-2.06-4.62-4.45-9-8.67-12a6.73,6.73,0,0,1-.72-.69c-2.54-2.57-4.12-5.68-2.12-9,2.15-3.56,6-2.69,9-1.58,7.4,2.68,13.59,7,17.12,14.41A36.36,36.36,0,0,0,1376.23,110.65Z"/><path class="cls-1" d="M1690.2,170.67c13.26.55,24.38,5.39,32.4,16.37a19,19,0,0,1,3.64,10.16c.46,7.36-3.46,10.16-10.25,7.38s-12.79-6.71-19.69-9.09c-8-2.76-16.38-3.72-24.44-6-3.39-.95-8.28-.95-8.83-5.81s4.11-6,7.22-7.8C1676.35,172.38,1683,170.27,1690.2,170.67Z"/><path class="cls-1" d="M1425.89,323.61a20.9,20.9,0,0,1-10.54-2.52c-2.54-1.38-4-3.87-1.09-5.86,8.36-5.66,15.82-12.69,25.27-16.69a16.12,16.12,0,0,1,3.68-1.46c2.73-.4,5.73-1.43,7.92,1.21s2,5.43.9,8.47C1448.71,315.88,1436.69,323.69,1425.89,323.61Z"/></g></g></svg>