<svg xmlns="http://www.w3.org/2000/svg" viewBox="0 0 153.82 193.45"><defs><style>.cls-1{fill:#11100b;}.cls-2{fill:#f6d326;}.cls-3{fill:#9acd62;}.cls-4{fill:#d89120;}.cls-5{fill:#a97122;}</style></defs><title>Asset 8</title><g id="Layer_2" data-name="Layer 2"><g id="Layer_1-2" data-name="Layer 1"><path class="cls-1" d="M47.4,13c3.62,1.79,5.9-1.17,8.48-2.6,3-1.68,5.74-3.88,8.63-5.88,3,1.07,2.09,3.64,2.13,6.33,10.51-.69,20.58.85,30.22,5.87,6.36-6.93,13.71-12,23.51-12.42,8.14-.33,14.85,3.23,21.12,7.8C153.68,21,157,39,150.64,55.79c-3,7.92-21.72,18.78-33.46,16.08-1.46,10.23-3.89,20.36-9.15,29.2a81.9,81.9,0,0,0-9.74,26c-.82,4-1.61,8-1.26,12.41,4.78.34,9.53-.41,12.69,4.46,1.19,1.84,2,3.21,1.56,5.26-2.62,13.22-5,26.51-11.08,38.73a5.79,5.79,0,0,0-.44,4.08c-1.82,1.37-3.69,1.35-5.49,1.36-13.49,0-27-.07-40.48.07-2.77,0-4.14-1-5.3-3.38C44.4,181.77,41,173.19,36,165.27c-3.56-5.63-3.5-12.79-3.47-19.46,0-3.78,2.64-5.59,8.88-7.23-.63-9.35-4-18-7.48-26.55-2.55-6.31-5.56-12.44-8.51-18.58a64.92,64.92,0,0,1-6.81-30.34c-6.52-1.51-7.08-2.35-5.73-9.06.59-2.92,1.4-5.81,2.16-8.95-4.27-2.14-9.29-2.93-12.34-7C1.31,36.28-.8,34.84.31,32s3.63-3.13,6.15-3.22c5-.19,10,.08,14.94-1.55-.44-4-.79-7.81.68-11.49,1.92-4.78,3.39-5.4,7.83-3.06,2.06,1.08,4,2.3,6.26,3.56,2.41-4.39,3.12-9.49,6.23-13.44,1.1-1.41,2-3.44,4.24-2.59,1.88.74,2.43,2.63,2.3,4.6-.19,2.77.39,5.7-1.53,8.15-.31-2.41-.52-4.87-2.85-6.64-2.66,2.45-2.2,5.7-3.11,8.43-1.81,5.47-3.78,6.27-8.92,3.86-1.86-.88-3.44-2.61-5.93-2.35-1.76,3.51-1.51,7.22-.7,10.76s-.28,4.24-3.58,4.67c-5.78.74-11.64.8-17.91,1.17,2.76,5.44,7,6.75,10.9,7.73,2.4-.2,2.17-3.55,5.17-2.64.94,6.75-5.28,12.63-3.41,19.61C25.8,53.71,30.65,46.31,36.15,39.6,37.23,38.29,38.4,37,40,36.53c10.24-2.7,14.87-11,19.72-19.24,1.22-2.06.64-3.33-1.36-4.75-4,3.42-8,7-13.95,8.82Zm34,175.88c1.81.16,3.63.21,5.42.48,4.45.66,7.09-.72,9.13-5.22,4.57-10.09,7.2-20.66,9.19-31.42.87-4.74-2.88-8.47-7.61-8.46-3,0-6,.13-9,.19-15.46-.12-30.92-.85-46.39.52-4.6.41-5.18,2.36-4.54,6.12a94.86,94.86,0,0,0,10.63,30.16c.82-2.27.22-4.09-.36-6a54.07,54.07,0,0,1-2.56-16.22c0-1.77-.5-3.74,2.84-4.94a177.75,177.75,0,0,0,7.3,32.35l-3.39,1.66c1.5,2,3,1.56,4.56,1C64.92,189.25,73.17,189.7,81.41,188.87ZM76,138c3.57-9.61,6.11-19.59,8.62-29.56,6.44-25.63,4.69-51.57,2.71-77.5-.27-3.56-.62-7.07.59-10.65.66,2.26,1.33,4.51,2.06,7,2.59-1.77,4.73-3.75,4.34-6.5-.33-2.33-3.26-2.47-5.2-3.27C82.63,14.86,75.86,14.35,69,14.62a5.42,5.42,0,0,0-5.54,4A36.8,36.8,0,0,1,47.32,37.42a3.62,3.62,0,0,0-2.11,3,119.62,119.62,0,0,0,5.13,51.21c3.33,10.29,8.21,20,11.24,30.35.83,2.87,1.44,6,4.88,9.56V18.75c2.07,2.76,2.24,5.66,2.25,8.61q0,52.23.14,104.44C68.86,138.55,68.87,138.55,76,138ZM98.16,49.83C106.08,46.48,112.35,41,120,37.91c7.08-2.85,13.69-6.83,20.52-10.31,1.2-.61,2.41-1.34,3.42.32s0,2.51-1.21,3.23-2.63,1.43-4,2.11L100.07,52.89c2.52,3.89,5.9,6.27,9.41,8.48a3.92,3.92,0,0,0,3.76.26c13.27-5,24.33-13.32,34.67-22.76a3.87,3.87,0,0,0,1.57-3.45C148.82,29,147,23,142.55,18.11c-.82-.89-1.61-2.37-3.27-1.41-3,1.74-6.22.7-9.31.59a22.79,22.79,0,0,0-14.2,3.77c-4.75,3.24-9.92,5.84-13.44,10.75a17.84,17.84,0,0,1-7.84,6.49A34.06,34.06,0,0,0,98.16,49.83Zm-35.3,88.82a21.77,21.77,0,0,0-.72-3.11c-5.64-13.35-9.46-27.34-14.52-40.89-5.58-15-8.36-30.43-6.82-46.51.17-1.8,1-4-1.16-5.7-3.77,4.25-6.9,9.29-11.36,12.44-5.5,3.87-5,8.72-4.7,13.95A40.65,40.65,0,0,0,27.2,83.5c1.53-5.81-2.35-10.47,1-15A52.34,52.34,0,0,0,30.6,83.33c.44,1.59,2.17,3.08-1.4,3.71-1.78.31-.52,3.22.69,3.92,3.66,2.12,3.86,1.91,4.7,4.05,2.39,6.12,5.52,11.73,6.5,18.67,1,7.11,4.48,14,5.86,21.34.31,1.64.38,3.76,3.14,3.67C54.19,138.55,58.3,138.65,62.86,138.65ZM92.21,49.82c5,30.67-2.22,59.55-11.52,88.3a25.21,25.21,0,0,0,2.55.24c8.41-.28,8.46,2.11,9.56-8.16A72.74,72.74,0,0,1,99,107.7c5.39-11.8,10.64-23.69,13-36.58.31-1.65.95-3.17-1.15-4.24A45.47,45.47,0,0,1,92.21,49.82ZM94,34.28c12-11.13,21.93-23.62,40.85-20.57-7.7-7.11-15.67-6.56-22.87-3.47C102.17,14.44,95.46,21.6,94,34.28Zm54.31,9.83c-9.42,8.78-20,14.73-31.57,20.13C127.37,70.62,145.34,62.44,148.31,44.11Z"/><path class="cls-2" d="M47.4,13l-3,8.37c5.91-1.8,9.91-5.4,13.95-8.82,2,1.42,2.58,2.69,1.36,4.75C54.88,25.5,50.25,33.83,40,36.53c-1.61.43-2.78,1.76-3.86,3.07-5.5,6.71-10.35,14.11-19.08,17.95-1.87-7,4.35-12.86,3.41-19.61-3-.91-2.77,2.44-5.17,2.64-3.89-1-8.14-2.29-10.9-7.73,6.27-.37,12.13-.43,17.91-1.17,3.3-.43,4.36-1.25,3.58-4.67s-1.06-7.25.7-10.76c2.49-.26,4.07,1.47,5.93,2.35,5.14,2.41,7.11,1.61,8.92-3.86.91-2.73.45-6,3.11-8.43,2.33,1.77,2.54,4.23,2.85,6.64Z"/><path class="cls-3" d="M76,138c-7.08.55-7.09.55-7.1-6.2q-.09-52.22-.14-104.44c0-2.95-.18-5.85-2.25-8.61V131.56c-3.44-3.55-4-6.69-4.88-9.56-3-10.39-7.91-20.06-11.24-30.35a119.62,119.62,0,0,1-5.13-51.21,3.62,3.62,0,0,1,2.11-3A36.8,36.8,0,0,0,63.44,18.57a5.42,5.42,0,0,1,5.54-4c6.88-.27,13.65.24,20.09,2.91,1.94.8,4.87.94,5.2,3.27.39,2.75-1.75,4.73-4.34,6.5-.73-2.5-1.4-4.75-2.06-7-1.21,3.58-.86,7.09-.59,10.65,2,25.93,3.73,51.87-2.71,77.5C82.06,118.41,79.52,128.39,76,138Z"/><path class="cls-4" d="M55.5,186.47a177.75,177.75,0,0,1-7.3-32.35c-3.34,1.2-2.84,3.17-2.84,4.94a54.07,54.07,0,0,0,2.56,16.22c.58,1.87,1.18,3.69.36,6a94.86,94.86,0,0,1-10.63-30.16c-.64-3.76-.06-5.71,4.54-6.12,15.47-1.37,30.93-.64,46.39-.52,0,6-1,11.83-1.69,17.74-1,9.09-4,17.73-5.48,26.69-8.24.83-16.49.38-24.74.23C56.55,188.1,56.69,187,55.5,186.47Z"/><path class="cls-3" d="M98.16,49.83A34.06,34.06,0,0,1,94.49,38.3a17.84,17.84,0,0,0,7.84-6.49c3.52-4.91,8.69-7.51,13.44-10.75A22.79,22.79,0,0,1,130,17.29c3.09.11,6.3,1.15,9.31-.59,1.66-1,2.45.52,3.27,1.41C147,23,148.82,29,149.48,35.42a3.87,3.87,0,0,1-1.57,3.45c-10.34,9.44-21.4,17.76-34.67,22.76a3.92,3.92,0,0,1-3.76-.26c-3.51-2.21-6.89-4.59-9.41-8.48l38.72-19.63c1.34-.68,2.7-1.33,4-2.11s2.2-1.61,1.21-3.23-2.22-.93-3.42-.32c-6.83,3.48-13.44,7.46-20.52,10.31C112.35,41,106.08,46.48,98.16,49.83Z"/><path class="cls-3" d="M62.86,138.65c-4.56,0-8.67-.1-12.77,0-2.76.09-2.83-2-3.14-3.67-1.38-7.32-4.86-14.23-5.86-21.34-1-6.94-4.11-12.55-6.5-18.67-.84-2.14-1-1.93-4.7-4.05-1.21-.7-2.47-3.61-.69-3.92,3.57-.63,1.84-2.12,1.4-3.71a52.34,52.34,0,0,1-2.44-14.79c-3.31,4.49.57,9.15-1,15a40.65,40.65,0,0,1-3.62-14.67c-.29-5.23-.8-10.08,4.7-13.95,4.46-3.15,7.59-8.19,11.36-12.44,2.16,1.75,1.33,3.9,1.16,5.7C39.26,64.22,42,79.66,47.62,94.65c5.06,13.55,8.88,27.54,14.52,40.89A21.77,21.77,0,0,1,62.86,138.65Z"/><path class="cls-3" d="M92.21,49.82a45.47,45.47,0,0,0,18.68,17.06c2.1,1.07,1.46,2.59,1.15,4.24C109.64,84,104.39,95.9,99,107.7a72.74,72.74,0,0,0-6.2,22.5c-1.1,10.27-1.15,7.88-9.56,8.16a25.21,25.21,0,0,1-2.55-.24C90,109.37,97.18,80.49,92.21,49.82Z"/><path class="cls-5" d="M81.41,188.87c1.51-9,4.49-17.6,5.48-26.69.64-5.91,1.72-11.77,1.69-17.74,3-.06,6-.18,9-.19,4.73,0,8.48,3.72,7.61,8.46-2,10.76-4.62,21.33-9.19,31.42-2,4.5-4.68,5.88-9.13,5.22C85,189.08,83.22,189,81.41,188.87Z"/><path class="cls-3" d="M94,34.28c1.46-12.68,8.17-19.84,18-24,7.2-3.09,15.17-3.64,22.87,3.47C115.93,10.66,106.05,23.15,94,34.28Z"/><path class="cls-3" d="M148.31,44.11c-3,18.33-20.94,26.51-31.57,20.13C128.3,58.84,138.89,52.89,148.31,44.11Z"/><path class="cls-5" d="M55.5,186.47c1.19.52,1,1.63,1.17,2.63-1.54.59-3.06,1-4.56-1Z"/></g></g></svg>