<svg xmlns="http://www.w3.org/2000/svg" viewBox="0 0 330.16 302.94"><defs><style>.cls-1{fill:#050505;}</style></defs><title>Asset 17</title><g id="Layer_2" data-name="Layer 2"><g id="Layer_1-2" data-name="Layer 1"><path class="cls-1" d="M330.16,210.61c-1.49,0-1.38,1.2-1.51,2.1-2.39,16.5-11.46,29.35-22.88,40.66-22.19,22-49.57,34.58-79.42,42.08-33.86,8.5-68.28,8.92-102.81,5.44-6-.6-11.91.88-17.91-1.44a95.33,95.33,0,0,1-35.51-23.56c-31.93-34-55.19-73-65.24-119-5.08-23.23-7-46.82-1.72-70.42,5.37-23.81,19.2-31.22,42.19-22.67,19.13,7.11,32.31,21.31,43.85,37.34,6.89,9.58,12.54,19.91,17.93,30.69,1.55-17,5-33.17,12.91-48.24,7.54-14.35,16.34-27.72,28.07-39-12.42,18.79-23.43,38.22-30.52,59.68-3.69,11.13-4.8,22.8-7.1,34.22-.45,2.27.7,4.21,1.42,6.23,7,19.42,11.94,39.23,11,60.07a63.93,63.93,0,0,1-4.19,19.57c-1.35-4-.4-6.87-.18-9.73,1.16-15-1.41-29.56-5.31-43.94A206.55,206.55,0,0,0,84.13,107.1C75.28,94.24,65,82.69,51.2,74.87a48.59,48.59,0,0,0-21.27-6.68c-7.18-.42-12.22,2.54-15.3,8.93a47.86,47.86,0,0,0-4.34,20.37c-.4,29.16,8.24,55.77,22.92,80.65a391.43,391.43,0,0,0,31.11,44.69,520.3,520.3,0,0,1,44.61,65.67c1.43,2.51,2.6,4,6.13,3.17,34.77-7.86,69.44-16.13,103.68-26.1,23.5-6.85,45.91-16.07,65.25-31.59a155.27,155.27,0,0,0,23.06-23.5,37.06,37.06,0,0,0,8.75-24.43c0-1.64-.32-3.57,1.77-4.19s3.56.48,5,2.2a26.6,26.6,0,0,1,5.81,12.88c.29,1.57-.51,3.77,1.77,4.67Z"/><path class="cls-1" d="M260.82,172.31c-8,1.15-16,2.43-24.08,3.41a11.26,11.26,0,0,0-8.49,5.16,259.12,259.12,0,0,1-37.74,42.55c-22.67,20.31-48.94,32.55-78.6,35.06,27.59-29.75,59.63-56.06,86.94-87.05,22.48-25.52,40.07-54,48.73-87.36,5.88-22.64,6.86-45.22-.13-67.81-1.8-5.81-4.83-11-8-16.27a26.18,26.18,0,0,1,13.44,12.21c21.9,41.68,15.52,83.31-.18,124.86A177,177,0,0,1,236.21,169c-.94,1.49-2.42,2.79-2.26,5.43C243,172.8,252,172.58,261,172Z"/><path class="cls-1" d="M260.82,172.31,261,172c4.38-3.08,9.26-.46,13.87-1.11C270.3,172.24,265.82,174.64,260.82,172.31Z"/></g></g></svg>