<svg xmlns="http://www.w3.org/2000/svg" viewBox="0 0 140.73 186.59"><defs><style>.cls-1{fill:#131510;}.cls-2{fill:#98c269;}.cls-3{fill:#d79120;}.cls-4{fill:#aa7122;}.cls-5{fill:#fbfbfb;}.cls-6{fill:#734e12;}</style></defs><title>Asset 5</title><g id="Layer_2" data-name="Layer 2"><g id="Layer_1-2" data-name="Layer 1"><path class="cls-1" d="M84.39,60.81C86.32,58,86.21,54,89.55,51.56c1.7,3-.18,5.51-.32,8.09-1.87,5.23-5.45,10.08-3.59,16.14-1.78-.23-2.69.73-2.16,2.3,1.43,4.22,1.66,8.61,2.11,13.92,3.69-7,5.92-13.77,9.62-19.79,1.08-1.74.1-3.89-.34-5.84-1.39-6.12-2.58-12.26,0-18.45,2.75,8,.62,17.06,5.48,25.13,2.47-3.91,1.08-7.68,1-11.28,0-2.66-.48-5.3-.61-8-.06-1.22-.69-2.77,1-3.48,1.93-.83,2.38.92,3.23,2.43,2-8.29.86-16.8,4.58-25.14,2.22,3.38,1.36,6.29,1.69,9q-1.23,6.88-2.47,13.76a15.65,15.65,0,0,0,5.48-12.63c-1.88-6.21,1.64-11.2,3.38-17.26,3.34,3.52.4,6.78.86,10.7,4.71-5.33,6.29-12.32,13.2-16.51-1.66,7-5.76,11-7.71,16-2.56.89-2.85,2.7-2.23,5.38a9.84,9.84,0,0,0,4.61-4.38l0,0a1,1,0,0,0,1-1l0,0,1-1,0,0,1.1-1c1.66-1,2.59-3.19,4.92-3.18l2,1-7,7.59c-2.09.52-2.91,2.26-4.24,4.22A5.08,5.08,0,0,1,129,42.7c2.44-.2,4.11-2.34,6.33-1-5.1,5.76-11.58,9.93-17.21,15.08-2-.92-2.48,2.65-4.84,1.43,1.36-3.8,5.33-5.21,7.24-8.34.24-.32.76-.78.69-.93-.43-.85-.91-.26-1.36.07-5.18.5-7.89,4.11-9.2,8.44-1.13,3.73-3.09,7-4.36,10.65-1.54,4.43-3.27,8.81-2.78,14.19,3.63-1.08,6-3.16,8.65-4.72s5.15-4.31,8.85-3.93c-3.52,5.65-9.45,8-15,10.65-2,.93-3.23,1.7-3.7,4-2.92,14.52-5,29.13-5,44.43,6.82,0,13.78,0,20.75,0,6.37.06,10.56,4.7,9.33,10.83-2.59,12.86-4.8,25.87-11,37.66-.76,1.45-.06,2.85-.35,4.12a22.88,22.88,0,0,1-8.14,1.07c-12.32,0-24.65-.13-37,.1-3.41.06-5.13-1.22-6.38-4.15-2.74-6.38-4.73-13.38-8.76-18.85-4.35-5.9-5.89-12.06-6.55-18.9-.31-3.11-1.17-6.07.82-9.14,1.34-2.07,2.64-3.17,5.11-3.08,7.4.29,14.83.7,22.35-2.73,1.41-6.83-2.09-13.41-4.28-20.23-1-3.82-.31-8.72-5.92-9.78-7.34-2.92-15.46-3.87-22.6-8.27,1.85-1.67,3.34-.5,4.72-.74l19,5.86c.14-1.31.1-2.26-.87-2.89C65.87,82.46,56.8,80.83,48.09,78.9,46,78.42,44,78,42.55,76.2c1-1.25,3,.4,3.87-1.34l13.75,4.55-3.38-4.57c-1.19-2.83-3.22-3.56-6.31-3.47-5.59.15-11.26.36-17-1.11,2.14-2.21,5.64-.49,8-3.2-6.12-2.64-12.73-2.18-18.09-5.8,7.14-.93,14.08,1.29,21.2,1.61-.1-1.64-1.13-1.88-1.9-2.38a1.05,1.05,0,0,0-1.3-.82l0,0a2.28,2.28,0,0,0-2.06-2C37.55,56,36,54,33.24,53.72l-5.52-6.2c-2,.76-.39,2.42-1.72,3.17l-7.43-1.88C12.8,47,6.79,45.63,2.05,41.43c6.15-.6,11.18,2.94,16.83,4,.42,0,1,.17,1.24-.05.4-.43,0-.77-.47-1-3-4.64-9.2-6.7-10.49-12.77,4.79,1.64,7.78,5.6,11.43,8.75.65.56,1.58,4,3.09.46.58,1,1.32,1.48,2.5.89-.37-2.92-.74-5.86-1.11-8.79,3.35-.46,3.08,2.48,3.64,4.23,2.26,7,4.85,13.7,12.4,16.78.26.4.54.77.94.17,0-.07-.32-.4-.5-.61a15,15,0,0,0-1.25-5.9c.28-3.75-1.65-7.67,1.05-12.13,3.24,6.24,2,12.84,4.53,18.45.16,3.34.82,6.34,5,7.61-.52-4.54.24-8.81-1.48-12.85C50,46,48.71,42.85,51.05,40c2.92,4.15,1.55,8.92,3,13-.58,3.45,1.76,7.56-2.47,10.15,1.27,1.56,2.65,2.91,4.53,2.35,2.47-.72,1.19-2.95,1.32-4.59,2.64-1.63.57-6.21,4.47-7.08,1.06,1.07.27,2.49.62,3.7l-2,12.11c-.49,2.94,0,5.53,2.69,7.26.91,1.1,1.4,2.61,3.08,3.25,2.14-5.09,4-10.2,8-14.24,1.4-1.43,1.89-3.53-.7-4.88-1.6-.84-3-2-4.63-2.84-1.16-.57-2-1.12-1.64-2.53.46-1.65,2-.6,2.94-1.05,1.63.56,2.55,3.52,5.16,1.32l-1.15-4.16c.08-.68-.36-.93-.91-1.09l.08,0C69.19,47,62.85,47.15,58.78,43c-.66-.68-1.76-1-1.81-2.42,2.16-1,3.93.93,5.92,1,.76.19,1.73,1.39,2.19.1.32-.9-1-.77-1.66-1-2.59-3.57-7.5-4.94-9.32-10.09l7.09,3.07c1.56,4.23,5.92,4.57,9.64,7.42C70,35.89,67,34,63.44,32.63L50.82,24.56l3.53-.85,12.94,7.55a9,9,0,0,0-5.94-8.61l-1-1,.08,0c-1.61-3.87-4.91-6.56-7-10.07-.85-1.4-2.28-2.62-.24-4.13,4.29,2.22,5.41,7.36,8.95,10.23,1.5-.92.7-2.89,2.27-3.36,2.33,1.37,1.71,4.78,4.36,6.14A84.65,84.65,0,0,1,76.63,5.64c2.52.38,2.64,1.63,1.74,3.56-2.15,4.64-4.22,9.32-6.34,14-1.57,3.47-1,6.62,1.45,10.48,2.53-6.8,3.83-13.19,7.84-19.73.3,13.63-7.9,25.63-2.47,38.63,3.33-5.28,5.54-11.18,10.21-17,.45,7.66-4.14,12.36-5.93,18-3.47,5.81-3.52,6.42-.6,13.44Zm-3,41.87c1.44-1.23,1.29-2.87,1.11-4.49-.47-4-1-8.09-1.44-12.13.35-1.87-.32-3.53-1-5.26-6.83,8.67-7.74,16.68-2.85,25.66Zm26,34.7c-2.49,0-5.42-1-7.37,0-6.51,3.31-13.3,1.47-19.94,2.1-7.2.69-13.77-3.68-21.23-1.8-3.8.95-5.53,1.45-4.8,5.87a91.87,91.87,0,0,0,8,25.54c.43.86.42,2.42,2.44,2-.67-7.9-4.87-15.69-1.81-23.82,1.69.15,2.28.91,2.32,1.68.57,10.88,4.54,21,6.93,31.5-1,.19-2.39-.16-2.49,1.47,1.05,1.33,2.12.84,3.19.37,9.24-.27,18.51.69,27.74-.52,1,.07,2,.08,3,.24,4.48.75,7.24-.7,9.15-5.2a163.58,163.58,0,0,0,8.61-28.56c2.32-10.42,1.57-11.37-9.33-11.29C110.32,137,108.85,137.24,107.38,137.38ZM96.3,76.74C92.05,88.33,85.2,98,90.83,109.83,98.74,100.28,98.78,89.45,96.3,76.74ZM70.57,92.81c3.3-6.69,5.31-13,9.13-18.64-1.73-1.33-2.78-2.65-5.08-2.65C72.72,78.18,69.22,84.55,70.57,92.81ZM87,108.94c-.25,6.33-3.3,12.23-2.66,18.6.13,1.28-.73,3.4,1.83,3.08,2-.24,1.24-2,1.18-3.16C87,121.28,86.88,115.09,87,108.94Z"/><path class="cls-2" d="M121,73.66c-3.7-.38-6,2.29-8.85,3.93s-5,3.64-8.65,4.72c-.49-5.38,1.24-9.76,2.78-14.19,1.27-3.63,3.23-6.92,4.36-10.65,1.31-4.33,4-7.94,9.2-8.44l.67.86c-1.91,3.13-5.88,4.54-7.24,8.34,2.36,1.22,2.87-2.35,4.84-1.43-1,1.62.06,2,1.35,2.14-2.24,2.85-6.57,3.45-8.12,7.06,1.26,1.34,2-.24,2.87-.07.05,2.61,2.14,1.48,3.4,1.86-2.43,2.9-7,2.88-9.33,7.09,5.9-.41,10-4.28,15-5.45C124.42,71.85,123.91,73.39,121,73.66Z"/><path class="cls-1" d="M114.24,65.93c-.91-.17-1.61,1.41-2.87.07,1.55-3.61,5.88-4.21,8.12-7.06l0,0a1.82,1.82,0,0,0,2.09-1.06c6.46-3.1,12-8,19.17-10.17C140.64,51.37,131.91,57.25,114.24,65.93Z"/><path class="cls-2" d="M40.3,47.65a15,15,0,0,1,1.25,5.9l-.44.44C33.56,50.91,31,44.24,28.71,37.21c-.56-1.75-.29-4.69-3.64-4.23-1.12-1.55-.59-2.71,1.31-4C30.66,35.49,34.45,42.38,40.3,47.65Z"/><path class="cls-1" d="M123.3,69.43c-5,1.17-9.09,5-15,5.45,2.28-4.21,6.9-4.19,9.33-7.09,5.15-2,10.1-4.8,17-4.54C131.07,67.31,126.43,67,123.3,69.43Z"/><path class="cls-1" d="M71.73,108.77c-8.51,0-14.76-5.44-23.22-8.69,4.47-1,7.18.37,10,1.12C62.82,103.88,68.32,104.49,71.73,108.77Z"/><path class="cls-2" d="M64.42,14.35c-1.57.47-.77,2.44-2.27,3.36-3.54-2.87-4.66-8-8.95-10.23C53.6,5,51.52,2.76,52.72,0c3.79,1,4.37,5.79,8.08,6.65.75,2.55-.57,6.11,3.42,7.1l.36.21Z"/><path class="cls-2" d="M135.35,41.72c-2.22-1.36-3.89.78-6.33,1a5.08,5.08,0,0,0-3.86-4.39c1.33-2,2.15-3.7,4.24-4.22.06,1.93,1.89,2.42,2.81,3.62,2.31-.52,4.15-2.44,6.66-1.74C140.72,39.77,138.08,40.78,135.35,41.72Z"/><path class="cls-2" d="M23.68,40.88c-1.51,3.51-2.44.1-3.09-.46C16.94,37.27,14,33.31,9.16,31.67,6,31.2,5.75,28.85,5.38,25.41A59,59,0,0,1,23.68,40.88Z"/><path class="cls-2" d="M18.57,48.81,26,50.69c1.33-.75-.24-2.41,1.72-3.17l5.52,6.2-2.4,1c-1.6-2.17-3.62-2.28-6.25-2.15-3.37.18-6.53,2-10,1.1Z"/><path class="cls-2" d="M61.35,22.65a9,9,0,0,1,5.94,8.61L54.35,23.71c-.11-1.8,0-3.38,2.53-2.53,1.16.39,2.26,1.36,3.6.5l-.08,0C60.1,22.57,60.81,22.53,61.35,22.65Z"/><path class="cls-2" d="M71.73,108.77c-3.41-4.28-8.91-4.89-13.23-7.57.72-2.72,2.56-1.28,3.91-.92a56,56,0,0,1,5.29,1.94c.81-1.3-.12-1.8-.37-2.49,5.6,1.06,4.87,6,5.91,9.78Z"/><path class="cls-2" d="M67.55,93.69c1,.63,1,1.58.87,2.89l-19-5.86c-1.47-3.17,1.05-1.8,2-1.61C56.94,90.19,61.94,93,67.55,93.69Z"/><path class="cls-2" d="M63.26,76.87c-2.74-1.73-3.18-4.32-2.69-7.26l2-12.11A61.16,61.16,0,0,1,63.26,76.87Z"/><path class="cls-2" d="M114.27,37.76a15.65,15.65,0,0,1-5.48,12.63q1.23-6.89,2.47-13.76C112.16,37.27,113,38.2,114.27,37.76Z"/><path class="cls-1" d="M14.61,53.7c3.45.94,6.61-.92,10-1.1,2.63-.13,4.65,0,6.25,2.15-5.28.47-10.54,1.4-15.89,1-1-.09-1.89-.36-2-1.5A7.54,7.54,0,0,1,14.61,53.7Z"/><path class="cls-2" d="M85.64,75.79c-1.86-6.06,1.72-10.91,3.59-16.14-.29,4.95-.52,9.9-.9,14.85C88.21,76.19,88,78.42,85.64,75.79Z"/><path class="cls-2" d="M49.41,48.73c1.72,4,1,8.31,1.48,12.85-4.19-1.27-4.85-4.27-5-7.61,1.87-.09,2.55-1,2-2.83C47.5,49.74,48.24,49.12,49.41,48.73Z"/><path class="cls-2" d="M63.44,32.63C67,34,70,35.89,70.83,41.08c-3.72-2.85-8.08-3.19-9.64-7.42C62.09,33.64,63.06,33.77,63.44,32.63Z"/><path class="cls-2" d="M56.79,74.84l3.38,4.57L46.42,74.86l-1.67-2C49.2,72.43,52.68,75.64,56.79,74.84Z"/><path class="cls-2" d="M74.31,51.74l1.15,4.16c-2.61,2.2-3.53-.76-5.16-1.32C70.65,52,67,52.41,66.9,50c2.2.36,4.31,1.52,6.58.74l-.08,0C73.13,51.49,73.73,51.61,74.31,51.74Z"/><path class="cls-2" d="M57.46,60.88c-.13,1.64,1.15,3.87-1.32,4.59-1.88.56-3.26-.79-4.53-2.35,4.23-2.59,1.89-6.7,2.47-10.15C56.86,54.9,54.22,59.15,57.46,60.88Z"/><path class="cls-1" d="M64.22,13.75c-4-1-2.67-4.55-3.42-7.1L62,6.49c-.2,1,.32,1.39,1.24,1.44C64.16,9.76,65,11.62,64.22,13.75Z"/><path class="cls-2" d="M84.39,60.81l-1.86,6.12c-2.92-7-2.87-7.63.6-13.44-.28,2.2-.68,4.4-.79,6.6S83.35,61.57,84.39,60.81Z"/><path class="cls-2" d="M39.36,57.73a2.28,2.28,0,0,1,2.06,2C36.9,60,32.78,58.34,28.59,57Z"/><path class="cls-2" d="M10,39.88C5.92,38.9,3.23,38,0,35.77,4,36,6.55,37.31,10,39.88Z"/><path class="cls-2" d="M126.38,31.7a9.84,9.84,0,0,1-4.61,4.38c-.62-2.68-.33-4.49,2.23-5.38C124.42,31.93,125.42,31.75,126.38,31.7Z"/><path class="cls-2" d="M136.37,26.5l-2-1c-.09-1.47.81-1.79,2-1.75l-.05-.05C135.31,24.67,139.65,25.56,136.37,26.5Z"/><path class="cls-2" d="M139,20.94l-.71.36c0-.11-.1-.29-.06-.33a6.52,6.52,0,0,1,.67-.45C138.92,20.66,139,20.8,139,20.94Z"/><path class="cls-2" d="M63.2,7.93c-.92,0-1.44-.43-1.24-1.44C63.63,5.9,63.34,7,63.2,7.93Z"/><path class="cls-2" d="M121.56,57.85a1.82,1.82,0,0,1-2.09,1.06C119.77,57.78,120.65,57.78,121.56,57.85Z"/><path class="cls-2" d="M41.38,59.67a1.05,1.05,0,0,1,1.3.82A1,1,0,0,1,41.38,59.67Z"/><path class="cls-2" d="M136.4,23.79l.11-.33c0,.09-.11.18-.16.28Z"/><path class="cls-2" d="M129.46,28.72l-1.1,1Z"/><path class="cls-2" d="M128.4,29.73l-1,1Z"/><path class="cls-2" d="M127.39,30.72a1,1,0,0,1-1,1A1,1,0,0,1,127.39,30.72Z"/><path class="cls-3" d="M72,180.46C69.56,170,65.59,159.84,65,149c0-.77-.63-1.53-2.32-1.68-3.06,8.13,1.14,15.92,1.81,23.82-2,.44-2-1.12-2.44-2a91.87,91.87,0,0,1-8-25.54c-.73-4.42,1-4.92,4.8-5.87,7.46-1.88,14,2.49,21.23,1.8,6.64-.63,13.43,1.21,19.94-2.1,1.95-1,4.88-.07,7.37,0,0,6.13-1.11,12.14-1.71,18.21-.88,8.93-4.28,17.3-5.28,26.18-9.23,1.21-18.5.25-27.74.52Z"/><path class="cls-4" d="M100.39,181.78c1-8.88,4.4-17.25,5.28-26.18.6-6.07,1.75-12.08,1.71-18.21,1.47-.15,2.94-.41,4.41-.42,10.9-.08,11.65.87,9.33,11.29a163.58,163.58,0,0,1-8.61,28.56c-1.91,4.5-4.67,6-9.15,5.2C102.38,181.86,101.38,181.85,100.39,181.78Z"/><path class="cls-2" d="M81.36,102.68l-4.16,3.78c-4.89-9-4-17,2.85-25.66.66,1.73,1.33,3.39,1,5.26-.75,4.57-1.37,9.16-2.32,13.69C78.19,102.28,79.56,102.54,81.36,102.68Z"/><path class="cls-5" d="M70.57,92.81c-1.35-8.26,2.15-14.63,4.05-21.29,2.3,0,3.35,1.32,5.08,2.65C75.88,79.77,73.87,86.12,70.57,92.81Z"/><path class="cls-6" d="M72,180.46l.7,1.84c-1.07.47-2.14,1-3.19-.37C69.56,180.3,70.94,180.65,72,180.46Z"/><path class="cls-5" d="M63.42,40.68c.66.18,2,0,1.66,1-.46,1.29-1.43.09-2.19-.1Z"/><path class="cls-2" d="M119.87,49c.45-.33.93-.92,1.36-.07.07.15-.45.61-.69.93Z"/><path class="cls-5" d="M61.35,22.65c-.54-.12-1.25-.08-1-1Z"/><path class="cls-5" d="M19.65,44.44c.46.19.87.53.47,1-.2.22-.82,0-1.24.05C19.14,45.11,19.4,44.78,19.65,44.44Z"/><path class="cls-2" d="M41.55,53.55c.18.21.54.54.5.61-.4.6-.68.23-.94-.17Z"/><path class="cls-5" d="M74.31,51.74c-.58-.13-1.18-.25-.91-1.09C74,50.81,74.39,51.06,74.31,51.74Z"/></g></g></svg>