<svg xmlns="http://www.w3.org/2000/svg" viewBox="0 0 148.67 157.1"><defs><style>.cls-1{fill:#0f0e09;}.cls-2{fill:#99cb61;}.cls-3{fill:#d89120;}.cls-4{fill:#ab7222;}</style></defs><title>Asset 13</title><g id="Layer_2" data-name="Layer 2"><g id="Layer_1-2" data-name="Layer 1"><path class="cls-1" d="M55,0c7.08,6.25,7.93,14.52,7.89,23.28-.08,13.84.67,27.62,6.86,41.43,3.51-7.14,5-14.35,7.1-21.3,2-6.74.88-13.47-.41-20.25C76,20.88,74,17.34,77.14,16c2.94-1.28,5.22,1.7,6.89,3.85,7.43,9.6,10.82,20.77,12,32.69.21,2.13,0,4.29,0,7.64a102,102,0,0,0,11.08-13c5.56-7.39,8.78-16,12.51-24.31,1.36-3,2.58-6.14,6.62-5.44a7.72,7.72,0,0,1,6.84,6.79c1.7,9.87,1.85,19.65-1.53,29.19-2.27,6.38-3.23,13.18-6.41,19.65,5.35-.28,9.72-2.89,13.72-5.47,6.7-4.33,9.29-1.49,9.72,5.49.81,12.91-7.47,26.33-19.49,31.72-3.33,1.49-6.75,2.79-10,4.12.32,8.66-2.5,16.56-4.34,24.63a109.66,109.66,0,0,1-8.3,23c-2.32.81-5.33.42-8.3.44-12.16,0-24.33-.06-36.49.09-3.1,0-4.72-1.08-6.09-3.87-3.77-7.69-6.36-15.86-11.64-23-4.07-5.47-2.9-13.12-4.19-20.27C21.26,109.62,9.65,98.28,0,84V79c2.57-4.64,6.42-4.62,10.9-3.31,1.95.56,4.38,2,6.34-.74-4.6-5.45-10.18-10.07-11-17.82-.65-6.53-.42-12.89,2-19,.74-1.86,2-3.71,4.25-3.79S15.5,36.48,16,38.06c.83,2.41,2.56,3.88,4.38,5.27q8.8,6.77,17.8,13.3c1.08.78,2,2.22,3.69,1.91A5.63,5.63,0,0,0,42,57.47c-.21-2.48-.59-5-.67-7.45C40.78,32.32,41,14.78,53,0Zm8.29,152.09a3,3,0,0,0-2.8,1.76,3.89,3.89,0,0,0,3.56,0c9,.18,17.91.45,26.85-.15,1.16.1,2.32.13,3.46.32,4.62.75,7.53-.68,9.57-5.35a149.83,149.83,0,0,0,7.71-24.13c4-16.27,4-15.9-13.67-15.39-11-.07-22,0-33-.24a112.79,112.79,0,0,0-15.92,1c-2.38.29-4.38,1-3.91,4a92.54,92.54,0,0,0,11,32.08c-.18-9.78-5.21-18-1.9-26.75,1.6.34,2.22,1,2.26,1.82C57,131.73,61.06,141.71,63.29,152.09Zm21.84-48c1-9.73-3-17.2-10.93-21.61C70,80.08,65,79.1,61,76.53c-11.8-7.65-24.33-14.2-35-23.6-4.26-3.73-8.29-7.88-14.08-12,.16,8.59-3.16,16.09,2.85,23.33,7.45,9,16.49,16.21,25.16,23.77,5,4.38,10.52,8.92,17.67,10.12a3.43,3.43,0,0,1,3,3.5c-2.45,1.61-4.84.37-7.19-.09-8.46-1.67-14.66-7.3-20.34-13-7.71-7.73-17.64-6.27-27.9-9.16,4,8.34,8.15,14.84,15.64,18.27,8.59,3.93,16.72,8.06,27.21,6.7C60.09,102.85,72.53,104.05,85.13,104.05Zm40.12-81.61c-9.61,23.48-22.43,44.29-46,56.08,7.24,6.83,13,14.5,11.52,26,10.62-.77,20.91,1.73,30.92-1.76,8.42-3,15.55-7.7,19.41-16.1,2.13-4.64,3.13-9.56,1.72-14.55C127.25,79.51,112.12,86,94.85,86c.07-3.64,1.69-4,3.7-4.27a97.44,97.44,0,0,0,17-3.76c2.4-.71,4-1.77,4.71-4.45,2.24-8,5-15.85,7.25-23.83a69.52,69.52,0,0,0,2.26-19.28C129.76,27.18,129.33,24,125.25,22.44ZM53.92,6.24a29.61,29.61,0,0,0-4.38,9.67C46.18,29,44.65,42.32,46.92,55.81c.8,4.78,1.73,9.28,7.41,11.18,3.38,1.13,6.28,3.68,9.49,5.39,1.11.59,2.28,2.06,3.82.83C65.38,67.05,62.72,61.13,61,54.93c-3.22-11.79-3.19-24-3.18-36.09C57.85,14.46,57.51,10,53.92,6.24ZM75.45,77.8l1.3.34c0-4,2.68-5,5.42-6.35,4.07-2,7.85-4.41,8.55-9.58C92.37,50,89.41,38.86,83.52,28.3c-.08-.13-.6,0-1.47,0A67.38,67.38,0,0,1,71.77,69.84Z"/><path class="cls-2" d="M85.13,104.05c-12.6,0-25-1.2-37.12.37-10.49,1.36-18.62-2.77-27.21-6.7C13.31,94.29,9.18,87.79,5.16,79.45c10.26,2.89,20.19,1.43,27.9,9.16,5.68,5.68,11.88,11.31,20.34,13,2.35.46,4.74,1.7,7.19.09a3.43,3.43,0,0,0-3-3.5C50.44,97,44.94,92.44,39.92,88.06c-8.67-7.56-17.71-14.8-25.16-23.77-6-7.24-2.69-14.74-2.85-23.33,5.79,4.09,9.82,8.24,14.08,12,10.71,9.4,23.24,15.95,35,23.6C65,79.1,70,80.08,74.2,82.44,82.14,86.85,86.14,94.32,85.13,104.05Z"/><path class="cls-2" d="M125.25,22.44c4.08,1.56,4.51,4.74,4.52,7.92a69.52,69.52,0,0,1-2.26,19.28c-2.27,8-5,15.84-7.25,23.83-.75,2.68-2.31,3.74-4.71,4.45a97.44,97.44,0,0,1-17,3.76c-2,.22-3.63.63-3.7,4.27,17.27.08,32.4-6.44,47.92-13.88,1.41,5,.41,9.91-1.72,14.55-3.86,8.4-11,13.15-19.41,16.1-10,3.49-20.3,1-30.92,1.76,1.43-11.46-4.28-19.13-11.52-26C102.82,66.73,115.64,45.92,125.25,22.44Z"/><path class="cls-3" d="M90.9,153.65c-8.94.6-17.9.33-26.85.15,0-.68,0-1.35-.76-1.71C61.06,141.71,57,131.73,56.51,121c0-.83-.66-1.48-2.26-1.82-3.31,8.74,1.72,17,1.9,26.75a92.54,92.54,0,0,1-11-32.08c-.47-3,1.53-3.66,3.91-4a112.79,112.79,0,0,1,15.92-1c11,.19,22,.17,33,.24.18,6.33-1,12.53-1.68,18.78C95.33,136.67,92.35,145,90.9,153.65Z"/><path class="cls-2" d="M53.92,6.24c3.59,3.8,3.93,8.22,3.93,12.6,0,12.13,0,24.3,3.18,36.09,1.69,6.2,4.35,12.12,6.61,18.28-1.54,1.23-2.71-.24-3.82-.83-3.21-1.71-6.11-4.26-9.49-5.39-5.68-1.9-6.61-6.4-7.41-11.18-2.27-13.49-.74-26.84,2.62-39.9A29.61,29.61,0,0,1,53.92,6.24Z"/><path class="cls-4" d="M90.9,153.65c1.45-8.66,4.43-17,5.39-25.77.67-6.25,1.86-12.45,1.68-18.78,17.71-.51,17.7-.88,13.67,15.39a149.83,149.83,0,0,1-7.71,24.13c-2,4.67-5,6.1-9.57,5.35C93.22,153.78,92.06,153.75,90.9,153.65Z"/><path class="cls-2" d="M75.45,77.8l-3.68-8A67.38,67.38,0,0,0,82.05,28.28c.87,0,1.39-.11,1.47,0,5.89,10.56,8.85,21.74,7.2,33.91-.7,5.17-4.48,7.6-8.55,9.58-2.74,1.34-5.45,2.38-5.42,6.35Z"/><path class="cls-4" d="M63.29,152.09c.72.36.75,1,.76,1.71a3.89,3.89,0,0,1-3.56,0A3,3,0,0,1,63.29,152.09Z"/></g></g></svg>