<svg xmlns="http://www.w3.org/2000/svg" viewBox="0 0 86.11 189.99"><defs><style>.cls-1{fill:#11130d;}.cls-2{fill:#98cb61;}.cls-3{fill:#d79020;}.cls-4{fill:#a66f21;}</style></defs><title>Asset 4</title><g id="Layer_2" data-name="Layer 2"><g id="Layer_1-2" data-name="Layer 1"><path class="cls-1" d="M22,26.33c.8-2,2.54-4,0-6.17-1.32-1.13-.57-2.47,1-3C28.29,15.44,29,14,27.11,9c-.2-.53.15-1.27.23-1.91,1.41-1.23,4.06,2.14,4.87-1.3,1-1.09,2-2.21,3-3.27C36.48,1.23,37.54-.84,39.72.36c1.9,1,1.84,3.18,1.4,4.94a81.3,81.3,0,0,0-2.23,19c-1.06,1.9-.76,3.92-.59,5.94A37.67,37.67,0,0,0,38,40.42,12.8,12.8,0,0,0,38,46c0,3.15,0,6.3,0,9.44l.36,4.9c.29,4.86.46,9.74.95,14.58.16,1.54.17,3.82,2.86,3.65,1.21,1.07,2.43,2.13,4,3.53l.83-4.65c.12-1.77,1.2-3.51.17-5.32a.93.93,0,0,0-1.06-1.09l0,0c-1.4-2.85,1.5-3.33,2.63-4.79.28-4.53,3.38-9.28-1.52-13.41C52.12,49.07,52,44.55,50,39.66c-1-2.4,1.67-4.14,1.3-6.55a43.49,43.49,0,0,1-.15-5.94l.69-5.85A38.6,38.6,0,0,1,55.26,4l6.29,14.88,5.83.47c-4.11,3.46-6.16,6.89-3.34,11.27,1,.57,1.82-.36,2.73-.59,1.19-.3,2.32-.65,3.06.68,1,1.72-.4,2.61-1.54,3.08-2.65,1.08-4.35,2.44-2.9,5.88,1.23,1,3.45-2,4.46.43s-1.6,2.79-2.74,4c-2.31,2.49-.57,5.22-.49,7.71,1.57.87,2.44-.32,3.5-.59,1.31-.34,2.37-.06,2.9,1.21a1.78,1.78,0,0,1-1.13,2.44c-7.22,2.25-4,7.64-4.18,12.08a12.63,12.63,0,0,0,1.32.3c1.93.19,4.6-2.93,5.61.18s-2.47,3-4.53,3.81c-3.86,1.51-1.25,4.92-2.57,7.68,2.48.27,4.58-2.21,6.51.67.32.7-.84,1.88-1.17,2-6.37,2.27-5.3,8-6.19,12.85a13.66,13.66,0,0,1-1.79,5c4.62,3,3.55-3.54,6.38-3.31,3.16,3.54,8,5.14,11.41,9.75-5.52,1-9.53,3.52-9.48,9.71,1,1.75,3.47,1.35,4.88,2.85-1.46,2.34-3.79.85-5.91,2-1,2.65-1.05,5.89-1,9,1.34,1.42,3.46.83,4.45,2.43-.56,2.39-3.63,1.16-5.17,4.1,6.83-1.19,11.4,2.09,15.63,6.1v4c-3.34,4.94-2.8,11-4.59,16.37C79,170.08,78,178.13,73.65,185c-.86,1.36.16,2.56-.27,3.86-3,1.23-6.14,1.07-9.29,1.06-12.13,0-24.27-.07-36.41.08-2.71,0-4.24-.84-5.43-3.22-4.06-8.14-8.38-16.16-12.39-24.32-3-6.11-3.28-12.87-3.64-19.48-.24-4.49,3-7,7.61-7h4a14.66,14.66,0,0,0-1.39-6.45c-.15-1.51-.08-3.08-1.16-4.35.11-2.4-1.05-3.37-3.39-3-.26-2.33,2.11-4.73-.18-7-2.49-6-2.49-6-6.62-7.45.57-1.82,1.27-3.89-.76-5.21C1.83,100.9,2.8,97.5.43,95.6c-1.17-.94.24-2.44,1.89-2.32,1.43.1,2.79,1.22,4.36.29.7-2.41-4.71-4.64-1.47-6a7.69,7.69,0,0,1,9.47,3.85c.18-3.78,1.85-7.79-3.22-9.55,5.05-4.92,5.16-8.08.66-12.13,4.64-4.88,4.63-7.33-.2-12.62C13.5,53.63,21.57,51,14,46.19c-1.54-2.89,1.76-2.61,2.53-4.19,1.87-3.81,2.56-7.15.88-11C20.91,31.36,21.39,28.8,22,26.33Zm49.88,77.58c-2.88.41-6.7-.13-7.83,3-3.36,9.44-4,19.61-8.3,29.29,4.05-.23,7.32.54,10.42-.6.44-5.56.7-10.87,1.32-16.14s3.11-10.11,4.87-15.11c.18-.21.56-.56.52-.63C72.45,103.18,72.13,103.48,71.85,103.91ZM29.69,183.69l-3.28.9c1.07,2,2.4,1.76,3.84.94a192.18,192.18,0,0,0,24.94-.19c2.32,0,4.66-.08,7,.17,3.5.38,5.49-.63,7.24-4.12,5.58-11.13,7.43-23.3,10.59-35.1a3.83,3.83,0,0,0-3.26-4.8c-4.93-.14-9.82-1.45-14.78-.6-4.14-1.06-8.29,0-12.43,0-11.29.09-22.59-.8-33.88.43-3.84.42-5,2-4.23,5.53.39,1.78.74,3.58,1.08,5.38a78,78,0,0,0,10.26,25.62c-.56-4.59-1.82-9-2.66-13.48s-2.07-9.18,1.32-13.69A215.73,215.73,0,0,0,29.69,183.69ZM39,136C38,93.53,29.07,51.8,36.12,9c-2.3,1.16-2,2.75-2.67,3.84-8.14,13-11.87,27.27-12.61,42.42-.45,9.37-1.07,18.64-.4,28.15.51,7.16-1.68,14.36,4.25,21.5-4.74-.7-3.86,2-3.63,4.06.5,4.63,1.13,9.25,1.77,13.86,1.89,13.69,2.12,13.88,15.92,13.24C39.07,136.06,39.38,135.91,39,136Zm6.73-.14c3.74,1.23,5.93-.22,6.89-4,4.19-16.17,9.62-32,10.41-49,.84-18.1-1.21-35.85-4.07-53.6-.2-1.26,0-3.24-2.35-3-.21.3-.53.54-.56.81a24.88,24.88,0,0,0-.2,3,256.07,256.07,0,0,1-9.74,71.47C42.8,113,40.3,124.15,45.72,135.88ZM5,97.56c5.14,4.34,7.73,9.31,10.5,15C17.78,102.1,15.17,96.47,5,97.56Zm36.81,3.3,4-16.29L40,82.49C40.37,89,42,95,41.77,100.86Z"/><path class="cls-2" d="M11.73,115.2c2.29,2.29-.08,4.69.18,7-2.3.81-2.86-2.82-5.47-1.49A11.33,11.33,0,0,1,11.73,115.2Z"/><path class="cls-2" d="M48.85,66.32c-1.13,1.46-4,1.94-2.63,4.79-3.32-.59-3.45-3.22-4.17-6C44.82,64.47,46.67,66.47,48.85,66.32Z"/><path class="cls-2" d="M38.3,30.25c-.17-2-.47-4,.59-5.94,1.2.36,2.62-.46,3.89.92C42.43,27.81,40.56,29.18,38.3,30.25Z"/><path class="cls-2" d="M32.21,5.76c-.81,3.44-3.46.07-4.87,1.3,0-1.44,0-2.89,0-4.34C30.3,2.26,31.15,4.16,32.21,5.76Z"/><path class="cls-2" d="M51.84,21.32l-.69,5.85a7.83,7.83,0,0,1-3.56-6.26Z"/><path class="cls-2" d="M15.3,125.2c1.08,1.27,1,2.84,1.16,4.35-1.94.13-3.87.26-5.05-1.79C12.13,125.93,13.83,125.75,15.3,125.2Z"/><path class="cls-2" d="M38,46a12.8,12.8,0,0,1,0-5.61c1.09-.06,2-1.15,3.4-.42A7,7,0,0,1,38,46Z"/><path class="cls-2" d="M38.38,60.37,38,55.47l3.56-.74C42.31,57.73,40.7,59.24,38.38,60.37Z"/><path class="cls-2" d="M22,26.33c-.58,2.47-1.06,5-4.53,4.68C18.68,29.19,17.78,25.29,22,26.33Z"/><path class="cls-2" d="M47.06,77.48l-.83,4.65c-1.61-1.4-2.83-2.46-4-3.53C43.47,76.73,45.46,78,47.06,77.48Z"/><path class="cls-2" d="M46.17,71.07a.93.93,0,0,1,1.06,1.09C46.57,72.09,46.17,71.78,46.17,71.07Z"/><path class="cls-3" d="M55.19,185.34a192.18,192.18,0,0,1-24.94.19c-.18-.61-.37-1.23-.56-1.84a215.73,215.73,0,0,1-8.3-33c-3.39,4.51-2.17,9.17-1.32,13.69s2.1,8.89,2.66,13.48a78,78,0,0,1-10.26-25.62c-.34-1.8-.69-3.6-1.08-5.38-.75-3.52.39-5.11,4.23-5.53,11.29-1.23,22.59-.34,33.88-.43,4.14,0,8.29-1,12.43,0,.06,1.16.21,2.32.16,3.48A181.38,181.38,0,0,1,55.19,185.34Z"/><path class="cls-2" d="M39,136c.39-.11.08,0-.24,0-13.8.64-14,.45-15.92-13.24-.64-4.61-1.27-9.23-1.77-13.86-.23-2.1-1.11-4.76,3.63-4.06-5.93-7.14-3.74-14.34-4.25-21.5-.67-9.51-.05-18.78.4-28.15.74-15.15,4.47-29.46,12.61-42.42.69-1.09.37-2.68,2.67-3.84C29.07,51.8,38,93.53,39,136Z"/><path class="cls-2" d="M45.72,135.88c-5.42-11.73-2.92-22.85.38-34.26a256.07,256.07,0,0,0,9.74-71.47,24.88,24.88,0,0,1,.2-3c0-.27.35-.51.56-.81,2.34-.27,2.15,1.71,2.35,3,2.86,17.75,4.91,35.5,4.07,53.6-.79,17-6.22,32.83-10.41,49C51.65,135.66,49.46,137.11,45.72,135.88Z"/><path class="cls-4" d="M55.19,185.34a181.38,181.38,0,0,0,6.9-41c0-1.16-.1-2.32-.16-3.48,5-.85,9.85.46,14.78.6a3.83,3.83,0,0,1,3.26,4.8c-3.16,11.8-5,24-10.59,35.1-1.75,3.49-3.74,4.5-7.24,4.12C59.85,185.26,57.51,185.39,55.19,185.34Z"/><path class="cls-2" d="M72.33,104.4c-1.76,5-4.24,9.78-4.87,15.1s-.88,10.58-1.32,16.14c-3.1,1.14-6.37.37-10.42.6C60,126.56,60.66,116.39,64,107c1.13-3.17,5-2.63,7.83-3Z"/><path class="cls-2" d="M5,97.56c10.21-1.09,12.82,4.54,10.5,15C12.69,106.87,10.1,101.9,5,97.56Z"/><path class="cls-4" d="M29.69,183.69c.19.61.38,1.23.56,1.84-1.44.82-2.77,1.1-3.84-.94Z"/><path class="cls-2" d="M71.85,103.91c.28-.43.6-.73,1-.15,0,.07-.34.42-.52.63Z"/></g></g></svg>