<svg xmlns="http://www.w3.org/2000/svg" viewBox="0 0 579 828.52"><defs><style>.cls-1{fill:#040403;}.cls-2{fill:#c8c8c8;}.cls-3{fill:#434343;}.cls-4{fill:#030302;}.cls-5{fill:#9bcf63;}.cls-6{fill:#9ccf63;}.cls-7{fill:#d99220;}.cls-8{fill:#aa7222;}.cls-9{fill:#fbd626;}.cls-10{fill:#f9d526;}.cls-11{fill:#fad526;}.cls-12{fill:#f8d426;}.cls-13{fill:#101010;}.cls-14{fill:#111;}.cls-15{fill:#b87b22;}.cls-16{fill:#c88621;}.cls-17{fill:#937e17;}.cls-18{fill:#383009;}.cls-19{fill:#151614;}.cls-20{fill:#030403;}.cls-21{fill:#0b0b09;}.cls-22{fill:#211c05;}.cls-23{fill:#080701;}.cls-24{fill:#060401;}.cls-25{fill:#040301;}.cls-26{fill:#6c5c10;}.cls-27{fill:#060501;}</style></defs><title>Asset 3</title><g id="Layer_2" data-name="Layer 2"><g id="Layer_1-2" data-name="Layer 1"><path class="cls-1" d="M75.82,131.74c4.32-7.61,10.24-13.91,16.45-20a1.8,1.8,0,0,0,0-1.6c-20,6.33-40.23,10.58-61.35,6.88a27.57,27.57,0,0,1-10.2-3.9c-5.19-3.31-7.77-8.68-6-14.6C19.3,82.81,27.45,69.14,41,59.57c14.45-10.21,48.63-10.26,62.74,9.49,2.22,3.11,4.56,6.16,6.58,9.4,5.47,8.77,5.41,8.81,2.5,18,8.51-3.94,16.73-7.58,26-9.76-1-.74-1.5-1.16-2-1.5-16.13-10.17-19-21.95-9.48-38.4a53.85,53.85,0,0,1,23.24-21.94c4-2,7.25-4.45,9.51-8.42A40.25,40.25,0,0,1,178,0h2a34.25,34.25,0,0,0,13,0h1c15,1.93,24.78,11.63,33.65,22.7,9.62,12,15.78,25.35,16.28,40.93.13,3.95,1.61,5.41,5.74,5.24,5.14-.2,10.09,1.68,15.11,2.66,2.41-1.91-.62-2.82-.79-4.24a17.2,17.2,0,0,1-.88-11.77c3.71-12.75,9.76-24.08,21.41-31.45a24.84,24.84,0,0,1,29.32,2.38,6.75,6.75,0,0,1,.73.68c5.75,6.68,12.24,7.65,19.94,3.21,4.47-2.57,9.62-3.74,14.57-5.21,13.54-4,25.48-1,35.28,9.05,6.51,6.71,12.08,14.23,15.29,23.22.9,2.53,1.81,5.07,1.66,7.77-.23,4.09,1.56,5.49,5.61,5.54,9.95.14,19.05,2.94,26.62,9.75a60.33,60.33,0,0,1,16,23.27c1.73,4.43,1.16,9.2-.47,13.73a38.73,38.73,0,0,1-3.15,6.23c-5.89,10.14-5.77,10.9,1.69,19.5,9,10.38,14.8,22.38,18.52,35.6,5.91,21-9.7,48.53-27.12,58.3-18.37,10.31-37.83,12-58.08,8.72-9.3-1.51-16.6-6.66-22.43-13.92-6.13-7.63-10.8-15.94-12.44-25.81-1.2-7.19-1.42-7.17-8.93-7.84-1.27-.12-2.55-.82-4.35.16a167.7,167.7,0,0,1,9.64,27.08c7.05,27.28,10.79,55,8.71,83.14-2.6,35.22-10.77,69.42-21.12,103.1-6.21,20.25-12.32,40.5-15,61.6a16.61,16.61,0,0,1-1.34,5.3c-2,2.23-4,.93-5.78-.22-19.18-12.49-40.76-19.33-62.14-26.65-2.05-.7-4.12-1.32-6.22-1.82a5.32,5.32,0,0,0-2.89-.28c1.11,2.25,3.13,3.27,4.92,4.48,14.49,9.78,30,17.86,45.23,26.32,7,3.87,13.85,7.92,20.52,12.29,3,2,6.24,4,6.92,8.08,3.45,28.89,12.39,55.83,28.25,80.36,2.42,3.73,5.26,5.18,9.75,5.52,22.64,1.72,45.29.4,67.93.87,2.48,0,5-.31,7.39.75,2.34,6.1,2.83,6.25,9.8,4,4.07-1.3,7.75-3.94,12.3-3.7,3-.06,6-.17,9,0,7.42,1.42,15,1.34,22.4.88,11.25-.69,19.36,5.17,25.85,12.81,9.3,11,13.32,24,13.7,38.72.5,19.42-4.16,37.63-10.59,55.54-13,36.2-26.09,72.35-39,108.57-3.45,9.68-8.13,17.86-18.29,21.63a29.5,29.5,0,0,1-14.7,1.37c-3-.1-6-.27-9-.28-52.15,0-104.31-.42-156.46.29-13.74.19-22.59-4.79-29.67-15.87-21-32.91-39.64-67.1-54-103.41-8-20.33-12.2-41.84-15.26-63.47a29.49,29.49,0,0,1,1.54-13.28c2.28-6.95,4.15-14.08,7-20.8,5.19-12.39,15.29-19,28.15-21.27,8.42-1.5,17-2.15,26.77-3.33-9.39-5.65-17.57-11-26.12-15.64-28.57-15.6-52.24-37.34-75-60.06-13.51-13.45-21.06-30.64-26.73-48.57-3.56-11.25-7.54-22.4-9.36-34.16-1.39-9.05,3.64-15.35,9.18-21.06,3.1-3.2,8.18-2.46,12.44-2.53,50.94-.91,97.94,12.77,141.7,38.45a272.71,272.71,0,0,1,29,19c1.23-5.57,2.11-10.71,3.49-15.7,6.26-22.61,12.92-45.1,18.95-67.77,8.24-31,14.21-62.51,12.69-94.69-1.49-31.77-6.9-62.9-22.57-91.33a201.29,201.29,0,0,0-18-26.41c-1.59-2-3-2.47-5.39-1.19a75.66,75.66,0,0,1-18.74,6.75c-5.06,1.21-8.14,4-9.54,9a115.66,115.66,0,0,1-4.73,14.71c-5.48,12.58-16.06,18.64-28.89,21.4a91.1,91.1,0,0,1-33.29.62c-14.81-2.28-23.9-11.84-29.77-24.74-7.71-17-7-34,1.23-50.64,7.1-14.35,16.16-27.15,30.67-36.68a101.23,101.23,0,0,0-25.19-2.32c-18.53.83-35,7.28-49.82,18.34-3.41,2.54-4.56,4.13-.48,7.56a113.83,113.83,0,0,1,28.85,37.25,40.81,40.81,0,0,1,3.64,11.35c1.64,9.84-1.75,16-11.22,19.46a89.93,89.93,0,0,0-17.4,8.59C98.87,217,80,213.42,67.27,196.87c-8.7-11.31-10.09-23.28-3.73-36,2.37-4.75,5.21-9.26,7.84-13.88,1.83-3.5,5.05-6.56,2.8-11.23C73.57,134.49,75.21,133.08,75.82,131.74Z"/><path class="cls-2" d="M579,367h-1c-1.6-1.55-1.56-3.6-1.56-5.57,0-12.74-.22-25.47.09-38.21-.22-5-.1-9.94-.07-14.91,0-1.82,0-3.68,1.3-5.19L579,303Z"/><path class="cls-3" d="M193,0a19.46,19.46,0,0,1-13,0Z"/><path class="cls-2" d="M0,177l1.09.05a5.31,5.31,0,0,1,0,6.91L0,184Z"/><path class="cls-4" d="M31.85,195.17a43.31,43.31,0,0,1-15.81,0c-2-.3-4-.37-5.5-2a5.87,5.87,0,0,1-.47-4.34c1.4-6.15-1.25-10.54-6-14.06a3.1,3.1,0,0,1-.9-2.72,18.63,18.63,0,0,0,.74-7.9C2.74,155.39,7,148.61,12,142.29c6.24-7.95,19-8.35,26.29-1.35a54.94,54.94,0,0,1,12.8,18.88C57.29,175,49.71,190.29,34,194.87Q32.9,195,31.85,195.17Z"/><path class="cls-3" d="M3.18,172l.69,2c1.31,1.06,1.47,2.58,1.42,4.07a20.78,20.78,0,0,0,5.7,15c1.45,1.24,3.73.53,5,2.11-8.65,0-12.39-2.81-15-11.21,0-2.3,0-4.61,0-6.91Q2.14,174.53,3.18,172Z"/><path class="cls-3" d="M75.82,131.74c0,2.62-.79,4.94.55,7.91s-2.52,5.34-5,7.33c-2.32-.89-2.84-2.49-1.83-4.67C71.28,138.57,72.75,134.68,75.82,131.74Z"/><path class="cls-3" d="M31.85,195.17c.59-.89,1.25-1.34,2.13-.3A1.82,1.82,0,0,1,31.85,195.17Z"/><path class="cls-5" d="M92.32,110.18c.38,0,1.05,0,1.08.08.23.91-.38,1.29-1.14,1.52Z"/><path class="cls-6" d="M428,588.94c-19.47-.05-38.95,0-58.42-.18-7.14,0-14.28-.59-21.42-.65-2.92,0-4-1.91-5.3-3.84A177.42,177.42,0,0,1,315,515.44c-.94-5.24-2.23-10.42-2.17-15.79,5.23.06,8.34,3.26,10.85,7.34-.46,5.12-2.09,10-2.84,15.11-.37,2.51-.94,5.24,2.3,6.2,3.48,1,4.65-1.58,5.58-4.2,1.34-3.74,2.74-7.46,4.34-11.1,2-4.17,3.64-8.54,5.85-12.63,7.89-15.25,14.43-31.13,21.78-46.62,12.74-26.87,28-52.18,48.37-74.18,8.36-9,16.38-18.39,25.13-27.09,31.25-31.08,68.2-51.84,111.15-61.88a62.09,62.09,0,0,1,6.9-1.16c1.56-.18,3-.16,3.76,1.63,1.73,6.17,1.66,12.38,1,18.72-.74,7.38-1.23,14.83.05,22.24a134.13,134.13,0,0,1,.18,21.4,11.16,11.16,0,0,0-.26,3.95c-1.83,35.65-7.6,70.46-22,103.45-10.16,23.32-22.38,45.39-38.89,64.91a132.67,132.67,0,0,1-12.54,12.88c-11.88,10.7-23.13,22-34.8,33-1.83,1.71-3.8,3.24-5.73,4.82-3.52,3.58-6.47,7.74-10.78,10.54C430.92,587.82,429.83,589.15,428,588.94Z"/><path class="cls-7" d="M355.05,609.75c25,0,50-1.47,75.06-.3a6.08,6.08,0,0,1,1.26,3.73c-.22,10.3.85,20.61-.82,30.9a156,156,0,0,0-2.07,24.32c-.05,10.37-2.57,20.43-4.2,30.56-3,18.82-7,37.51-11.06,56.14-3.49,15.85-7.45,31.64-12.41,47.13-.8,2.48-.85,5.3-2.85,7.32-8,.08-16,.24-24,.21q-50.19-.16-100.4-.43c-4.84,0-8.9-1.92-11.18-6.18-14.21-26.56-28.24-53.22-42.38-79.82-10.36-19.46-15.44-40.6-20-61.92a144.29,144.29,0,0,1-3-19.71c-1-13.57,7.34-21.85,16.64-29.52,1-.81,2.87-.68,4.34-.72,10.48-.32,21-.58,31.46-.85,2.24-.85,4.59-.6,6.91-.6h92.21A34.9,34.9,0,0,0,355.05,609.75Z"/><path class="cls-5" d="M269.05,578.91a323,323,0,0,1-51.25-27.72c-37.74-24.8-66.26-57.24-79-101.68-1.52-5.28-3.12-10.56-6.52-15-2.09-2.75-.89-3.51,1.92-4,9.39-1.56,18.63-.38,27.73,1.74a376.24,376.24,0,0,1,99.62,38.5c8.07,4.54,15.92,9.41,23.91,14.08,2.4,1.4,4.58,2.73,4.63,6.36.48,32.05,10.26,61.45,26,89.09,1.29,2.28,2.61,4.55,4.54,7.89H304c-1.66,1.24-3.47.87-5.24.41q-10.8-2.79-21.69-5.19C274,582.72,271,581.71,269.05,578.91Z"/><path class="cls-8" d="M443,609.36c13.43,0,26.88-1,40.31.5,3,.35,4.25,1.82,5.33,4.28A80.82,80.82,0,0,1,493.79,666c-6.79,30.37-18.13,59.06-30,87.62C457.88,767.77,452,781.88,446.17,796c-5.23,12.73-6.78,13.87-20.24,13.82-7.32,0-14.64-.18-21.95-.27-2.73-4.7-.08-9.07,1.06-13.39,3.72-14.09,8.07-28,11.07-42.29,2.82-13.47,7.24-26.64,8.81-40.32,1.22-10.59,3.94-20.86,5.34-31.42,1.46-11,3.77-21.83,4.62-32.95.51-6.58,3.28-12.87,4.17-19.51.71-5.24,1.14-10.55,2.46-15.71C441.92,612.41,441.58,610.62,443,609.36Z"/><path class="cls-9" d="M396.74,226.87c-15,0-24-7.43-26.66-22.18-1.92-10.7-3.81-21.34-11.73-29.68-3.82-4-5.89-4.15-8.83.58-2,3.17-4.32,3.92-7.54,2.82-8.26-2.82-16.63-5.65-19.22-15.45-2.76-10.51-2.22-20.48,5.65-28.94a14.87,14.87,0,0,1,12.4-5.19c6,.35,12,0,18,.17,8.1.23,14-3.41,18.46-9.9,3.58-5.21,7.22-10.38,10.85-15.56A35.52,35.52,0,0,1,394.18,97c10.95-9.41,28-4.17,32.08,9.78.95,3.25-.22,5.89-1.69,8.51-2.85,5.09-5.6,10.21-7,15.94-1.47,6.07-.63,11.58,3.87,16.2,2.78,2.86,5.8,5.49,8.43,8.48,8.56,9.74,13.49,21.42,13.47,34.11,0,11.82-5.85,21.64-16.34,28.12A58.09,58.09,0,0,1,396.74,226.87Z"/><path class="cls-10" d="M173.66,169c-.22-21.51,18.08-47.23,39.29-50.86,5.46-.94,9.49-3.31,12.27-8.21,3.73-6.55,10.45-10.45,15.08-16.29A10.22,10.22,0,0,1,248.8,90c9.63.63,18.61,2.86,25.26,10.81a48.83,48.83,0,0,0,8.52,7.64c5.4,4,5.93,9.74,6.23,15.6.46,9-3.2,15.35-11.61,19.55-8.66,4.32-17.25,8.53-26.7,10.89-5.16,1.3-9.09,4.52-12.14,9a73.38,73.38,0,0,0-10.06,22.71c-1,3.85-3.07,6.67-6.58,8.28-8.91,4.09-18.05,6.67-28.05,4.69-9.16-1.82-15.49-6.55-17.85-15.9A66.36,66.36,0,0,1,173.66,169Z"/><path class="cls-11" d="M288,69c-2.89-9.67-1.05-18,6.75-24.81,2.42-2.11,4.45-2.62,6.71.13,10.58,12.79,24.19,11.22,38,7.59,5.6-1.47,10.93-4,16.32-6.18,3.78-1.54,6.92-.94,10.19,1.55,12.88,9.83,15.5,23.68,6.45,37.31-4.16,6.28-6.69,13.35-10.52,19.76-2.65,4.42-6.26,6.73-11.58,6-2.47-.34-5-.18-7.45-.62-11.36-2-21.07,1-29.21,9.17-.47.47-1,.89-1.49,1.31-.11.09-.31,0-.75.1A55.91,55.91,0,0,0,307.51,107a54.61,54.61,0,0,1,7.12-.29c5.41.49,9.19-1.71,12.1-6.2,3.34-5.17,7-10.15,10.55-15.16,1.48-2.08,1.23-4,0-6-2-3.28-4.37-6.27-6.55-9.4-2.86-4.1-5.47-3.14-8.12-.46C316,76.26,309.45,83.17,306,92.27a14.12,14.12,0,0,1-.85,1.8c-2.78,5-2.76,5-6.52.79-3.55-4-7.15-7.89-10.73-11.83C286.69,78.35,289,73.69,288,69Z"/><path class="cls-12" d="M188,79.92c-8.1-.86-15.88-3.14-23.57-5.62-5.53-1.78-10.87-4.11-16.27-6.26-2.84-1.13-3.85-3.13-3.46-6.31,1.07-8.67,7.17-13.69,13.87-17.16,9-4.67,16-10.67,21.3-19.41,4-6.61,7.51-7.08,14.3-3.2,14,8,23.52,19.32,25.2,36.05.37,3.63,1,7.24,1.47,10.86.65,5.41.21,10.63-2.71,15.41l-17-2.33c.49-2.93,2.95-1.88,4.64-2.18,2.19-.39,4.17-.86,3-3.67-1-2.47,1.4-4.36.73-6.67a37.46,37.46,0,0,0-1.94-3.27,20.56,20.56,0,0,0-2-3.89A15.4,15.4,0,0,0,203,59.2c-5.26-6.21-12.1-10.36-18.88-14.59-.86-.54-1.85-1.17-2.8-.91-5.18,1.43-6.27,6.42-8.68,10.25-1.61,2.55-1,4.7,1.14,6.67,4.38,4.11,8,8.93,11.92,13.42.81,1.4,2.08,2.49,2.75,4A1.71,1.71,0,0,1,188,79.92Z"/><path class="cls-13" d="M339.79,501,334.09,513c-4.91.23-7.5-3.76-11-6a33.59,33.59,0,0,0-10.23-7.36c-4.54-6.57-11.84-9.48-18.32-13.28-17.73-10.42-36.19-19.59-53.37-30.95-2.77-1.84-7.62-3.65-6.45-7.1.78-2.27,5.57.41,8.25,1.31,17,5.65,34.18,10.9,50.24,19,5.47,2.77,10.72,6,16,9.15a6.15,6.15,0,0,0,3.68,1.19c5,3.58,9.29,8.06,15.21,10.18A121.18,121.18,0,0,1,339.79,501Z"/><path class="cls-10" d="M82.16,176.4c.5-9.32,5.19-16.69,12.21-22.82.75-.65,1.57-1.22,2.34-1.86,6.37-5.22,6.29-5.16,11.83,1.37,5.84,6.88,11.12,14,13.75,22.85.78,2.61.3,3.88-2.38,4.74-6.06,1.94-11.4,5.31-16.72,8.72-9,5.75-19.64.49-20.9-10.24C82.2,178.33,82.21,177.5,82.16,176.4Z"/><path class="cls-14" d="M428,588.94a88.92,88.92,0,0,0,14.09-12.77c5.76-2.72,10.44-7,15.32-10.93C469.94,555.16,483,545.69,495,534.92c1.68-1.51,3.72-2.78,5.79-1.15s.61,3.65-.37,5.35a115,115,0,0,1-19.05,24.78c-1.27,1.25-3.06,2.18-2.72,4.42L456,585c-1.36,2.81-4.53,3.14-6.66,4.88-4.07-.34-7.1,2.57-10.78,3.45-1.77.43-3.45,1.41-5.21,1.56-2.25.19-5,1.13-6.69-.58S428.39,591,428,588.94Z"/><path class="cls-12" d="M47.47,99.85c-11.16-1.1-11.35-.43-6.07-9.65S53.76,73.38,65.59,72.39c8.64-.72,20.16,5,24.68,12.39,1.38,2.26.28,2.8-1.29,3.69-6.69,3.78-13.68,6.73-21.39,7.71C60.52,97.08,53.71,99.51,47.47,99.85Z"/><path class="cls-13" d="M269.05,578.91c11.25,4.63,23.25,6.41,35,9.26.65,2.81,3.57,2.62,5.3,4,1.39,1.12,3.48,2,3.23,4.06-.23,1.86-2.3,2.27-3.85,2.69-8.23,2.22-16.47,1.28-24.59-.44-16.82-3.56-32.19-11.21-48-17.5-1.49-.58-3.48-1.22-2.91-3.4.66-2.53,2.48-.61,3.71-.58,9.1.17,18.07,1.61,27.06,2.89C265.64,580.14,267.63,580.64,269.05,578.91Z"/><path class="cls-15" d="M443,609.36a169.19,169.19,0,0,1-5.78,35.28A33.51,33.51,0,0,0,436,653c-.32,9.24-1.33,18.43-4.22,27.26-1.19,3.63-.13,7.31-.94,10.87-2.12,9.34-3.11,19-5.27,28.18s-2.36,18.8-6.81,27.32c-1.07,2.06-.39,4.29-.88,6.37-2.4,10.12-5.49,20.09-7.89,30.14-2.09,8.75-6.44,17.12-6,26.47l-3,0c-2.65-3.85-.24-7.6.85-10.94,5.19-16,9-32.32,12.48-48.67,4.28-19.92,8.56-39.88,11.37-60.13,3.23-23.22,5.63-46.46,6-69.92.06-3.57.11-7.34,2.32-10.53A27.8,27.8,0,0,1,443,609.36Z"/><path class="cls-16" d="M434,609.36c-1.44,17.81-1.92,35.67-3.56,53.5-1.12,12.21-3.05,24.3-4.71,36.38-2.09,15.21-5.85,30.19-9,45.23-4.25,20.25-9.38,40.28-15.09,60.17a19.55,19.55,0,0,0-.62,4.91h-3c.12-6.54,2.87-12.47,4.69-18.55,4.14-13.93,7.63-28.06,10.57-42.22,1.9-9.12,3.87-18.36,5.07-27.71,1-7.93,4-15.61,4.88-23.72,1.22-11.8,3.27-23.47,4.18-35.37,1.34-17.51,3.12-34.94,2.76-52.52A5,5,0,0,1,434,609.36Z"/><path class="cls-8" d="M355.05,609.75c-1,1.6-2.6,1.19-4,1.2q-49,.06-98.1.08a26.91,26.91,0,0,1-3.44-.42c.95-1.9,2.76-1.61,4.38-1.61q49.2,0,98.42,0A3.43,3.43,0,0,1,355.05,609.75Z"/><path class="cls-17" d="M210.48,68.85c1.67.66,1.35,1.82.38,2.64-1.61,1.37-2.06,2.59-1,4.63,1.73,3.34-.37,4.36-3.3,4.73-1.86.24-4-.83-5.52,1.1a49.3,49.3,0,0,1-13.1-2V78c1.65-1.72,3.61-1.08,5.54-.78a25.41,25.41,0,0,0,10.73-.45c1.6-.44,2.25-1.16,1.85-2.76a5.42,5.42,0,0,1,.44-3A4.92,4.92,0,0,1,210.48,68.85Z"/><path class="cls-18" d="M218.08,84.28q1.36-7.71,2.71-15.41c2.05,1.93,0,7.18,5.31,6.52.13,0,.43.48.48.76C227,78.24,220.44,84.48,218.08,84.28Z"/><path class="cls-18" d="M288,69c2.77,4.69.69,9.35-.08,14-1.68.13-2.56-1.29-3.78-2-2.17-1.3-6.87-2.24-.36-4.67C286.42,75.34,286.72,71.58,288,69Z"/><path class="cls-2" d="M449.32,589.84c1.37-2.79,4.2-3.57,6.66-4.88-.32,2.48,3.9,2.21,3,5Z"/><path class="cls-3" d="M265.67,72.77c.86-1.65-.47-3.28,0-4.93C268,71.08,268,72,265.67,72.77Z"/><path class="cls-5" d="M95.15,109l-.67.7c-.71-.82.41-.54.52-.87Z"/><path class="cls-19" d="M95,108.84l.54-.36-.39.53Z"/><path class="cls-20" d="M339.79,501a30.29,30.29,0,0,1-11.74-11.81c13.1-46.66,35-88.51,67.5-124.71,18.06-20.12,36.6-39.68,59-55,28.5-19.54,59.65-32.78,94-37.92,2.45-.37,5-.35,7.44-.51,2.13.09,4.22-.08,6.27,1,2.64,1.42,6,2.38,6.12,5.83.15,3.64-2.71,6.2-5.53,7.73-2.41,1.3-4.89,2.08-6.29,4.69-.3.55-1.22.2-1.81-.16-55.64,9.8-99.68,39-136.56,80.73-18.16,20.54-35,41.81-47.84,66.22-10.24,19.47-17.91,40.11-28.31,59.48C341.27,498,340.54,499.5,339.79,501Z"/><path class="cls-19" d="M554.76,290.12c2.2-2.5,3.48-5.62,7.92-5.94,1.94-.14,5.44-3.58,4.72-6.64-.8-3.43-4.94-3.93-7.8-5.4-1.09-.55-2.7.21-3.6-1.15,10.25-1.23,15.15,1.71,17.85,11.75,1.8,6.66,2.63,13.57,3.9,20.38-.74,6.62.71,13.29-.36,19.91-2.38,1.69-4.3,4.18-7.39,4.67-1.53.25-1.77,1.25-2,2.42-.29,1.47-.53,2.95-.92,4.39-.52,1.95-1.09,4.07-3.62,4.09-2.25,0-2.92-1.93-3.6-3.63a26.58,26.58,0,0,1-1.88-6.5c-.33,1.22.75,3.34-1.93,3.51-1.29-7.71-.51-15.44-.34-23.16C555.86,302.55,556.24,296.3,554.76,290.12Z"/><path class="cls-1" d="M556.05,332c2.18-2.44-.08-5.8,2.09-9.25,1.11,4.43,1.24,8.31,2.85,11.77.61,1.31.72,3.33,2.52,3.22,2-.13,2.17-2.15,2.46-3.78.48-2.74.95-5.48,1.48-8.52,4.49,3.68,6-3.71,9.94-2.39,1.1,13,.65,26,.53,39.05,0,1.64,0,3.28.07,4.92-.3,2-.61,4-.91,6-.06.68-.08,1.36-.08,2-2.25,29-8,57.26-19.15,84.23-11.39,27.63-25.58,53.69-44.55,77-9,11.12-19.73,20.49-31.2,28.95-1.32,1-1.7,2.84-3.49,3.16-3.26-2.37.15-3.45,1.15-4.45a117,117,0,0,0,19.62-25.54c.68-1.21,2.54-2.42.85-3.82s-3,0-4.35,1.11c-15.9,14-32.79,26.78-49.61,39.64-1.28,1-2.35,2.66-4.19.91,13.67-12.91,27.29-25.88,41-38.73,21.68-20.29,36.26-45.35,48.57-72,14.83-32,21.48-66,23.65-101,.16-2.49.39-5,.59-7.46a17.29,17.29,0,0,0,.07-2Q556,343.48,556.05,332Z"/><path class="cls-19" d="M577,375c-1.21-.73-1.09-1.41.08-2A1.76,1.76,0,0,1,577,375Z"/><path class="cls-21" d="M11,193.06c-5.78-1.82-6.24-6.95-7-11.69-.4-2.39-.07-4.89-.07-7.34,5.86,2.27,9.11,7.83,7.7,13.61A26.28,26.28,0,0,0,11,193.06Z"/><path class="cls-7" d="M24.68,174.93,27,170c.74-1.75,1.59-3.27,3.84-1.8.78,5.34-1.84,8-6.88,8.85C23.42,176.09,24.28,175.59,24.68,174.93Z"/><path class="cls-18" d="M30.86,168.22c-1.89-.7-2.44,1.46-3.84,1.8-1.68-3.19.68-6.1.56-9.27C29.21,163.09,30.62,165.4,30.86,168.22Z"/><path class="cls-22" d="M24.68,174.93c-.23.71-.47,1.42-.7,2.13-.66.86-1.56.89-1.77-.1C21.8,175,23.36,175,24.68,174.93Z"/><path class="cls-23" d="M323.05,507c4.62.29,6.92,4.83,11,6-1.71,4.64-3.65,9.22-5.07,14-1.26,4.22-4.47,2.74-6.9,2.54-2.69-.23-3.24-2.78-2.82-5C320.4,518.66,321.78,512.84,323.05,507Z"/><path class="cls-19" d="M556,355c1.06.71,1,1.39-.07,2A1.41,1.41,0,0,1,556,355Z"/><path class="cls-24" d="M235,672.62c0-3,0-6,0-9,.14-6.2,4.91-12.24,9.83-12.54,6.36-.38,11.56,4.1,12.11,11.27,2.62,34,12.64,66.18,23.87,98.08,4,11.33,9.47,22,15.13,32.52,3,5.53,1.61,7.15-4.63,7.64-11.74.93-19.12-4.24-23.76-14.86-11.37-26.08-22.36-52.31-29.44-79.93C235.34,695,235.41,683.74,235,672.62Z"/><path class="cls-25" d="M383.12,145.93c4.4-.06,8.17,2,11.4,4.47,11.57,8.77,19.29,19.68,17.58,35.17-.78,7-4.76,10.82-11.73,11.16a85.11,85.11,0,0,1-13.91-.4c-2.87-.32-4.66-1.66-4.32-4.34,1.82-14.19-7.07-21.94-17.08-29.09,0-7,5-11.31,8.76-16.26,1.59-.91,3.22-.31,4.84-.12S381.52,145.28,383.12,145.93Z"/><path class="cls-26" d="M363,162c-3.46-1-4.57-2.76-2.32-6.08,1.83-2.7,3.09-5.78,5-8.39,1.42-1.94,3.05-4.65,6.27-2.33C369.4,151,365.63,156.2,363,162Z"/><path class="cls-22" d="M363,162c.62-6.87,4.69-11.89,9-16.8l1.8.47c.77.29.81.73.25,1.28-2.68,5.48-7.08,10-8.95,16Z"/><path class="cls-26" d="M374,147c-.08-.43-.17-.85-.25-1.28,2.49-.54,4.43-4.4,7.53-1.25-.1,1.7-1.25,2.6-2.56,3.38Z"/><path class="cls-22" d="M378.73,147.8c.28-1.56,1.52-2.39,2.56-3.37a1.89,1.89,0,0,1,1.83,1.5C381.63,146.5,380.7,148.38,378.73,147.8Z"/><path class="cls-27" d="M263.07,126.12c-4.35,3.5-9.63,5-14.76,6.73s-9.81,4-12.66,8.9c-1.21,2.08-3.3,3.21-5.3,4.36a45.72,45.72,0,0,0-13.26,11c-7.36,1.91-14.71,3.69-21.69-1.2,3.34-9.48,8.52-17.64,17.06-23.27a49.29,49.29,0,0,0,11-9.23c3.62-4.31,8.73-6.49,13.92-8.4,4.5-1.65,9-3.43,13.42-5.16,2.65-1.41,4.83-.65,6.61,1.55,2.19,2.71,4.68,5.22,6,8.55C264.19,122.07,264.59,124.14,263.07,126.12Z"/><path class="cls-18" d="M263.07,126.12c-.2-8.06-5.94-15.67-12.27-16.25,5.5-4.74,5.89-4.74,10.3.93,1.62,2.08,3,4.36,4.42,6.57C268,121.19,267.37,124.18,263.07,126.12Z"/><path class="cls-17" d="M195.4,155.93c7.1,2.71,14.43,1.34,21.69,1.2a3.08,3.08,0,0,1-3,2.78c-5.72.65-11.46,1.32-17.17,0C194.66,159.32,193,158.35,195.4,155.93Z"/><path class="cls-23" d="M207,71l.25,3a4.13,4.13,0,0,1-3.61,3c-6.27.83-12.49,1.07-18.33-2-4.62-5-9.9-9.58-13.69-15.16-4-5.89,2.69-9.68,4.78-14.29,1.09-2.4,3.59-4.55,6.54-2.83C190.63,47.15,198.67,51.36,204,59c.76.94,1,2.27,2.07,3a6.67,6.67,0,0,1,2.39,3.93C208,67.6,207.45,69.28,207,71Z"/><path class="cls-18" d="M185.26,74.92c4.86.51,9.67,1.34,14.61,1.16,2.71-.11,5.17-.37,7.33-2.09,1.66,2.57.88,3.56-2.07,4.26-5.8,1.38-11.45.13-17.17-.21C186.89,77.15,185.63,76.42,185.26,74.92Z"/><path class="cls-18" d="M207,71c-1.91-2.42-.21-3.76,1.52-5.09,1.29.56,1.55,1.83,2,3C209.48,69.84,208.69,71.2,207,71Z"/><path class="cls-18" d="M206.08,62c-2.1,0-2.16-1.44-2.07-3A3.09,3.09,0,0,1,206.08,62Z"/></g></g></svg>