<svg xmlns="http://www.w3.org/2000/svg" viewBox="0 0 126.72 189.33"><defs><style>.cls-1{fill:#fcfcfc;}.cls-2{fill:#13120f;}.cls-3{fill:#97ba72;}.cls-4{fill:#d79120;}.cls-5{fill:#a87021;}.cls-6{fill:#49310b;}</style></defs><title>Asset 6</title><g id="Layer_2" data-name="Layer 2"><g id="Layer_1-2" data-name="Layer 1"><path class="cls-1" d="M80.69,20.07a1.76,1.76,0,0,0,2.37.91l.34.13a2.12,2.12,0,0,0,2.68.87l.28.12c4.39,3.13,9.48,3.47,14.6,3.69L98.7,24.06c2.21-.29,4.59.33,7.17-1.29-9.52-3.69-20.32-2.39-28.05-9.26l.32-1.45H92.93c1.33.29,2.6.42,3.28-1.34-1-1.36-2.19-1.86-3.78-1L75.79,9C73.61,6,72.27,2.44,69,0a9.75,9.75,0,0,0,.8,9.65c-3.43,2.48-7.88,3.09-11,6.27C57,17.7,54,18.09,52.91,21.16c6.29-.19,11-4.34,17.43-6.3C69.62,31,71.15,46.47,71.51,62c-3.29.54-6.65-2.18-9.78-.13-.63,1.79,1.36,2.35,1.17,3.7-1.1.88-3.07-.28-3.83,1.73,2.72,1.6,5.37,2.54,8.33.88C71,70,73.17,72.68,72.3,77c-.14,2.53-2.4,3-4.33,3.8,1.33,1.74,2.86,1.26,4.24,1.32.19,3.48.46,7,.54,10.42.3,13.13.52,26.26,0,39.39-.08,1.77.22,3.88-2.68,3.73-2.29-.13-3.06-1.59-3.31-3.55-.09-.66-.08-1.33-.12-2A200.88,200.88,0,0,0,59.81,89c-4.38-15.29-10-30.22-13.54-45.75l14.51-2C62.1,41,63.62,41,62.48,39l.29-.55-.41-.2c-4.25-2.19-8.54.43-12.8-.13L48.66,32c4.45-3.59,10.45-4.35,16-8.58-9.27.63-15.8,4.48-22.07,9L42.45,30c.11-3,1.57-5.9.88-9.22C40,22.11,41.08,25,40.56,27.12c-2.71,2.58-2.68,4.3.11,6.85-.34,3.13-2.14,1.57-3.49,1A78.36,78.36,0,0,0,22.1,30.63c-.35-.9-.85-1.23-1.63-.4l-7.87-.1c-1.83-.56-3.64-1-5.32,1A5.91,5.91,0,0,0,12,32.36L33.66,37.3l.09,1.55c-9.67.1-19.34.21-28.76,2.86-1.93-.66-3.31.34-5,1.41,1.52,2.26,3.08,1.66,4.7.74l13-.9,25.55.23C43.5,51.42,47,58.86,49.17,66.6c3.63,12.68,8.59,25,10.35,38.17-2.35,1.8-4.56,2.13-7,0-1.28-1.11-2.86-2.26-4.87-1.82-1.82-.05-3.56-1.78-5.54-.51.34,3.14,4.37,2.7,4.72,5.51-1.38.69-3.26-.58-4.37,1.14-3.24.49-6.34-1.82-9.77-.55,1.8,3,5.94,2.08,7.75,4.87-1.73,1.27-4.24,1-5.28,3.71,6.69,0,13.12-3.87,19.62.05a75,75,0,0,0,1.76,14.22c.69,3.15-.51,4.27-3.63,4.07-3.65-.22-7.32-.1-11-.25-2.61-.11-4.13.93-5.59,3.21-3,4.77-.43,9.44-.27,14.1.2,5.65,3.48,10.07,6.4,14.79,3.54,5.71,5.82,12.23,8.51,18.46,1.13,2.62,2.71,3.64,5.69,3.57,9.65-.23,19.31-.06,29-.15,5.44,0,10.93.48,16.15-.4,1.06-1.63,0-3,.79-4.53,6.14-11.45,8.37-24.12,10.93-36.65,1.52-7.49-2.36-11.72-10.24-11.85-4.84-.07-9.81.8-15-1.45a140.61,140.61,0,0,0,4.51-19.23c1.45-9.75,3.31-19.44,5-29.16,4.71-.37,7.75,2.84,11.14,5.25,3.77,2.68,7,6.41,12.34,6.63-.51-2.42-4.4-1.89-3.52-4.88,2.67-.38,5.07,2.32,8.43.78L108.3,82.23c2-.27.47-1.32.45-2,6-.46,12.12,0,18-2.79-1.28-1.5-2.77-1-4-1.45-1.5-1.65-3.43-.74-5.16-.81-5.62-.24-11.26.91-16.86-.33-.73-3.57.37-7.59-2.65-10.66-2.72,2.71-1,6-1.4,9-1.79.11-3-1.2-4.43-1.89-5.44-2.6-10.34-6.38-16.48-7.42q-1.45-23.1-2.92-46.17c2.51-.62,3.89.9,5.55,1.47a1.82,1.82,0,0,0,2.29.95Z"/><path class="cls-2" d="M59.52,104.77C57.76,91.59,52.8,79.28,49.17,66.6,47,58.86,43.5,51.42,43.23,43.19a2.77,2.77,0,0,1,3,0C49.83,58.75,55.43,73.68,59.81,89a200.88,200.88,0,0,1,6.78,41.17c0,.66,0,1.33.12,2,.25,2,1,3.42,3.31,3.55,2.9.15,2.6-2,2.68-3.73.57-13.13.35-26.26,0-39.39-.08-3.47-.35-6.94-.54-10.41-.09-1.71,1-3.41.09-5.13.87-4.34-1.27-7-4.9-8.88,4.65.12,4.8-2.75,4.11-6.18-.36-15.49-1.89-30.94-1.17-47.1-6.44,2-11.14,6.11-17.43,6.3C54,18.09,57,17.7,58.76,15.92c3.11-3.18,7.56-3.79,11-6.27q3-.36,6-.69l16.64.73c.17.79.33,1.58.5,2.37H78.14l-.32,1.45c7.73,6.87,18.53,5.57,28.05,9.26-2.58,1.62-5,1-7.17,1.29l-12.34-2L86.08,22c-.64-1.09-1.63-1.08-2.68-.87L83.05,21a1.9,1.9,0,0,0-2.36-.91h0a1.81,1.81,0,0,0-2.29-.95c-1.66-.57-3-2.09-5.55-1.47q1.45,23.06,2.92,46.17c-.9,3.39.47,5.26,3.82,6,4.84,1.1,8.18,5.17,12.87,6.67.93.3.7,1.66-.27,2.5-2.27,0-3.56-2.12-5.58-2.67-3.62-1-6.66-3.67-10.85-4.11l.32,4.66c-.51,3.94,2.1,4,4.91,4.17,3.47.23,7.25-1.35,10.94,1.61l-3.32.76L77,82.61c-.33.67-.59,1-.59,1.23.16,16.15.92,32.3-.22,48.45-.17,2.5,1.38,3.59,3.72,3.41s5.19,1.21,5.91-3.17c2.49-15.19,5.41-30.32,8.17-45.47,1.33-2,.09-4.85,2.29-6.5a6.63,6.63,0,0,1,1.51,5.34c-1.68,9.72-3.54,19.41-5,29.16a140.61,140.61,0,0,1-4.51,19.23c5.16,2.25,10.13,1.38,15,1.45,7.88.13,11.76,4.36,10.24,11.85-2.56,12.53-4.79,25.2-10.93,36.65-.8,1.49.27,2.9-.79,4.53-5.22.88-10.71.35-16.15.4-9.66.09-19.32-.08-29,.15-3,.07-4.56-.95-5.69-3.57-2.69-6.23-5-12.75-8.51-18.46-2.92-4.72-6.2-9.14-6.4-14.79-.16-4.66-2.77-9.33.27-14.1,1.46-2.28,3-3.32,5.59-3.21,3.66.15,7.33,0,11,.25,3.12.2,4.32-.92,3.63-4.07a75,75,0,0,1-1.76-14.22c-6.5-3.92-12.93,0-19.62-.05,1-2.66,3.55-2.44,5.28-3.71-1.81-2.79-5.95-1.89-7.75-4.87,3.43-1.27,6.53,1,9.77.55,2.75,2.17,6.17,2.33,9.8,3.9-.9-3.56-3.08-4.4-5.43-5-.35-2.81-4.38-2.37-4.72-5.51,2-1.27,3.72.46,5.54.51,2,2.75,5.37,4.34,6.47,7.91.42,1.36,2.71,1.31,2.66.46C56.6,108.51,60.74,107.77,59.52,104.77ZM91.88,140.2H69.71v.8H91.48l-.72,2.24c-8.32.17-16.64.44-25,.45-3.68,0-7.78,1-10.37-3.13-.35-.55-1.87-.56-2.82-.49-3.31.24-6.61.58-9.91,1a2.89,2.89,0,0,0-2.78,3.47,88.32,88.32,0,0,0,10.75,32c.59-5.47-1.76-9.42-2.1-13.71s-2-8.54,1.63-12.51c1.57,11.85,5.68,23,8.11,34.58H84.63c3,.12,6,.25,9,.34,1.37,0,2.51-.18,3.19-1.74,1.86-4.25,4.18-8.26,5.55-12.76,2.75-9.05,4.78-18.24,6.78-27.39-1.85-1.91-4-2.16-6.44-2.26C99.08,140.9,95.35,142,91.88,140.2ZM57.47,115.41c1.48,6.93,1.39,13.8,4.65,19.86,1-6.31.13-12.4-.5-18.49C61.34,114,59.55,115,57.47,115.41Z"/><path class="cls-3" d="M88.62,83.42l3.32-.76c-3.69-3-7.47-1.38-10.94-1.61-2.81-.19-5.42-.23-4.91-4.17,3.52,0,7.1,1.1,10.53-.55,2,.55,3.31,2.7,5.58,2.67,1-.84,1.2-2.2.27-2.5-4.69-1.5-8-5.57-12.87-6.67-3.35-.75-4.72-2.62-3.82-6,6.14,1,11,4.82,16.48,7.42,1.45.69,2.64,2,4.43,1.88.6,1.07-.72,2.6.75,3.43,1.65.34,2.22-1.16,3.3-1.74,5.6,1.24,11.24.09,16.86.33,1.73.07,3.66-.84,5.16.81-5.76.43-11.53.78-17.27,1.32-1.82.18-4.41-.16-4.3,2.92h7.56c0,.72,1.58,1.77-.45,2h-3.15c2.45,4.81,6.58,7.1,10.53,9.59.2,1.29,1,1.54,2.11,1.18l-.07-.1c-.88,3,3,2.46,3.52,4.88-5.37-.22-8.57-4-12.34-6.63-3.39-2.41-6.43-5.62-11.14-5.25a6.63,6.63,0,0,0-1.51-5.34c-2.2,1.65-1,4.53-2.29,6.5-.87-1.53-2.35-.9-3.56-.86C88.08,86.26,88,85.1,88.62,83.42Z"/><path class="cls-2" d="M33.66,37.3,12,32.36l.6-2.23,7.87.1,1.63.4A78.36,78.36,0,0,1,37.18,35c1.35.55,3.15,2.11,3.49-1l1.95-1.61c6.28-4.48,12.81-8.33,22.08-9-5.59,4.23-11.59,5-16,8.58-3.62,2-6.15,4.66-5.55,9.24C39.19,41,37,37.71,33.66,37.3Z"/><path class="cls-3" d="M33.66,37.3c3.37.41,5.53,3.67,9.45,3.92C42.51,36.64,45,34,48.66,32l.9,6.11c-.32.65-1.65.17-1.56,1.36,4.9,1.21,9.68,0,14.48-.48,1.14,2-.38,2.06-1.7,2.24l-14.51,2a2.77,2.77,0,0,0-3,0L17.68,43c6.41-1.74,13.26-.09,19.88-2.13-1.12-1.74-2.74-1.24-3.81-2Z"/><path class="cls-2" d="M33.75,38.85c1.07.74,2.69.24,3.81,2-6.62,2-13.47.39-19.88,2.13l-13,.9c.1-.71.19-1.43.29-2.15C14.41,39.06,24.08,39,33.75,38.85Z"/><path class="cls-2" d="M115.68,91.82c-4-2.49-8.08-4.78-10.53-9.59h3.15l17.85,11.45c-3.36,1.54-5.76-1.16-8.43-.78l.07.1C117.63,91.63,116.45,92.08,115.68,91.82Z"/><path class="cls-2" d="M108.75,80.19h-7.56c-.11-3.08,2.48-2.74,4.3-2.92,5.74-.54,11.51-.89,17.27-1.32,1.19.45,2.68,0,4,1.45C120.87,80.14,114.74,79.73,108.75,80.19Z"/><path class="cls-3" d="M71.51,62c.69,3.43.54,6.3-4.11,6.18-3,1.66-5.61.72-8.33-.88.76-2,2.73-.85,3.83-1.73.19-1.35-1.8-1.91-1.17-3.7C64.86,59.78,68.22,62.5,71.51,62Z"/><path class="cls-3" d="M75.79,9q-3,.33-6,.69A9.75,9.75,0,0,1,69,0C72.27,2.44,73.61,6,75.79,9Z"/><path class="cls-2" d="M100.74,74.81c-1.08.58-1.65,2.08-3.3,1.74-1.47-.83-.15-2.36-.75-3.43.39-3-1.32-6.26,1.4-9C101.11,67.22,100,71.24,100.74,74.81Z"/><path class="cls-3" d="M59.52,104.77c1.22,3-2.92,3.74-2.78,6.53,0,.85-2.24.9-2.66-.46-1.1-3.57-4.46-5.16-6.47-7.91,2-.44,3.59.71,4.87,1.82C55,106.9,57.17,106.57,59.52,104.77Z"/><path class="cls-2" d="M62.48,39c-4.8.52-9.58,1.69-14.48.48-.09-1.19,1.24-.71,1.56-1.36,4.26.56,8.55-2.06,12.8.13l.41.2Z"/><path class="cls-2" d="M40.56,27.12c.52-2.16-.61-5,2.77-6.33C44,24.11,42.56,27,42.45,30,40.83,29.69,41,28.19,40.56,27.12Z"/><path class="cls-3" d="M86.36,22.1l12.34,2L101,25.79C95.84,25.57,90.75,25.23,86.36,22.1Z"/><path class="cls-3" d="M40.56,27.12c.46,1.07.27,2.57,1.89,2.89.06.78.12,1.56.17,2.35L40.67,34C37.88,31.42,37.85,29.7,40.56,27.12Z"/><path class="cls-3" d="M46.79,107.93c2.35.64,4.53,1.48,5.43,5-3.63-1.57-7-1.73-9.8-3.9C43.53,107.35,45.41,108.62,46.79,107.93Z"/><path class="cls-3" d="M5,41.71c-.1.72-.19,1.44-.29,2.15-1.62.92-3.18,1.52-4.7-.74C1.68,42.05,3.06,41.05,5,41.71Z"/><path class="cls-3" d="M72.3,77c.89,1.72-.18,3.42-.09,5.13-1.38-.07-2.91.41-4.24-1.33C69.9,80,72.16,79.55,72.3,77Z"/><path class="cls-3" d="M92.93,12.06c-.17-.79-.33-1.58-.5-2.37,1.59-.83,2.77-.33,3.78,1C95.53,12.48,94.26,12.35,92.93,12.06Z"/><path class="cls-3" d="M12.6,30.13,12,32.36a5.91,5.91,0,0,1-4.72-1.21C9,29.12,10.77,29.57,12.6,30.13Z"/><path class="cls-3" d="M78.41,19.12a1.81,1.81,0,0,1,2.29.95A1.82,1.82,0,0,1,78.41,19.12Z"/><path class="cls-3" d="M80.69,20.07a1.9,1.9,0,0,1,2.36.91A1.75,1.75,0,0,1,80.69,20.07Z"/><path class="cls-3" d="M83.4,21.11c1-.21,2-.22,2.68.87A2.12,2.12,0,0,1,83.4,21.11Z"/><path class="cls-3" d="M22.1,30.63l-1.63-.4C21.25,29.4,21.75,29.73,22.1,30.63Z"/><path class="cls-4" d="M84.63,184.85H58.31c-2.43-11.61-6.54-22.73-8.11-34.58-3.58,4-2,8.29-1.63,12.51s2.69,8.24,2.1,13.71a88.32,88.32,0,0,1-10.75-32A2.89,2.89,0,0,1,42.7,141c3.3-.38,6.6-.72,9.91-1,1-.07,2.47-.06,2.82.49,2.59,4.13,6.69,3.13,10.37,3.13,8.32,0,16.64-.28,25-.45,1.39,6.78-.81,13.27-1.58,19.88C88.33,170.5,85.11,177.39,84.63,184.85Z"/><path class="cls-5" d="M84.63,184.85c.48-7.46,3.7-14.35,4.55-21.73.77-6.61,3-13.1,1.58-19.88l.72-2.24a2,2,0,0,0,.4-.8c3.47,1.79,7.2.7,10.79.84,2.42.1,4.59.35,6.44,2.26-2,9.15-4,18.34-6.78,27.39-1.37,4.5-3.69,8.51-5.55,12.76-.68,1.56-1.82,1.78-3.19,1.74C90.6,185.1,87.62,185,84.63,184.85Z"/><path class="cls-6" d="M91.88,140.2a2,2,0,0,1-.4.8H69.71v-.8Z"/><path class="cls-1" d="M115.68,91.82c.77.26,1.95-.19,2.11,1.18C116.66,93.36,115.88,93.11,115.68,91.82Z"/></g></g></svg>